<svg width="376" height="376" viewBox="0 0 376 376" fill="none" xmlns="http://www.w3.org/2000/svg">
<path fill-rule="evenodd" clip-rule="evenodd" d="M94.2593 12.5332H249.539C267.593 12.5332 282.229 27.3208 282.229 45.5622V111.62H297.538C298.439 108.613 299.141 105.517 299.676 102.714C301.073 95.3986 308.473 90.156 315.975 92.4716L316.785 92.7213C320.406 93.8389 323.418 96.6517 324.568 100.36C327.606 98.1679 331.545 97.2783 335.513 98.503L336.322 98.7528C340.777 100.127 344.309 104.068 344.589 109.084C347.455 107.423 350.932 106.835 354.478 107.929L355.268 108.173C359.63 109.519 363.25 113.387 363.433 118.526C363.558 122.041 363.391 127.001 361.959 131.736C360.527 136.472 357.923 140.68 355.875 143.524L355.783 143.651V285.023C355.783 294.143 348.465 301.537 339.437 301.537H282.229V330.438C282.229 348.679 267.593 363.467 249.539 363.467H94.2593C76.2049 363.467 61.5689 348.679 61.5689 330.438V200.988C61.5689 205.902 58.6324 210.628 53.649 212.208C55.9748 214.481 57.4826 217.615 57.4826 221.283V222.119C57.4826 226.736 54.8681 231.369 50.0489 233.043C46.7431 234.191 41.9753 235.479 37.0511 235.479C32.1269 235.479 27.3591 234.191 24.0533 233.043C19.2342 231.369 16.6196 226.736 16.6196 222.119V221.283C16.6196 217.615 18.1275 214.481 20.4533 212.208C15.4699 210.628 12.5333 205.902 12.5333 200.988V200.136C12.5333 195.952 14.523 192.4 17.4871 190.108C14.326 187.909 12.5333 184.184 12.5333 180.345V179.493C12.5333 171.617 19.5824 165.983 26.9098 166.768C30.0194 167.101 33.5527 167.357 37.0511 167.357C40.5496 167.357 44.0828 167.101 47.1925 166.768C54.5199 165.983 61.5689 171.617 61.5689 179.493V45.5622C61.5689 27.3208 76.2049 12.5332 94.2593 12.5332ZM61.5689 180.345V200.136C61.5689 195.952 59.5792 192.4 56.6152 190.108C59.7762 187.909 61.5689 184.184 61.5689 180.345ZM265.884 301.537H274.057V330.438C274.057 344.119 263.08 355.209 249.539 355.209H94.2593C80.7185 355.209 69.7415 344.119 69.7415 330.438V45.5622C69.7415 31.8812 80.7185 20.7905 94.2593 20.7905H249.539C263.08 20.7905 274.057 31.8812 274.057 45.5622V111.62H265.884V53.8195C265.884 40.1384 254.907 29.0477 241.366 29.0477H216.848H208.676C208.676 32.22 207.495 35.1137 205.554 37.305C203.31 39.8389 200.048 41.4336 196.417 41.4336H147.381C143.751 41.4336 140.489 39.8389 138.244 37.305C136.303 35.1137 135.122 32.22 135.122 29.0477H126.95H102.432C88.8911 29.0477 77.9141 40.1384 77.9141 53.8195V322.18C77.9141 335.861 88.8911 346.952 102.432 346.952H241.366C254.907 346.952 265.884 335.861 265.884 322.18V301.537ZM241.366 37.305H215.148C211.995 44.5957 204.795 49.6909 196.417 49.6909H147.381C139.003 49.6909 131.803 44.5957 128.65 37.305H102.432C93.4047 37.305 86.0867 44.6988 86.0867 53.8195V305.666H257.711V301.537H241.366C232.339 301.537 225.021 294.143 225.021 285.023V128.135C225.021 122.885 227.446 118.207 231.226 115.182C229.406 115.542 227.285 115.749 225.021 115.749C218.251 115.749 212.762 113.9 212.762 111.62C212.762 109.34 218.251 107.492 225.021 107.492C231.791 107.492 237.28 109.34 237.28 111.62C237.28 111.806 237.243 111.989 237.173 112.169C238.511 111.811 239.916 111.62 241.366 111.62H257.711V53.8195C257.711 44.6988 250.393 37.305 241.366 37.305ZM86.0867 322.18V313.923H257.711V322.18C257.711 331.301 250.393 338.695 241.366 338.695H102.432C93.4047 338.695 86.0867 331.301 86.0867 322.18ZM163.726 33.1763C163.726 30.8962 165.556 29.0477 167.813 29.0477H175.985C178.242 29.0477 180.072 30.8962 180.072 33.1763C180.072 35.4565 178.242 37.305 175.985 37.305H167.813C165.556 37.305 163.726 35.4565 163.726 33.1763ZM135.554 65.746C133.169 60.9306 125.451 60.2281 122.571 67.5003C121.732 69.6172 119.354 70.6466 117.259 69.7994C115.164 68.9523 114.145 66.5494 114.983 64.4324C120.276 51.0707 137.075 50.3662 142.863 62.0505C143.873 64.0896 143.056 66.5699 141.037 67.5903C139.019 68.6108 136.564 67.785 135.554 65.746ZM208.244 65.746C210.629 60.9306 218.347 60.2281 221.227 67.5003C222.066 69.6172 224.444 70.6466 226.539 69.7994C228.634 68.9523 229.653 66.5494 228.815 64.4324C223.522 51.0707 206.723 50.3662 200.935 62.0505C199.925 64.0896 200.742 66.5699 202.761 67.5903C204.779 68.6108 207.234 67.785 208.244 65.746ZM143.295 86.8485C143.295 93.689 137.806 99.2344 131.036 99.2344C124.266 99.2344 118.777 93.689 118.777 86.8485C118.777 80.008 124.266 74.4626 131.036 74.4626C137.806 74.4626 143.295 80.008 143.295 86.8485ZM131.036 82.7199C131.036 85.0001 129.207 86.8485 126.95 86.8485C124.693 86.8485 122.863 85.0001 122.863 82.7199C122.863 80.4397 124.693 78.5912 126.95 78.5912C129.207 78.5912 131.036 80.4397 131.036 82.7199ZM147.381 322.18C145.124 322.18 143.295 324.029 143.295 326.309C143.295 328.589 145.124 330.438 147.381 330.438H196.417C198.674 330.438 200.503 328.589 200.503 326.309C200.503 324.029 198.674 322.18 196.417 322.18H147.381ZM188.244 33.1763C188.244 30.8962 190.074 29.0477 192.331 29.0477C194.587 29.0477 196.417 30.8962 196.417 33.1763C196.417 35.4565 194.587 37.305 192.331 37.305C190.074 37.305 188.244 35.4565 188.244 33.1763ZM151.468 29.0477C149.211 29.0477 147.381 30.8962 147.381 33.1763C147.381 35.4565 149.211 37.305 151.468 37.305C153.724 37.305 155.554 35.4565 155.554 33.1763C155.554 30.8962 153.724 29.0477 151.468 29.0477ZM131.036 111.62C131.036 113.9 125.548 115.749 118.777 115.749C112.007 115.749 106.518 113.9 106.518 111.62C106.518 109.34 112.007 107.492 118.777 107.492C125.548 107.492 131.036 109.34 131.036 111.62ZM212.762 99.2344C219.532 99.2344 225.021 93.689 225.021 86.8485C225.021 80.008 219.532 74.4626 212.762 74.4626C205.992 74.4626 200.503 80.008 200.503 86.8485C200.503 93.689 205.992 99.2344 212.762 99.2344ZM208.676 86.8485C210.933 86.8485 212.762 85.0001 212.762 82.7199C212.762 80.4397 210.933 78.5912 208.676 78.5912C206.419 78.5912 204.589 80.4397 204.589 82.7199C204.589 85.0001 206.419 86.8485 208.676 86.8485ZM196.337 95.9154C196.78 93.6795 195.345 91.5045 193.132 91.0573C190.919 90.6101 188.766 92.0602 188.324 94.2961C186.771 102.14 179.758 106.46 171.899 106.461C164.039 106.461 157.027 102.14 155.474 94.2973C155.032 92.0614 152.879 90.6113 150.666 91.0585C148.453 91.5057 147.018 93.6808 147.461 95.9167C149.994 108.717 161.37 114.718 171.899 114.718C182.428 114.718 193.804 108.716 196.337 95.9154ZM306.747 56.2494C305.54 58.9708 303.207 61.0675 300.313 61.9297L299.819 62.0767L300.313 62.2238C303.207 63.086 305.54 65.1827 306.747 67.9041C307.953 65.1827 310.287 63.086 313.181 62.2238L313.675 62.0767L313.181 61.9297C310.287 61.0675 307.953 58.9708 306.747 56.2494ZM310.733 46.8903C309.774 42.5975 303.72 42.5975 302.761 46.8903L301.41 52.9384C301.084 54.3987 300.001 55.5662 298.579 55.9895L291.438 58.1166C287.53 59.2806 287.53 64.8729 291.438 66.0369L298.579 68.164C300.001 68.5873 301.084 69.7548 301.41 71.2151L302.761 77.2632C303.72 81.556 309.774 81.556 310.733 77.2632L312.084 71.2151C312.41 69.7548 313.493 68.5873 314.915 68.164L322.056 66.0369C325.964 64.8729 325.964 59.2806 322.056 58.1166L314.915 55.9895C313.493 55.5662 312.41 54.3987 312.084 52.9384L310.733 46.8903ZM48.0541 174.979C50.9838 174.666 53.3963 176.948 53.3963 179.493V180.345C53.3963 182.087 52.3799 183.35 51.1156 183.713C47.3658 184.79 42.1455 185.936 37.0511 185.936C31.9568 185.936 26.7364 184.79 22.9867 183.713C21.7223 183.35 20.7059 182.087 20.7059 180.345V179.493C20.7059 176.948 23.1185 174.666 26.0482 174.979C29.348 175.333 33.1822 175.614 37.0511 175.614C40.9201 175.614 44.7543 175.333 48.0541 174.979ZM53.3963 200.136C53.3963 197.591 50.9838 195.309 48.0541 195.622C44.7543 195.976 40.9201 196.257 37.0511 196.257C33.1822 196.257 29.348 195.976 26.0482 195.622C23.1185 195.309 20.7059 197.591 20.7059 200.136V200.988C20.7059 202.731 21.7223 203.993 22.9867 204.356C26.7364 205.433 31.9568 206.579 37.0511 206.579C42.1455 206.579 47.3658 205.433 51.1156 204.356C52.3799 203.993 53.3963 202.731 53.3963 200.988V200.136ZM24.7922 221.283C24.7922 218.706 27.3703 216.225 30.615 216.554C32.6409 216.76 34.833 216.9 37.0511 216.9C39.2693 216.9 41.4613 216.76 43.4872 216.554C46.7319 216.225 49.31 218.706 49.31 221.283V222.119C49.31 223.756 48.4276 224.874 47.392 225.234C44.485 226.244 40.6899 227.222 37.0511 227.222C33.4124 227.222 29.6173 226.244 26.7103 225.234C25.6746 224.874 24.7922 223.756 24.7922 222.119V221.283ZM307.701 104.278C308.269 101.306 311.173 99.6234 313.588 100.369L314.397 100.618C316.029 101.122 316.909 102.441 316.896 103.729C316.859 107.496 316.476 112.576 315.077 117.204C313.678 121.832 311.186 126.261 309.133 129.406C308.432 130.481 306.972 131.078 305.34 130.575L304.531 130.325C302.117 129.58 300.638 126.545 301.811 123.759C303.014 120.905 304.275 117.6 305.307 114.189C306.338 110.777 307.119 107.324 307.701 104.278ZM333.126 106.4C330.711 105.655 327.806 107.338 327.239 110.31C326.657 113.356 325.876 116.809 324.844 120.22C323.813 123.631 322.551 126.936 321.349 129.791C320.176 132.576 321.654 135.611 324.069 136.356L324.878 136.606C326.51 137.11 327.969 136.513 328.671 135.438C330.724 132.292 333.215 127.863 334.614 123.235C336.014 118.608 336.397 113.528 336.434 109.76C336.447 108.472 335.566 107.153 333.935 106.65L333.126 106.4ZM345.904 120.082C346.543 116.842 349.651 115.073 352.091 115.826L352.88 116.07C354.428 116.548 355.226 117.723 355.266 118.823C355.376 121.911 355.197 125.836 354.143 129.324C353.088 132.813 351.065 136.169 349.266 138.667C348.625 139.557 347.313 140.081 345.766 139.603L344.976 139.36C342.536 138.607 340.937 135.385 342.199 132.337C342.974 130.466 343.734 128.42 344.373 126.309C345.011 124.198 345.511 122.072 345.904 120.082ZM40.353 131.722C42.7751 131.161 45.2573 131.865 47.4742 133.67C49.7258 135.502 51.4776 138.32 52.1678 141.362C52.8581 144.403 52.4965 147.711 51.2601 150.352C50.0428 152.952 48.1122 154.678 45.6901 155.239L45.1234 155.37C42.5525 155.966 40.3458 155.2 39.1798 153.694C37.3203 151.292 35.5472 148.338 34.8733 145.368C34.1994 142.399 34.5214 138.959 35.1595 135.979C35.5596 134.11 37.2154 132.449 39.7862 131.854L40.353 131.722ZM60.1337 139.516C59.0447 134.718 56.3207 130.267 52.6013 127.239C48.8473 124.184 43.8635 122.437 38.5264 123.674L37.9597 123.805C33.0584 124.941 28.3924 128.532 27.1717 134.233C26.4226 137.732 25.8473 142.543 26.9074 147.214C27.9676 151.885 30.5599 155.962 32.7428 158.782C36.3003 163.376 42.0487 164.554 46.9499 163.419L47.5167 163.288C52.8538 162.051 56.5865 158.285 58.6479 153.882C60.6902 149.52 61.2227 144.315 60.1337 139.516ZM335.006 140.674C331.992 144.62 326.918 145.87 322.491 144.503L321.681 144.254C317.713 143.029 314.937 140.066 313.631 136.532C310.626 138.957 306.573 139.589 302.953 138.472L302.144 138.222C294.641 135.907 291.404 127.381 294.291 120.526C294.382 120.312 294.472 120.096 294.562 119.878H282.229H274.057H265.884H257.711H241.366C236.853 119.878 233.194 123.574 233.194 128.135V285.023C233.194 289.583 236.853 293.28 241.366 293.28H257.711H265.884H274.057H282.229H339.437C343.951 293.28 347.61 289.583 347.61 285.023V148.012C346.183 148.097 344.742 147.922 343.378 147.501L342.589 147.257C339.026 146.157 336.46 143.689 335.006 140.674Z" fill="#5E7079"/>
<path d="M282.229 293.28H339.437C343.951 293.28 347.61 289.583 347.61 285.023V148.012C346.183 148.097 344.742 147.922 343.378 147.501L342.589 147.257C339.026 146.157 336.46 143.689 335.006 140.674C331.992 144.62 326.918 145.87 322.491 144.503L321.681 144.254C317.713 143.029 314.937 140.066 313.631 136.532C310.626 138.957 306.573 139.589 302.953 138.472L302.144 138.222C294.641 135.907 291.404 127.381 294.291 120.526C294.382 120.312 294.472 120.096 294.562 119.878H282.229H274.057H265.884H257.711H241.366C236.853 119.878 233.194 123.574 233.194 128.135V285.023C233.194 289.583 236.853 293.28 241.366 293.28H257.711M282.229 293.28H257.711M282.229 293.28H274.057H265.884H257.711M94.2593 12.5332H249.539C267.593 12.5332 282.229 27.3208 282.229 45.5622V111.62H297.538C298.439 108.613 299.141 105.517 299.676 102.714C301.073 95.3986 308.473 90.156 315.975 92.4716L316.785 92.7213C320.406 93.8389 323.418 96.6517 324.568 100.36C327.606 98.1679 331.545 97.2783 335.513 98.503L336.322 98.7528C340.777 100.127 344.309 104.068 344.589 109.084C347.455 107.423 350.932 106.835 354.478 107.929L355.268 108.173C359.63 109.519 363.25 113.387 363.433 118.526C363.558 122.041 363.391 127.001 361.959 131.736C360.527 136.472 357.923 140.68 355.875 143.524L355.783 143.651V285.023C355.783 294.143 348.465 301.537 339.437 301.537H282.229V330.438C282.229 348.679 267.593 363.467 249.539 363.467H94.2593C76.2049 363.467 61.5689 348.679 61.5689 330.438V200.988C61.5689 205.902 58.6324 210.628 53.649 212.208C55.9748 214.481 57.4826 217.615 57.4826 221.283V222.119C57.4826 226.736 54.8681 231.369 50.0489 233.043C46.7431 234.191 41.9753 235.479 37.0511 235.479C32.1269 235.479 27.3591 234.191 24.0533 233.043C19.2342 231.369 16.6196 226.736 16.6196 222.119V221.283C16.6196 217.615 18.1275 214.481 20.4533 212.208C15.4699 210.628 12.5333 205.902 12.5333 200.988V200.136C12.5333 195.952 14.523 192.4 17.4871 190.108C14.326 187.909 12.5333 184.184 12.5333 180.345V179.493C12.5333 171.617 19.5824 165.983 26.9098 166.768C30.0194 167.101 33.5527 167.357 37.0511 167.357C40.5496 167.357 44.0828 167.101 47.1925 166.768C54.5199 165.983 61.5689 171.617 61.5689 179.493V45.5622C61.5689 27.3208 76.2049 12.5332 94.2593 12.5332ZM61.5689 180.345V200.136C61.5689 195.952 59.5792 192.4 56.6152 190.108C59.7762 187.909 61.5689 184.184 61.5689 180.345ZM265.884 301.537H274.057V330.438C274.057 344.119 263.08 355.209 249.539 355.209H94.2593C80.7185 355.209 69.7415 344.119 69.7415 330.438V45.5622C69.7415 31.8812 80.7185 20.7905 94.2593 20.7905H249.539C263.08 20.7905 274.057 31.8812 274.057 45.5622V111.62H265.884V53.8195C265.884 40.1384 254.907 29.0477 241.366 29.0477H216.848H208.676C208.676 32.22 207.495 35.1137 205.554 37.305C203.31 39.8389 200.048 41.4336 196.417 41.4336H147.381C143.751 41.4336 140.489 39.8389 138.244 37.305C136.303 35.1137 135.122 32.22 135.122 29.0477H126.95H102.432C88.8911 29.0477 77.9141 40.1384 77.9141 53.8195V322.18C77.9141 335.861 88.8911 346.952 102.432 346.952H241.366C254.907 346.952 265.884 335.861 265.884 322.18V301.537ZM241.366 37.305H215.148C211.995 44.5957 204.795 49.6909 196.417 49.6909H147.381C139.003 49.6909 131.803 44.5957 128.65 37.305H102.432C93.4047 37.305 86.0867 44.6988 86.0867 53.8195V305.666H257.711V301.537H241.366C232.339 301.537 225.021 294.143 225.021 285.023V128.135C225.021 122.885 227.446 118.207 231.226 115.182C229.406 115.542 227.285 115.749 225.021 115.749C218.251 115.749 212.762 113.9 212.762 111.62C212.762 109.34 218.251 107.492 225.021 107.492C231.791 107.492 237.28 109.34 237.28 111.62C237.28 111.806 237.243 111.989 237.173 112.169C238.511 111.811 239.916 111.62 241.366 111.62H257.711V53.8195C257.711 44.6988 250.393 37.305 241.366 37.305ZM86.0867 313.923V322.18C86.0867 331.301 93.4047 338.695 102.432 338.695H241.366C250.393 338.695 257.711 331.301 257.711 322.18V313.923H86.0867ZM163.726 33.1763C163.726 30.8962 165.556 29.0477 167.813 29.0477H175.985C178.242 29.0477 180.072 30.8962 180.072 33.1763C180.072 35.4565 178.242 37.305 175.985 37.305H167.813C165.556 37.305 163.726 35.4565 163.726 33.1763ZM135.554 65.746C133.169 60.9306 125.451 60.2281 122.571 67.5003C121.732 69.6172 119.354 70.6466 117.259 69.7994C115.164 68.9523 114.145 66.5494 114.983 64.4324C120.276 51.0707 137.075 50.3662 142.863 62.0505C143.873 64.0896 143.056 66.5699 141.037 67.5903C139.019 68.6108 136.564 67.785 135.554 65.746ZM208.244 65.746C210.629 60.9306 218.347 60.2281 221.227 67.5003C222.066 69.6172 224.444 70.6466 226.539 69.7994C228.634 68.9523 229.653 66.5494 228.815 64.4324C223.522 51.0707 206.723 50.3662 200.935 62.0505C199.925 64.0896 200.742 66.5699 202.761 67.5903C204.779 68.6108 207.234 67.785 208.244 65.746ZM143.295 86.8485C143.295 93.689 137.806 99.2344 131.036 99.2344C124.266 99.2344 118.777 93.689 118.777 86.8485C118.777 80.008 124.266 74.4626 131.036 74.4626C137.806 74.4626 143.295 80.008 143.295 86.8485ZM131.036 82.7199C131.036 85.0001 129.207 86.8485 126.95 86.8485C124.693 86.8485 122.863 85.0001 122.863 82.7199C122.863 80.4397 124.693 78.5912 126.95 78.5912C129.207 78.5912 131.036 80.4397 131.036 82.7199ZM147.381 322.18C145.124 322.18 143.295 324.029 143.295 326.309C143.295 328.589 145.124 330.438 147.381 330.438H196.417C198.674 330.438 200.503 328.589 200.503 326.309C200.503 324.029 198.674 322.18 196.417 322.18H147.381ZM188.244 33.1763C188.244 30.8962 190.074 29.0477 192.331 29.0477C194.587 29.0477 196.417 30.8962 196.417 33.1763C196.417 35.4565 194.587 37.305 192.331 37.305C190.074 37.305 188.244 35.4565 188.244 33.1763ZM151.468 29.0477C149.211 29.0477 147.381 30.8962 147.381 33.1763C147.381 35.4565 149.211 37.305 151.468 37.305C153.724 37.305 155.554 35.4565 155.554 33.1763C155.554 30.8962 153.724 29.0477 151.468 29.0477ZM131.036 111.62C131.036 113.9 125.548 115.749 118.777 115.749C112.007 115.749 106.518 113.9 106.518 111.62C106.518 109.34 112.007 107.492 118.777 107.492C125.548 107.492 131.036 109.34 131.036 111.62ZM212.762 99.2344C219.532 99.2344 225.021 93.689 225.021 86.8485C225.021 80.008 219.532 74.4626 212.762 74.4626C205.992 74.4626 200.503 80.008 200.503 86.8485C200.503 93.689 205.992 99.2344 212.762 99.2344ZM208.676 86.8485C210.933 86.8485 212.762 85.0001 212.762 82.7199C212.762 80.4397 210.933 78.5912 208.676 78.5912C206.419 78.5912 204.589 80.4397 204.589 82.7199C204.589 85.0001 206.419 86.8485 208.676 86.8485ZM196.337 95.9154C196.78 93.6795 195.345 91.5045 193.132 91.0573C190.919 90.6101 188.766 92.0602 188.324 94.2961C186.771 102.14 179.758 106.46 171.899 106.461C164.039 106.461 157.027 102.14 155.474 94.2973C155.032 92.0614 152.879 90.6113 150.666 91.0585C148.453 91.5057 147.018 93.6808 147.461 95.9167C149.994 108.717 161.37 114.718 171.899 114.718C182.428 114.718 193.804 108.716 196.337 95.9154ZM306.747 56.2494C305.54 58.9708 303.207 61.0675 300.313 61.9297L299.819 62.0767L300.313 62.2238C303.207 63.086 305.54 65.1827 306.747 67.9041C307.953 65.1827 310.287 63.086 313.181 62.2238L313.675 62.0767L313.181 61.9297C310.287 61.0675 307.953 58.9708 306.747 56.2494ZM310.733 46.8903C309.774 42.5975 303.72 42.5975 302.761 46.8903L301.41 52.9384C301.084 54.3987 300.001 55.5662 298.579 55.9895L291.438 58.1166C287.53 59.2806 287.53 64.8729 291.438 66.0369L298.579 68.164C300.001 68.5873 301.084 69.7548 301.41 71.2151L302.761 77.2632C303.72 81.556 309.774 81.556 310.733 77.2632L312.084 71.2151C312.41 69.7548 313.493 68.5873 314.915 68.164L322.056 66.0369C325.964 64.8729 325.964 59.2806 322.056 58.1166L314.915 55.9895C313.493 55.5662 312.41 54.3987 312.084 52.9384L310.733 46.8903ZM48.0541 174.979C50.9838 174.666 53.3963 176.948 53.3963 179.493V180.345C53.3963 182.087 52.3799 183.35 51.1156 183.713C47.3658 184.79 42.1455 185.936 37.0511 185.936C31.9568 185.936 26.7364 184.79 22.9867 183.713C21.7223 183.35 20.7059 182.087 20.7059 180.345V179.493C20.7059 176.948 23.1185 174.666 26.0482 174.979C29.348 175.333 33.1822 175.614 37.0511 175.614C40.9201 175.614 44.7543 175.333 48.0541 174.979ZM53.3963 200.136C53.3963 197.591 50.9838 195.309 48.0541 195.622C44.7543 195.976 40.9201 196.257 37.0511 196.257C33.1822 196.257 29.348 195.976 26.0482 195.622C23.1185 195.309 20.7059 197.591 20.7059 200.136V200.988C20.7059 202.731 21.7223 203.993 22.9867 204.356C26.7364 205.433 31.9568 206.579 37.0511 206.579C42.1455 206.579 47.3658 205.433 51.1156 204.356C52.3799 203.993 53.3963 202.731 53.3963 200.988V200.136ZM24.7922 221.283C24.7922 218.706 27.3703 216.225 30.615 216.554C32.6409 216.76 34.833 216.9 37.0511 216.9C39.2693 216.9 41.4613 216.76 43.4872 216.554C46.7319 216.225 49.31 218.706 49.31 221.283V222.119C49.31 223.756 48.4276 224.874 47.392 225.234C44.485 226.244 40.6899 227.222 37.0511 227.222C33.4124 227.222 29.6173 226.244 26.7103 225.234C25.6746 224.874 24.7922 223.756 24.7922 222.119V221.283ZM307.701 104.278C308.269 101.306 311.173 99.6234 313.588 100.369L314.397 100.618C316.029 101.122 316.909 102.441 316.896 103.729C316.859 107.496 316.476 112.576 315.077 117.204C313.678 121.832 311.186 126.261 309.133 129.406C308.432 130.481 306.972 131.078 305.34 130.575L304.531 130.325C302.117 129.58 300.638 126.545 301.811 123.759C303.014 120.905 304.275 117.6 305.307 114.189C306.338 110.777 307.119 107.324 307.701 104.278ZM333.126 106.4C330.711 105.655 327.806 107.338 327.239 110.31C326.657 113.356 325.876 116.809 324.844 120.22C323.813 123.631 322.551 126.936 321.349 129.791C320.176 132.576 321.654 135.611 324.069 136.356L324.878 136.606C326.51 137.11 327.969 136.513 328.671 135.438C330.724 132.292 333.215 127.863 334.614 123.235C336.014 118.608 336.397 113.528 336.434 109.76C336.447 108.472 335.566 107.153 333.935 106.65L333.126 106.4ZM345.904 120.082C346.543 116.842 349.651 115.073 352.091 115.826L352.88 116.07C354.428 116.548 355.226 117.723 355.266 118.823C355.376 121.911 355.197 125.836 354.143 129.324C353.088 132.813 351.065 136.169 349.266 138.667C348.625 139.557 347.313 140.081 345.766 139.603L344.976 139.36C342.536 138.607 340.937 135.385 342.199 132.337C342.974 130.466 343.734 128.42 344.373 126.309C345.011 124.198 345.511 122.072 345.904 120.082ZM40.353 131.722C42.7751 131.161 45.2573 131.865 47.4742 133.67C49.7258 135.502 51.4776 138.32 52.1678 141.362C52.8581 144.403 52.4965 147.711 51.2601 150.352C50.0428 152.952 48.1122 154.678 45.6901 155.239L45.1234 155.37C42.5525 155.966 40.3458 155.2 39.1798 153.694C37.3203 151.292 35.5472 148.338 34.8733 145.368C34.1994 142.399 34.5214 138.959 35.1595 135.979C35.5596 134.11 37.2154 132.449 39.7862 131.854L40.353 131.722ZM60.1337 139.516C59.0447 134.718 56.3207 130.267 52.6013 127.239C48.8473 124.184 43.8635 122.437 38.5264 123.674L37.9597 123.805C33.0584 124.941 28.3924 128.532 27.1717 134.233C26.4226 137.732 25.8473 142.543 26.9074 147.214C27.9676 151.885 30.5599 155.962 32.7428 158.782C36.3003 163.376 42.0487 164.554 46.9499 163.419L47.5167 163.288C52.8538 162.051 56.5865 158.285 58.6479 153.882C60.6902 149.52 61.2227 144.315 60.1337 139.516Z" stroke="white"/>
<path d="M107.023 239H97.1562V221.867H107.023V224.844H100.789V228.605H106.59V231.582H100.789V236H107.023V239ZM117.77 225.652C119.168 225.652 120.293 226.035 121.145 226.801C121.996 227.559 122.422 228.777 122.422 230.457V239H118.848V231.348C118.848 230.41 118.676 229.703 118.332 229.227C117.996 228.75 117.465 228.512 116.738 228.512C115.645 228.512 114.898 228.883 114.5 229.625C114.102 230.367 113.902 231.438 113.902 232.836V239H110.328V225.898H113.059L113.539 227.574H113.738C114.02 227.121 114.367 226.754 114.781 226.473C115.203 226.191 115.668 225.984 116.176 225.852C116.691 225.719 117.223 225.652 117.77 225.652ZM125.047 244.766C124.641 244.766 124.219 244.734 123.781 244.672C123.344 244.617 122.98 244.551 122.691 244.473V241.66C122.98 241.738 123.254 241.793 123.512 241.824C123.762 241.863 124.047 241.883 124.367 241.883C124.852 241.883 125.262 241.746 125.598 241.473C125.934 241.207 126.102 240.68 126.102 239.891V225.898H129.676V240.418C129.676 241.215 129.523 241.941 129.219 242.598C128.914 243.262 128.422 243.789 127.742 244.18C127.062 244.57 126.164 244.766 125.047 244.766ZM125.949 222.512C125.949 221.84 126.137 221.383 126.512 221.141C126.895 220.891 127.355 220.766 127.895 220.766C128.426 220.766 128.883 220.891 129.266 221.141C129.648 221.383 129.84 221.84 129.84 222.512C129.84 223.176 129.648 223.637 129.266 223.895C128.883 224.145 128.426 224.27 127.895 224.27C127.355 224.27 126.895 224.145 126.512 223.895C126.137 223.637 125.949 223.176 125.949 222.512ZM145.344 232.426C145.344 233.52 145.195 234.488 144.898 235.332C144.609 236.176 144.184 236.891 143.621 237.477C143.066 238.055 142.395 238.492 141.605 238.789C140.824 239.086 139.941 239.234 138.957 239.234C138.035 239.234 137.188 239.086 136.414 238.789C135.648 238.492 134.98 238.055 134.41 237.477C133.848 236.891 133.41 236.176 133.098 235.332C132.793 234.488 132.641 233.52 132.641 232.426C132.641 230.973 132.898 229.742 133.414 228.734C133.93 227.727 134.664 226.961 135.617 226.438C136.57 225.914 137.707 225.652 139.027 225.652C140.254 225.652 141.34 225.914 142.285 226.438C143.238 226.961 143.984 227.727 144.523 228.734C145.07 229.742 145.344 230.973 145.344 232.426ZM136.285 232.426C136.285 233.285 136.379 234.008 136.566 234.594C136.754 235.18 137.047 235.621 137.445 235.918C137.844 236.215 138.363 236.363 139.004 236.363C139.637 236.363 140.148 236.215 140.539 235.918C140.938 235.621 141.227 235.18 141.406 234.594C141.594 234.008 141.688 233.285 141.688 232.426C141.688 231.559 141.594 230.84 141.406 230.27C141.227 229.691 140.938 229.258 140.539 228.969C140.141 228.68 139.621 228.535 138.98 228.535C138.035 228.535 137.348 228.859 136.918 229.508C136.496 230.156 136.285 231.129 136.285 232.426ZM146.422 225.898H150.336L152.809 233.27C152.887 233.504 152.953 233.742 153.008 233.984C153.062 234.227 153.109 234.477 153.148 234.734C153.188 234.992 153.219 235.262 153.242 235.543H153.312C153.359 235.121 153.422 234.727 153.5 234.359C153.586 233.992 153.691 233.629 153.816 233.27L156.242 225.898H160.074L154.531 240.676C154.195 241.582 153.758 242.336 153.219 242.938C152.68 243.547 152.059 244.004 151.355 244.309C150.66 244.613 149.895 244.766 149.059 244.766C148.652 244.766 148.301 244.742 148.004 244.695C147.707 244.656 147.453 244.613 147.242 244.566V241.73C147.406 241.77 147.613 241.805 147.863 241.836C148.113 241.867 148.375 241.883 148.648 241.883C149.148 241.883 149.578 241.777 149.938 241.566C150.297 241.355 150.598 241.07 150.84 240.711C151.082 240.359 151.273 239.973 151.414 239.551L151.625 238.906L146.422 225.898ZM102.629 245.867C104.84 245.867 106.453 246.344 107.469 247.297C108.484 248.242 108.992 249.547 108.992 251.211C108.992 251.961 108.879 252.68 108.652 253.367C108.426 254.047 108.055 254.652 107.539 255.184C107.031 255.715 106.352 256.137 105.5 256.449C104.648 256.754 103.598 256.906 102.348 256.906H100.789V263H97.1562V245.867H102.629ZM102.441 248.844H100.789V253.93H101.984C102.664 253.93 103.254 253.84 103.754 253.66C104.254 253.48 104.641 253.199 104.914 252.816C105.188 252.434 105.324 251.941 105.324 251.34C105.324 250.496 105.09 249.871 104.621 249.465C104.152 249.051 103.426 248.844 102.441 248.844ZM117.348 249.652C118.559 249.652 119.602 249.887 120.477 250.355C121.352 250.816 122.027 251.488 122.504 252.371C122.98 253.254 123.219 254.332 123.219 255.605V257.34H114.77C114.809 258.348 115.109 259.141 115.672 259.719C116.242 260.289 117.031 260.574 118.039 260.574C118.875 260.574 119.641 260.488 120.336 260.316C121.031 260.145 121.746 259.887 122.48 259.543V262.309C121.832 262.629 121.152 262.863 120.441 263.012C119.738 263.16 118.883 263.234 117.875 263.234C116.562 263.234 115.398 262.992 114.383 262.508C113.375 262.023 112.582 261.285 112.004 260.293C111.434 259.301 111.148 258.051 111.148 256.543C111.148 255.012 111.406 253.738 111.922 252.723C112.445 251.699 113.172 250.934 114.102 250.426C115.031 249.91 116.113 249.652 117.348 249.652ZM117.371 252.195C116.676 252.195 116.098 252.418 115.637 252.863C115.184 253.309 114.922 254.008 114.852 254.961H119.867C119.859 254.43 119.762 253.957 119.574 253.543C119.395 253.129 119.121 252.801 118.754 252.559C118.395 252.316 117.934 252.195 117.371 252.195ZM131.492 249.629C133.25 249.629 134.598 250.012 135.535 250.777C136.473 251.543 136.941 252.707 136.941 254.27V263H134.445L133.754 261.219H133.66C133.285 261.688 132.902 262.07 132.512 262.367C132.121 262.664 131.672 262.883 131.164 263.023C130.656 263.164 130.039 263.234 129.312 263.234C128.539 263.234 127.844 263.086 127.227 262.789C126.617 262.492 126.137 262.039 125.785 261.43C125.434 260.812 125.258 260.031 125.258 259.086C125.258 257.695 125.746 256.672 126.723 256.016C127.699 255.352 129.164 254.984 131.117 254.914L133.391 254.844V254.27C133.391 253.582 133.211 253.078 132.852 252.758C132.492 252.438 131.992 252.277 131.352 252.277C130.719 252.277 130.098 252.367 129.488 252.547C128.879 252.727 128.27 252.953 127.66 253.227L126.477 250.812C127.172 250.445 127.949 250.156 128.809 249.945C129.676 249.734 130.57 249.629 131.492 249.629ZM133.391 256.93L132.008 256.977C130.852 257.008 130.047 257.215 129.594 257.598C129.148 257.98 128.926 258.484 128.926 259.109C128.926 259.656 129.086 260.047 129.406 260.281C129.727 260.508 130.145 260.621 130.66 260.621C131.426 260.621 132.07 260.395 132.594 259.941C133.125 259.488 133.391 258.844 133.391 258.008V256.93ZM145.953 263.234C144.656 263.234 143.551 263 142.637 262.531C141.723 262.055 141.027 261.32 140.551 260.328C140.074 259.336 139.836 258.066 139.836 256.52C139.836 254.918 140.105 253.613 140.645 252.605C141.191 251.59 141.945 250.844 142.906 250.367C143.875 249.891 144.996 249.652 146.27 249.652C147.176 249.652 147.957 249.742 148.613 249.922C149.277 250.094 149.855 250.301 150.348 250.543L149.293 253.309C148.73 253.082 148.207 252.898 147.723 252.758C147.238 252.609 146.754 252.535 146.27 252.535C145.645 252.535 145.125 252.684 144.711 252.98C144.297 253.27 143.988 253.707 143.785 254.293C143.582 254.879 143.48 255.613 143.48 256.496C143.48 257.363 143.59 258.082 143.809 258.652C144.027 259.223 144.344 259.648 144.758 259.93C145.172 260.203 145.676 260.34 146.27 260.34C147.012 260.34 147.672 260.242 148.25 260.047C148.828 259.844 149.391 259.562 149.938 259.203V262.262C149.391 262.605 148.816 262.852 148.215 263C147.621 263.156 146.867 263.234 145.953 263.234ZM158.387 249.652C159.598 249.652 160.641 249.887 161.516 250.355C162.391 250.816 163.066 251.488 163.543 252.371C164.02 253.254 164.258 254.332 164.258 255.605V257.34H155.809C155.848 258.348 156.148 259.141 156.711 259.719C157.281 260.289 158.07 260.574 159.078 260.574C159.914 260.574 160.68 260.488 161.375 260.316C162.07 260.145 162.785 259.887 163.52 259.543V262.309C162.871 262.629 162.191 262.863 161.48 263.012C160.777 263.16 159.922 263.234 158.914 263.234C157.602 263.234 156.438 262.992 155.422 262.508C154.414 262.023 153.621 261.285 153.043 260.293C152.473 259.301 152.188 258.051 152.188 256.543C152.188 255.012 152.445 253.738 152.961 252.723C153.484 251.699 154.211 250.934 155.141 250.426C156.07 249.91 157.152 249.652 158.387 249.652ZM158.41 252.195C157.715 252.195 157.137 252.418 156.676 252.863C156.223 253.309 155.961 254.008 155.891 254.961H160.906C160.898 254.43 160.801 253.957 160.613 253.543C160.434 253.129 160.16 252.801 159.793 252.559C159.434 252.316 158.973 252.195 158.41 252.195ZM108.781 280.426C108.781 281.52 108.633 282.488 108.336 283.332C108.047 284.176 107.621 284.891 107.059 285.477C106.504 286.055 105.832 286.492 105.043 286.789C104.262 287.086 103.379 287.234 102.395 287.234C101.473 287.234 100.625 287.086 99.8516 286.789C99.0859 286.492 98.418 286.055 97.8477 285.477C97.2852 284.891 96.8477 284.176 96.5352 283.332C96.2305 282.488 96.0781 281.52 96.0781 280.426C96.0781 278.973 96.3359 277.742 96.8516 276.734C97.3672 275.727 98.1016 274.961 99.0547 274.438C100.008 273.914 101.145 273.652 102.465 273.652C103.691 273.652 104.777 273.914 105.723 274.438C106.676 274.961 107.422 275.727 107.961 276.734C108.508 277.742 108.781 278.973 108.781 280.426ZM99.7227 280.426C99.7227 281.285 99.8164 282.008 100.004 282.594C100.191 283.18 100.484 283.621 100.883 283.918C101.281 284.215 101.801 284.363 102.441 284.363C103.074 284.363 103.586 284.215 103.977 283.918C104.375 283.621 104.664 283.18 104.844 282.594C105.031 282.008 105.125 281.285 105.125 280.426C105.125 279.559 105.031 278.84 104.844 278.27C104.664 277.691 104.375 277.258 103.977 276.969C103.578 276.68 103.059 276.535 102.418 276.535C101.473 276.535 100.785 276.859 100.355 277.508C99.9336 278.156 99.7227 279.129 99.7227 280.426ZM118.977 276.582H115.883V287H112.309V276.582H110.34V274.859L112.309 273.898V272.938C112.309 271.82 112.496 270.953 112.871 270.336C113.254 269.711 113.789 269.273 114.477 269.023C115.172 268.766 115.992 268.637 116.938 268.637C117.633 268.637 118.266 268.695 118.836 268.812C119.406 268.922 119.871 269.047 120.23 269.188L119.316 271.812C119.043 271.727 118.746 271.648 118.426 271.578C118.105 271.508 117.738 271.473 117.324 271.473C116.824 271.473 116.457 271.625 116.223 271.93C115.996 272.227 115.883 272.609 115.883 273.078V273.898H118.977V276.582ZM134.809 287L130.684 273.559H130.578C130.594 273.879 130.617 274.363 130.648 275.012C130.688 275.652 130.723 276.336 130.754 277.062C130.785 277.789 130.801 278.445 130.801 279.031V287H127.555V269.867H132.5L136.555 282.969H136.625L140.926 269.867H145.871V287H142.484V278.891C142.484 278.352 142.492 277.73 142.508 277.027C142.531 276.324 142.559 275.656 142.59 275.023C142.621 274.383 142.645 273.902 142.66 273.582H142.555L138.137 287H134.809ZM153.488 273.898V287H149.914V273.898H153.488ZM151.707 268.766C152.238 268.766 152.695 268.891 153.078 269.141C153.461 269.383 153.652 269.84 153.652 270.512C153.652 271.176 153.461 271.637 153.078 271.895C152.695 272.145 152.238 272.27 151.707 272.27C151.168 272.27 150.707 272.145 150.324 271.895C149.949 271.637 149.762 271.176 149.762 270.512C149.762 269.84 149.949 269.383 150.324 269.141C150.707 268.891 151.168 268.766 151.707 268.766ZM164.691 273.652C166.09 273.652 167.215 274.035 168.066 274.801C168.918 275.559 169.344 276.777 169.344 278.457V287H165.77V279.348C165.77 278.41 165.598 277.703 165.254 277.227C164.918 276.75 164.387 276.512 163.66 276.512C162.566 276.512 161.82 276.883 161.422 277.625C161.023 278.367 160.824 279.438 160.824 280.836V287H157.25V273.898H159.98L160.461 275.574H160.66C160.941 275.121 161.289 274.754 161.703 274.473C162.125 274.191 162.59 273.984 163.098 273.852C163.613 273.719 164.145 273.652 164.691 273.652ZM177.172 287.234C175.711 287.234 174.52 286.664 173.598 285.523C172.684 284.375 172.227 282.691 172.227 280.473C172.227 278.23 172.691 276.535 173.621 275.387C174.551 274.23 175.766 273.652 177.266 273.652C177.891 273.652 178.441 273.738 178.918 273.91C179.395 274.082 179.805 274.312 180.148 274.602C180.5 274.891 180.797 275.215 181.039 275.574H181.156C181.109 275.324 181.051 274.957 180.98 274.473C180.918 273.98 180.887 273.477 180.887 272.961V268.766H184.473V287H181.73L181.039 285.301H180.887C180.66 285.66 180.375 285.988 180.031 286.285C179.695 286.574 179.293 286.805 178.824 286.977C178.355 287.148 177.805 287.234 177.172 287.234ZM178.426 284.387C179.402 284.387 180.09 284.098 180.488 283.52C180.895 282.934 181.109 282.055 181.133 280.883V280.496C181.133 279.223 180.938 278.25 180.547 277.578C180.156 276.898 179.43 276.559 178.367 276.559C177.578 276.559 176.961 276.898 176.516 277.578C176.07 278.258 175.848 279.238 175.848 280.52C175.848 281.801 176.07 282.766 176.516 283.414C176.969 284.062 177.605 284.387 178.426 284.387ZM191.211 281.316H188.352L187.754 269.867H191.809L191.211 281.316ZM187.707 285.324C187.707 284.59 187.906 284.074 188.305 283.777C188.711 283.48 189.199 283.332 189.77 283.332C190.324 283.332 190.801 283.48 191.199 283.777C191.605 284.074 191.809 284.59 191.809 285.324C191.809 286.027 191.605 286.535 191.199 286.848C190.801 287.16 190.324 287.316 189.77 287.316C189.199 287.316 188.711 287.16 188.305 286.848C187.906 286.535 187.707 286.027 187.707 285.324Z" fill="#FF9829"/>
<path fill-rule="evenodd" clip-rule="evenodd" d="M291.5 176.014C274.084 176.014 259.965 190.249 259.965 207.81C259.965 225.37 274.084 239.605 291.5 239.605C308.916 239.605 323.035 225.37 323.035 207.81C323.035 190.249 308.916 176.014 291.5 176.014ZM254 207.81C254 186.928 270.789 170 291.5 170C312.211 170 329 186.928 329 207.81C329 228.691 312.211 245.619 291.5 245.619C270.789 245.619 254 228.691 254 207.81Z" fill="#F49633"/>
<path d="M305.225 195.059C301.068 197.194 296.338 198.408 291.315 198.408C286.293 198.408 281.706 197.236 277.603 195.161C273.749 198.926 275.479 205.366 280.734 206.78C284.104 207.682 287.653 208.169 291.315 208.169C294.978 208.169 298.688 207.664 302.129 206.72C307.39 205.276 309.102 198.829 305.225 195.065V195.059Z" fill="#1D759F"/>
<path d="M277.775 231.302C281.932 229.167 286.662 227.952 291.685 227.952C296.707 227.952 301.294 229.125 305.397 231.2C309.251 227.435 307.521 220.994 302.266 219.581C298.896 218.679 295.347 218.191 291.685 218.191C288.022 218.191 284.312 218.697 280.871 219.641C275.61 221.084 273.898 227.531 277.775 231.296V231.302Z" fill="#1D759F"/>
<path d="M291.445 195.059C294.822 195.059 297.559 192.385 297.559 189.087C297.559 185.789 294.822 183.115 291.445 183.115C288.069 183.115 285.331 185.789 285.331 189.087C285.331 192.385 288.069 195.059 291.445 195.059Z" fill="#F49633"/>
<path d="M278.294 217.601L305.225 195.055C309.18 198.892 308.941 205.206 304.706 208.748L277.776 231.295C273.821 227.458 274.06 221.143 278.294 217.601Z" fill="#34BDEA"/>
</svg>
