<svg width="362" height="362" viewBox="0 0 362 362" fill="none" xmlns="http://www.w3.org/2000/svg">
<path fill-rule="evenodd" clip-rule="evenodd" d="M226.366 12.0664H136.627C126.192 12.0664 117.734 20.2666 117.734 30.382V104.651C117.734 100.283 113.66 97.1589 109.426 97.5941C107.628 97.7788 105.586 97.9206 103.565 97.9206C101.543 97.9206 99.5008 97.7788 97.7036 97.5941C93.469 97.1589 89.3952 100.283 89.3952 104.651V105.123C89.3952 107.252 90.4312 109.317 92.258 110.537C90.545 111.808 89.3952 113.777 89.3952 116.098V116.57C89.3952 119.295 91.0922 121.916 93.9723 122.792C92.6281 124.052 91.7567 125.79 91.7567 127.824V128.288C91.7567 130.418 92.8031 132.555 94.7592 133.747L34.2269 154.813C30.4847 156.115 29.9755 161.044 33.3771 163.04L71.0911 185.17L31.9638 215.116C29.1745 217.251 29.7248 221.495 32.9723 222.894L72.866 240.083V305.84C72.866 307.728 74.0619 309.423 75.8773 310.107L181.513 349.933L289.532 307.818C291.32 307.12 292.492 305.439 292.492 303.569V238.948L329.064 222.832C332.208 221.447 332.805 217.366 330.183 215.187L294.003 185.123L328.949 161.891C332.14 159.77 331.49 155.032 327.838 153.793L287.767 140.197V145.048L326.278 158.115L289.816 182.354L262.671 172.329H249.403L283.575 184.949L239.223 201.774C242.936 198.43 245.259 193.655 245.259 188.354V172.327H278.321C283.538 172.327 287.767 168.227 287.767 163.17V84.7751L287.821 84.7047C289.004 83.1276 290.509 80.7942 291.337 78.1681C292.164 75.542 292.261 72.7915 292.189 70.8426C292.083 67.993 289.991 65.8479 287.47 65.1014L287.013 64.9663C284.964 64.3594 282.954 64.6855 281.298 65.6068C281.137 62.8249 279.095 60.64 276.521 59.8777L276.053 59.7392C273.76 59.06 271.483 59.5533 269.728 60.769C269.063 58.7126 267.322 57.1528 265.229 56.5331L264.762 56.3946C260.426 55.1105 256.149 58.0177 255.342 62.0743C255.033 63.6286 254.627 65.3456 254.106 67.0131H245.259V30.382C245.259 20.2666 236.8 12.0664 226.366 12.0664ZM226.319 206.669H137.671L181.508 223.668L226.319 206.669ZM122.905 200.943C119.7 197.661 117.734 193.23 117.734 188.354L117.734 170.903L81.5863 184.921L122.905 200.943ZM117.734 165.972V130.617L114.359 131.791C113.633 132.933 112.528 133.862 111.076 134.345C109.166 134.982 106.41 135.696 103.565 135.696C103.427 135.696 103.289 135.695 103.152 135.691L35.8227 159.123L75.4434 182.371L117.734 165.972ZM115.266 126.611L117.734 125.752L117.734 116.57C117.734 119.295 116.037 121.916 113.157 122.792C114.225 123.794 114.995 125.097 115.266 126.611ZM110.649 128.217L102.451 131.07C100.707 130.926 98.9733 130.477 97.5884 130.015C96.9898 129.816 96.4799 129.196 96.4799 128.288V127.824C96.4799 126.395 97.9698 125.02 99.845 125.202C101.016 125.316 102.283 125.394 103.565 125.394C104.846 125.394 106.113 125.316 107.284 125.202C109.159 125.02 110.649 126.395 110.649 127.824V128.217ZM117.734 116.098V105.123C117.734 107.252 116.698 109.317 114.871 110.537C116.584 111.808 117.734 113.777 117.734 116.098ZM240.536 172.327H235.813V183.775C235.813 191.361 229.469 197.511 221.643 197.511H141.35C133.524 197.511 127.18 191.361 127.18 183.775V34.9609C127.18 27.3743 133.524 21.2242 141.35 21.2242H155.519H160.242C160.242 22.9833 160.924 24.5879 162.046 25.8031C163.344 27.2082 165.229 28.0925 167.327 28.0925H195.666C197.764 28.0925 199.649 27.2082 200.947 25.8031C202.068 24.5879 202.751 22.9833 202.751 21.2242H207.474H221.643C229.469 21.2242 235.813 27.3743 235.813 34.9608V67.0131H240.536V30.382C240.536 22.7954 234.192 16.6453 226.366 16.6453H136.627C128.801 16.6453 122.457 22.7954 122.457 30.382V188.354C122.457 195.94 128.801 202.09 136.627 202.09H226.366C234.192 202.09 240.536 195.94 240.536 188.354V172.327ZM206.491 25.8031H221.643C226.86 25.8031 231.089 29.9031 231.089 34.9608V67.0131H221.643C220.805 67.0131 219.993 67.1188 219.22 67.3173C219.26 67.2177 219.282 67.1162 219.282 67.0131C219.282 65.7486 216.11 64.7236 212.197 64.7236C208.284 64.7236 205.112 65.7486 205.112 67.0131C205.112 68.2775 208.284 69.3025 212.197 69.3025C213.505 69.3025 214.731 69.1879 215.783 68.988C213.598 70.6654 212.197 73.2595 212.197 76.1708V163.17C212.197 168.227 216.426 172.327 221.643 172.327H231.089V174.617H131.903V34.9609C131.903 29.9032 136.133 25.8031 141.35 25.8031H156.502C158.324 29.846 162.485 32.6714 167.327 32.6714H195.666C200.508 32.6714 204.669 29.846 206.491 25.8031ZM131.903 179.196V183.775C131.903 188.832 136.133 192.932 141.35 192.932H221.643C226.86 192.932 231.089 188.832 231.089 183.775V179.196H131.903ZM179.135 21.2242C177.831 21.2242 176.773 22.2492 176.773 23.5136C176.773 24.7781 177.831 25.8031 179.135 25.8031H183.858C185.162 25.8031 186.22 24.7781 186.22 23.5136C186.22 22.2492 185.162 21.2242 183.858 21.2242H179.135ZM152.989 42.5472C154.653 38.5146 159.114 38.9042 160.492 41.5744C161.076 42.7052 162.494 43.1631 163.661 42.5972C164.827 42.0313 165.299 40.6559 164.716 39.5252C161.371 33.0459 151.662 33.4366 148.603 40.846C148.119 42.0199 148.708 43.3524 149.919 43.8222C151.13 44.292 152.504 43.7212 152.989 42.5472ZM210.004 42.5472C208.34 38.5146 203.879 38.9042 202.501 41.5744C201.917 42.7052 200.498 43.1631 199.332 42.5972C198.166 42.0313 197.693 40.6559 198.277 39.5252C201.622 33.0459 211.331 33.4366 214.389 40.846C214.874 42.0199 214.285 43.3524 213.074 43.8222C211.863 44.292 210.489 43.7212 210.004 42.5472ZM157.881 60.1447C161.794 60.1447 164.965 57.0697 164.965 53.2764C164.965 49.4831 161.794 46.4081 157.881 46.4081C153.968 46.4081 150.796 49.4831 150.796 53.2764C150.796 57.0697 153.968 60.1447 157.881 60.1447ZM155.519 53.2764C156.823 53.2764 157.881 52.2514 157.881 50.987C157.881 49.7225 156.823 48.6975 155.519 48.6975C154.215 48.6975 153.158 49.7225 153.158 50.987C153.158 52.2514 154.215 53.2764 155.519 53.2764ZM164.965 186.064C164.965 184.8 166.023 183.775 167.327 183.775H195.666C196.97 183.775 198.027 184.8 198.027 186.064C198.027 187.329 196.97 188.354 195.666 188.354H167.327C166.023 188.354 164.965 187.329 164.965 186.064ZM193.304 21.2242C192 21.2242 190.943 22.2492 190.943 23.5136C190.943 24.7781 192 25.8031 193.304 25.8031C194.609 25.8031 195.666 24.7781 195.666 23.5136C195.666 22.2492 194.609 21.2242 193.304 21.2242ZM167.327 23.5136C167.327 22.2492 168.384 21.2242 169.689 21.2242C170.993 21.2242 172.05 22.2492 172.05 23.5136C172.05 24.7781 170.993 25.8031 169.689 25.8031C168.384 25.8031 167.327 24.7781 167.327 23.5136ZM150.796 69.3025C154.709 69.3025 157.881 68.2775 157.881 67.0131C157.881 65.7486 154.709 64.7236 150.796 64.7236C146.883 64.7236 143.711 65.7486 143.711 67.0131C143.711 68.2775 146.883 69.3025 150.796 69.3025ZM212.197 53.2764C212.197 57.0697 209.025 60.1447 205.112 60.1447C201.199 60.1447 198.027 57.0697 198.027 53.2764C198.027 49.4831 201.199 46.4081 205.112 46.4081C209.025 46.4081 212.197 49.4831 212.197 53.2764ZM205.112 50.987C205.112 52.2514 204.055 53.2764 202.751 53.2764C201.446 53.2764 200.389 52.2514 200.389 50.987C200.389 49.7225 201.446 48.6975 202.751 48.6975C204.055 48.6975 205.112 49.7225 205.112 50.987ZM255.71 39.4582C257.382 38.9801 258.731 37.8174 259.428 36.3083C260.126 37.8174 261.474 38.9801 263.147 39.4582L263.432 39.5397L263.147 39.6213C261.474 40.0994 260.126 41.2621 259.428 42.7712C258.731 41.2621 257.382 40.0994 255.71 39.6213L255.424 39.5397L255.71 39.4582ZM257.125 31.1184C257.679 28.7379 261.178 28.7379 261.732 31.1184L262.513 34.4722C262.701 35.282 263.327 35.9294 264.149 36.1642L268.276 37.3437C270.534 37.9892 270.534 41.0903 268.276 41.7357L264.149 42.9153C263.327 43.15 262.701 43.7974 262.513 44.6072L261.732 47.9611C261.178 50.3415 257.679 50.3415 257.125 47.9611L256.344 44.6072C256.155 43.7974 255.529 43.15 254.708 42.9153L250.581 41.7357C248.323 41.0903 248.323 37.9892 250.581 37.3437L254.708 36.1642C255.529 35.9294 256.155 35.282 256.344 34.4722L257.125 31.1184ZM113.011 104.651C113.011 103.239 111.617 101.973 109.923 102.148C108.016 102.343 105.801 102.499 103.565 102.499C101.329 102.499 99.1127 102.343 97.2057 102.148C95.5126 101.973 94.1183 103.239 94.1183 104.651V105.123C94.1183 106.089 94.7057 106.789 95.4364 106.99C97.6035 107.588 100.62 108.223 103.565 108.223C106.509 108.223 109.526 107.588 111.693 106.99C112.423 106.789 113.011 106.089 113.011 105.123V104.651ZM109.923 113.595C111.617 113.421 113.011 114.687 113.011 116.098V116.57C113.011 117.536 112.423 118.236 111.693 118.438C109.526 119.035 106.509 119.67 103.565 119.67C100.62 119.67 97.6035 119.035 95.4364 118.438C94.7057 118.236 94.1183 117.536 94.1183 116.57V116.098C94.1183 114.687 95.5126 113.421 97.2057 113.595C99.1127 113.791 101.329 113.947 103.565 113.947C105.801 113.947 108.016 113.791 109.923 113.595ZM263.382 60.7737C261.986 60.3605 260.308 61.2936 259.98 62.9417C259.644 64.6308 259.192 66.5456 258.596 68.4373C258 70.329 257.271 72.1616 256.576 73.7445C255.898 75.289 256.752 76.9722 258.148 77.3854L258.615 77.5239C259.558 77.8031 260.402 77.4721 260.808 76.8759C261.994 75.1317 263.434 72.6756 264.242 70.1093C265.051 67.5431 265.272 64.7262 265.294 62.6371C265.301 61.9229 264.792 61.1914 263.85 60.9122L263.382 60.7737ZM271.271 66.2863C271.599 64.6382 273.278 63.7051 274.673 64.1183L275.141 64.2568C276.084 64.536 276.593 65.2675 276.585 65.9817C276.564 68.0708 276.342 70.8877 275.534 73.454C274.725 76.0202 273.285 78.4763 272.099 80.2205C271.693 80.8167 270.85 81.1477 269.907 80.8685L269.439 80.73C268.044 80.3168 267.189 78.6336 267.867 77.0891C268.562 75.5062 269.291 73.6736 269.887 71.7819C270.483 69.8902 270.935 67.9754 271.271 66.2863ZM285.634 69.3454C284.224 68.9279 282.428 69.9088 282.058 71.7055C281.831 72.8088 281.542 73.9878 281.173 75.1584C280.804 76.3289 280.365 77.4634 279.917 78.5013C279.188 80.1915 280.112 81.9779 281.522 82.3955L281.978 82.5306C282.873 82.7955 283.631 82.5049 284.001 82.0111C285.041 80.6258 286.21 78.7649 286.819 76.8304C287.429 74.8959 287.532 72.7194 287.468 71.0074C287.446 70.3972 286.985 69.7455 286.09 69.4806L285.634 69.3454ZM109.588 79.2401C108.307 78.2395 106.873 77.849 105.473 78.1602L105.145 78.233C103.659 78.5633 102.703 79.4845 102.471 80.5208C102.103 82.1734 101.916 84.0807 102.306 85.7274C102.695 87.3741 103.72 89.0123 104.795 90.3441C105.469 91.1792 106.744 91.6041 108.23 91.2738L108.557 91.201C109.957 90.8899 111.073 89.9325 111.776 88.4907C112.491 87.0264 112.7 85.1921 112.301 83.5056C111.902 81.8191 110.89 80.2564 109.588 79.2401ZM112.551 75.6744C114.701 77.3531 116.275 79.8214 116.905 82.4822C117.534 85.143 117.226 88.0297 116.046 90.4487C114.855 92.8901 112.697 94.9784 109.613 95.6641L109.285 95.7369C106.453 96.3666 103.131 95.7132 101.075 93.1654C99.8131 91.602 98.315 89.3411 97.7023 86.7508C97.0896 84.1605 97.4221 81.4927 97.855 79.5526C98.5605 76.391 101.257 74.3996 104.09 73.77L104.417 73.6972C107.502 73.0115 110.382 73.98 112.551 75.6744ZM268.527 85.2477C271.086 86.0054 274.018 85.3124 275.76 83.1243C276.6 84.796 278.083 86.1649 280.142 86.7746L280.598 86.9097C281.387 87.1432 282.219 87.2405 283.044 87.1934V163.17C283.044 165.699 280.929 167.749 278.321 167.749H245.259H240.536H235.813H231.089H221.643C219.035 167.749 216.92 165.699 216.92 163.17V76.1708C216.92 73.642 219.035 71.592 221.643 71.592H231.089H235.813H240.536H245.259H252.386C252.334 71.713 252.282 71.8329 252.23 71.9516C250.561 75.7531 252.432 80.4805 256.768 81.7646L257.236 81.9031C259.328 82.5227 261.67 82.1723 263.407 80.8276C264.162 82.7871 265.766 84.4299 268.059 85.1092L268.527 85.2477ZM191.886 60.1447C195.662 60.1447 191.797 83.0392 181.497 83.0392C171.197 83.0392 167.329 60.1471 171.108 60.1447C174.885 65.2344 188.107 65.2344 191.886 60.1447ZM181.496 78.4603C184.105 78.4603 186.22 77.4353 186.22 76.1708C186.22 74.9064 184.105 73.8814 181.496 73.8814C178.888 73.8814 176.773 74.9064 176.773 76.1708C176.773 77.4353 178.888 78.4603 181.496 78.4603ZM75.6188 187.538L34.8905 218.71L136.192 262.358L177.086 226.885L75.6188 187.538ZM179.137 231.251L139.341 265.77C137.956 266.972 135.972 267.274 134.274 266.542L77.5892 242.118V305.84L179.137 344.124V231.251ZM183.86 344.083L287.769 303.569V241.029L229.91 266.526C228.225 267.268 226.247 266.988 224.852 265.809L183.86 231.164V344.083ZM185.987 226.886L289.671 187.554L327.109 218.664L227.955 262.357L185.987 226.886Z" fill="#5E7079"/>
<path fill-rule="evenodd" clip-rule="evenodd" d="M136.627 12.6696C126.508 12.6696 118.337 20.6171 118.337 30.3818V104.65H117.131C117.131 100.695 113.422 97.7897 109.487 98.1941C107.676 98.3802 105.613 98.5237 103.565 98.5237C101.516 98.5237 99.4527 98.3802 97.6419 98.1941C93.7069 97.7897 89.9985 100.695 89.9985 104.65V105.123C89.9985 107.06 90.9417 108.932 92.593 110.035L93.3056 110.51L92.6175 111.021C91.0406 112.191 89.9985 113.989 89.9985 116.098V116.57C89.9985 119.05 91.5414 121.421 94.1479 122.215L95.146 122.518L94.3849 123.232C93.15 124.39 92.36 125.973 92.36 127.824V128.287C92.36 130.229 93.3137 132.159 95.0732 133.232L96.1644 133.897L34.4252 155.383C31.1597 156.519 30.733 160.789 33.6824 162.519L72.1704 185.103L32.3305 215.595C29.9145 217.444 30.3785 221.119 33.211 222.34L73.4693 239.686V305.84C73.4693 307.468 74.501 308.943 76.0901 309.542L181.509 349.287L289.312 307.255C290.878 306.645 291.889 305.181 291.889 303.569V238.554L328.821 222.28C331.563 221.071 332.068 217.537 329.798 215.651L292.994 185.069L328.615 161.389C331.379 159.551 330.833 155.447 327.644 154.364L288.371 141.038V144.615L327.634 157.938L289.894 183.026L262.563 172.932H252.778L285.296 184.941L239.437 202.338L238.819 201.326C242.413 198.088 244.656 193.473 244.656 188.353V171.724H278.321C283.222 171.724 287.164 167.877 287.164 163.17V84.5714L287.338 84.3424C288.503 82.7903 289.963 80.5198 290.761 77.9866C291.559 75.4539 291.657 72.7813 291.586 70.8649C291.491 68.3239 289.622 66.368 287.298 65.6797L286.842 65.5446C284.96 64.9873 283.117 65.2851 281.591 66.1339L280.752 66.6011L280.696 65.6416C280.551 63.1524 278.719 61.1578 276.349 60.456L275.882 60.3175C273.777 59.6943 271.688 60.1448 270.071 61.2648L269.403 61.7272L269.153 60.9544C268.557 59.108 266.982 57.681 265.058 57.1114L264.59 56.9729C260.614 55.7953 256.676 58.4636 255.934 62.1919C255.622 63.7606 255.211 65.4994 254.682 67.1928L254.55 67.6162H244.656V30.3818C244.656 20.6171 236.485 12.6696 226.366 12.6696H136.627ZM266.041 172.931L289.737 181.682L324.922 158.292L288.37 145.89V163.17C288.37 168.578 283.853 172.931 278.321 172.931H266.041ZM288.37 139.764V84.9769C289.563 83.3758 291.071 81.018 291.912 78.3492C292.769 75.6296 292.865 72.8014 292.791 70.8201C292.674 67.6618 290.359 65.3275 287.641 64.5227L287.185 64.3876C285.284 63.8246 283.412 64.0051 281.791 64.6948C281.279 62.0494 279.2 60.0417 276.692 59.299L276.224 59.1605C274.013 58.5058 271.817 58.8595 270.025 59.8712C269.154 57.9639 267.419 56.552 265.401 55.9544L264.933 55.8159C260.237 54.4254 255.623 57.5714 254.75 61.9563C254.47 63.3641 254.111 64.9018 253.66 66.4096H245.862V30.3818C245.862 19.9157 237.116 11.4629 226.366 11.4629H136.627C125.877 11.4629 117.131 19.9157 117.131 30.3818V81.1073C116.325 78.7954 114.844 76.6991 112.923 75.1987C110.64 73.4157 107.579 72.376 104.286 73.108L103.959 73.1808C100.965 73.8463 98.0361 75.9705 97.2661 79.4211C96.8245 81.4001 96.4722 84.1712 97.1151 86.8895C97.7579 89.607 99.3195 91.9508 100.605 93.5441C102.841 96.3149 106.422 96.9913 109.416 96.3257L109.744 96.2529C113.038 95.5205 115.331 93.2889 116.588 90.7131C116.794 90.2902 116.975 89.854 117.131 89.4077V100.603C115.505 98.1302 112.456 96.676 109.364 96.9938C107.58 97.1771 105.56 97.3171 103.565 97.3171C101.569 97.3171 99.5488 97.1771 97.7653 96.9938C93.231 96.5278 88.7918 99.871 88.7918 104.65V105.123C88.7918 107.184 89.6821 109.196 91.2841 110.556C89.7764 111.923 88.7918 113.857 88.7918 116.098V116.57C88.7918 119.249 90.2994 121.848 92.9111 123.035C91.8294 124.319 91.1534 125.957 91.1534 127.824V128.287C91.1534 130.234 91.9548 132.196 93.4839 133.552L34.0286 154.243C29.8096 155.711 29.218 161.299 33.0717 163.56L70.0119 185.236L31.5971 214.637C28.4345 217.057 29.071 221.87 32.7335 223.448L72.2627 240.48V305.84C72.2627 307.988 73.6226 309.902 75.6644 310.672L181.517 350.579L289.751 308.38C291.763 307.595 293.096 305.696 293.096 303.569V239.341L329.307 223.384C332.852 221.822 333.543 217.194 330.569 214.723L295.012 185.176L329.283 162.394C332.901 159.988 332.147 154.618 328.032 153.222L288.37 139.764ZM249.291 172.931H245.862V188.353C245.862 192.866 244.234 197.008 241.52 200.257L281.854 184.957L249.291 172.931ZM136.627 17.2484C129.116 17.2484 123.06 23.1459 123.06 30.3818V188.353C123.06 195.589 129.116 201.487 136.627 201.487H226.366C233.876 201.487 239.932 195.589 239.932 188.353V172.931H236.416V183.775C236.416 191.712 229.784 198.115 221.643 198.115H141.35C133.209 198.115 126.577 191.712 126.577 183.775V34.9607C126.577 27.0234 133.209 20.6207 141.35 20.6207H160.846V21.224C160.846 22.8233 161.465 24.2838 162.49 25.3936C163.675 26.6778 165.401 27.489 167.327 27.489H195.666C197.592 27.489 199.318 26.6778 200.503 25.3936C201.528 24.2838 202.147 22.8233 202.147 21.224V20.6207H221.643C229.784 20.6207 236.416 27.0234 236.416 34.9607V66.4096H239.932V30.3818C239.932 23.1459 233.876 17.2484 226.366 17.2484H136.627ZM121.854 30.3818C121.854 22.4445 128.486 16.0418 136.627 16.0418H226.366C234.507 16.0418 241.139 22.4445 241.139 30.3818V67.6162H235.209V34.9607C235.209 27.7248 229.153 21.8273 221.643 21.8273H203.329C203.191 23.5083 202.48 25.0315 201.39 26.2122C199.981 27.7382 197.936 28.6957 195.666 28.6957H167.327C165.057 28.6957 163.012 27.7382 161.603 26.2122C160.513 25.0315 159.802 23.5083 159.664 21.8273H141.35C133.84 21.8273 127.784 27.7248 127.784 34.9607V183.775C127.784 191.01 133.84 196.908 141.35 196.908H221.643C229.153 196.908 235.209 191.01 235.209 183.775V171.724H241.139V188.353C241.139 196.291 234.507 202.693 226.366 202.693H136.627C128.486 202.693 121.854 196.291 121.854 188.353V30.3818ZM166.724 23.5134C166.724 21.8983 168.069 20.6207 169.689 20.6207C171.308 20.6207 172.653 21.8983 172.653 23.5134C172.653 25.1286 171.308 26.4062 169.689 26.4062C168.069 26.4062 166.724 25.1286 166.724 23.5134ZM169.689 21.8273C168.7 21.8273 167.93 22.5997 167.93 23.5134C167.93 24.4272 168.7 25.1996 169.689 25.1996C170.677 25.1996 171.447 24.4272 171.447 23.5134C171.447 22.5997 170.677 21.8273 169.689 21.8273ZM179.135 21.8273C178.146 21.8273 177.377 22.5997 177.377 23.5134C177.377 24.4272 178.146 25.1996 179.135 25.1996H183.858C184.847 25.1996 185.616 24.4272 185.616 23.5134C185.616 22.5997 184.847 21.8273 183.858 21.8273H179.135ZM176.17 23.5134C176.17 21.8983 177.515 20.6207 179.135 20.6207H183.858C185.478 20.6207 186.823 21.8983 186.823 23.5134C186.823 25.1286 185.478 26.4062 183.858 26.4062H179.135C177.515 26.4062 176.17 25.1286 176.17 23.5134ZM193.304 21.8273C192.315 21.8273 191.546 22.5997 191.546 23.5134C191.546 24.4272 192.315 25.1996 193.304 25.1996C194.293 25.1996 195.062 24.4272 195.062 23.5134C195.062 22.5997 194.293 21.8273 193.304 21.8273ZM190.339 23.5134C190.339 21.8983 191.685 20.6207 193.304 20.6207C194.924 20.6207 196.269 21.8983 196.269 23.5134C196.269 25.1286 194.924 26.4062 193.304 26.4062C191.685 26.4062 190.339 25.1286 190.339 23.5134ZM131.3 34.9607C131.3 29.5523 135.817 25.1996 141.35 25.1996H156.892L157.052 25.555C158.776 29.382 162.723 32.0679 167.327 32.0679H195.666C200.27 32.0679 204.216 29.382 205.941 25.555L206.101 25.1996H221.643C227.176 25.1996 231.693 29.5523 231.693 34.9607V67.6162H221.643C220.856 67.6162 220.094 67.7155 219.37 67.9015L218.204 68.2005L218.662 67.0878C218.675 67.0556 218.678 67.0317 218.678 67.0129C218.678 66.9691 218.651 66.8243 218.359 66.6012C218.076 66.3849 217.628 66.1643 217.021 65.9681C215.814 65.578 214.108 65.3268 212.197 65.3268C210.286 65.3268 208.58 65.578 207.373 65.9681C206.766 66.1643 206.318 66.3849 206.035 66.6012C205.743 66.8243 205.715 66.9691 205.715 67.0129C205.715 67.0567 205.743 67.2015 206.035 67.4246C206.318 67.6408 206.766 67.8615 207.373 68.0577C208.58 68.4478 210.286 68.699 212.197 68.699C213.472 68.699 214.659 68.5872 215.67 68.3951L216.15 69.4664C214.104 71.0372 212.8 73.4589 212.8 76.1707V163.17C212.8 167.877 216.742 171.724 221.643 171.724H231.693V175.22H131.3V34.9607ZM141.35 26.4062C136.448 26.4062 132.507 30.2537 132.507 34.9607V174.013H230.486V172.931H221.643C216.111 172.931 211.593 168.578 211.593 163.17V76.1707C211.593 73.749 212.501 71.5362 214 69.833C213.422 69.8805 212.818 69.9057 212.197 69.9057C210.195 69.9057 208.358 69.6443 207.002 69.2059C206.327 68.9877 205.737 68.7151 205.303 68.3835C204.878 68.0588 204.509 67.6013 204.509 67.0129C204.509 66.4245 204.878 65.967 205.303 65.6423C205.737 65.3107 206.327 65.038 207.002 64.8199C208.358 64.3814 210.195 64.1201 212.197 64.1201C214.198 64.1201 216.035 64.3814 217.392 64.8199C218.067 65.038 218.657 65.3107 219.091 65.6423C219.403 65.8806 219.685 66.1905 219.812 66.5712C220.406 66.465 221.018 66.4096 221.643 66.4096H230.486V34.9607C230.486 30.2537 226.545 26.4062 221.643 26.4062H206.874C204.876 30.4737 200.603 33.2746 195.666 33.2746H167.327C162.39 33.2746 158.117 30.4737 156.119 26.4062H141.35ZM256.537 30.9814C257.236 27.9789 261.62 27.9789 262.32 30.9814L263.1 34.3353C263.238 34.9245 263.696 35.4073 264.314 35.5839L268.442 36.7634C271.283 37.5756 271.283 41.5035 268.442 42.3157L264.314 43.4952C263.696 43.6718 263.238 44.1547 263.1 44.7438L262.32 48.0977C261.62 51.1002 257.236 51.1002 256.537 48.0977L255.756 44.7438C255.619 44.1547 255.16 43.6718 254.542 43.4952L250.415 42.3157C247.573 41.5035 247.573 37.5756 250.415 36.7634L254.542 35.5839C255.16 35.4073 255.619 34.9245 255.756 34.3353L256.537 30.9814ZM261.144 31.2551C260.735 29.4966 258.122 29.4966 257.712 31.255L256.931 34.6089C256.692 35.6392 255.899 36.4512 254.874 36.7441L250.747 37.9237C249.072 38.4024 249.072 40.6767 250.747 41.1555L254.874 42.335C255.899 42.6279 256.692 43.4399 256.931 44.4702L257.712 47.8241C258.122 49.5825 260.735 49.5825 261.144 47.8241L261.925 44.4702C262.165 43.4399 262.958 42.6279 263.983 42.335L268.11 41.1555C269.785 40.6767 269.785 38.4024 268.11 37.9237L263.983 36.7441C262.958 36.4512 262.165 35.6392 261.925 34.6089L261.144 31.2551ZM164.18 39.8018C161.091 33.819 152.041 34.0995 149.161 41.0761C148.811 41.9252 149.229 42.9073 150.137 43.2595C151.053 43.6151 152.076 43.1761 152.431 42.3169C154.287 37.8203 159.409 38.1602 161.028 41.2975C161.457 42.1283 162.516 42.4816 163.397 42.0542C164.269 41.6315 164.603 40.6215 164.18 39.8018ZM148.046 40.6156C151.283 32.7733 161.651 32.2724 165.252 39.2483C165.996 40.69 165.386 42.4307 163.924 43.1398C162.472 43.8441 160.694 43.2816 159.956 41.851C158.819 39.6478 155.019 39.2086 153.546 42.7773C152.932 44.2659 151.206 44.9685 149.7 44.3845C148.186 43.7972 147.427 42.1144 148.046 40.6156ZM197.741 39.2483C201.342 32.2724 211.71 32.7733 214.947 40.6156C215.566 42.1143 214.806 43.7972 213.292 44.3845C211.787 44.9685 210.061 44.2659 209.447 42.7773C207.974 39.2086 204.174 39.6478 203.037 41.851C202.298 43.2816 200.52 43.8441 199.069 43.1398C197.607 42.4307 196.997 40.69 197.741 39.2483ZM213.832 41.0761C210.952 34.0995 201.902 33.819 198.813 39.8018C198.39 40.6215 198.724 41.6315 199.595 42.0542C200.476 42.4816 201.536 42.1283 201.965 41.2975C203.584 38.1602 208.706 37.8203 210.562 42.3169C210.917 43.1761 211.939 43.6151 212.856 43.2595C213.764 42.9073 214.182 41.9252 213.832 41.0761ZM259.428 34.8697L259.976 36.055C260.599 37.4023 261.806 38.4473 263.313 38.8779L265.628 39.5396L263.313 40.2012C261.806 40.6318 260.598 41.6768 259.976 43.0241L259.428 44.2095L258.881 43.0241C258.258 41.6768 257.05 40.6318 255.544 40.2012L253.229 39.5396L255.544 38.8779C257.05 38.4473 258.258 37.4023 258.881 36.055L259.428 34.8697ZM259.428 37.5158C258.841 38.3581 258.052 39.0542 257.124 39.5396C258.052 40.0249 258.842 40.721 259.428 41.5633C260.015 40.721 260.805 40.0249 261.733 39.5396C260.805 39.0542 260.015 38.3581 259.428 37.5158ZM157.881 47.0112C154.283 47.0112 151.399 49.8337 151.399 53.2762C151.399 56.7188 154.283 59.5412 157.881 59.5412C161.478 59.5412 164.362 56.7188 164.362 53.2762C164.362 49.8337 161.478 47.0112 157.881 47.0112ZM150.193 53.2762C150.193 49.1322 153.652 45.8046 157.881 45.8046C162.109 45.8046 165.569 49.1322 165.569 53.2762C165.569 57.4202 162.109 60.7479 157.881 60.7479C153.652 60.7479 150.193 57.4202 150.193 53.2762ZM197.424 53.2762C197.424 49.1322 200.884 45.8046 205.112 45.8046C209.34 45.8046 212.8 49.1322 212.8 53.2762C212.8 57.4202 209.34 60.7479 205.112 60.7479C200.884 60.7479 197.424 57.4202 197.424 53.2762ZM205.112 47.0112C201.515 47.0112 198.631 49.8337 198.631 53.2762C198.631 56.7188 201.515 59.5412 205.112 59.5412C208.709 59.5412 211.593 56.7188 211.593 53.2762C211.593 49.8337 208.709 47.0112 205.112 47.0112ZM155.519 49.3007C154.53 49.3007 153.761 50.0731 153.761 50.9868C153.761 51.9005 154.53 52.6729 155.519 52.6729C156.508 52.6729 157.277 51.9005 157.277 50.9868C157.277 50.0731 156.508 49.3007 155.519 49.3007ZM152.554 50.9868C152.554 49.3716 153.899 48.094 155.519 48.094C157.139 48.094 158.484 49.3716 158.484 50.9868C158.484 52.6019 157.139 53.8796 155.519 53.8796C153.899 53.8796 152.554 52.6019 152.554 50.9868ZM199.786 50.9868C199.786 49.3716 201.131 48.094 202.751 48.094C204.37 48.094 205.715 49.3716 205.715 50.9868C205.715 52.6019 204.37 53.8796 202.751 53.8796C201.131 53.8796 199.786 52.6019 199.786 50.9868ZM202.751 49.3007C201.762 49.3007 200.992 50.0731 200.992 50.9868C200.992 51.9005 201.762 52.6729 202.751 52.6729C203.739 52.6729 204.509 51.9005 204.509 50.9868C204.509 50.0731 203.739 49.3007 202.751 49.3007ZM171.412 59.541L171.593 59.785C172.44 60.9264 173.852 61.8247 175.615 62.4376C177.371 63.0482 179.427 63.3584 181.496 63.3584C183.565 63.3584 185.622 63.0482 187.378 62.4376C189.141 61.8247 190.554 60.9264 191.401 59.7849L191.582 59.5412H191.886C192.742 59.5412 193.245 60.2108 193.511 60.9158C193.783 61.6397 193.903 62.617 193.907 63.7196C193.916 65.9397 193.451 68.8634 192.546 71.7711C191.641 74.6776 190.281 77.6173 188.464 79.8432C186.647 82.0698 184.319 83.6423 181.497 83.6423C178.675 83.6423 176.347 82.0699 174.53 79.8436C172.713 77.6179 171.352 74.6784 170.447 71.772C169.542 68.8644 169.077 65.9408 169.085 63.7206C169.089 62.6178 169.21 61.6405 169.483 60.9164C169.748 60.2111 170.251 59.5418 171.108 59.5412L171.412 59.541ZM175.464 79.0805C177.151 81.1465 179.169 82.4357 181.497 82.4357C183.825 82.4357 185.843 81.1464 187.529 79.0803C189.216 77.0135 190.517 74.2296 191.394 71.4125C192.271 68.5966 192.708 65.7967 192.701 63.724C192.697 62.6803 192.58 61.8689 192.381 61.3408C192.282 61.0757 192.183 60.9283 192.097 60.8468C191.051 62.0734 189.513 62.9728 187.774 63.5774C185.871 64.2392 183.677 64.5651 181.496 64.5651C179.315 64.5651 177.122 64.2392 175.219 63.5773C173.48 62.9728 171.943 62.0735 170.897 60.8468C170.811 60.9284 170.712 61.076 170.612 61.3416C170.413 61.8698 170.296 62.6813 170.292 63.725C170.284 65.7978 170.722 68.5975 171.599 71.4133C172.476 74.2303 173.777 77.0139 175.464 79.0805ZM263.211 61.352C262.161 61.0412 260.831 61.7537 260.571 63.0593C260.232 64.763 259.776 66.7001 259.171 68.6184C258.567 70.5367 257.829 72.3903 257.128 73.9868C256.593 75.2066 257.28 76.4991 258.319 76.8067L258.787 76.9452C259.508 77.1588 260.068 76.8908 260.309 76.5364C261.48 74.8146 262.883 72.4141 263.667 69.9279C264.45 67.442 264.669 64.6919 264.691 62.6307C264.695 62.221 264.398 61.7036 263.678 61.4905L263.211 61.352ZM259.388 62.8238C259.784 60.8331 261.812 59.6794 263.553 60.195L264.021 60.3335C265.187 60.6789 265.908 61.6245 265.897 62.6431C265.875 64.7602 265.652 67.6438 264.818 70.2905C263.984 72.9368 262.508 75.4485 261.306 77.215C260.736 78.0531 259.609 78.4471 258.444 78.1022L257.976 77.9637C256.225 77.4449 255.203 75.371 256.023 73.5018C256.712 71.9324 257.433 70.121 258.02 68.2558C258.608 66.3907 259.055 64.4983 259.388 62.8238ZM270.679 66.1684C271.075 64.1777 273.103 63.024 274.844 63.5396L275.312 63.6781C276.478 64.0235 277.199 64.9691 277.189 65.9877C277.167 68.1048 276.943 70.9884 276.109 73.6351C275.275 76.2814 273.799 78.7931 272.598 80.5596C272.028 81.3977 270.9 81.7917 269.735 81.4468L269.268 81.3083C267.516 80.7895 266.494 78.7157 267.315 76.8464C268.004 75.277 268.724 73.4656 269.312 71.6004C269.899 69.7353 270.346 67.8428 270.679 66.1684ZM274.502 64.6966C273.452 64.3858 272.123 65.0983 271.863 66.4039C271.524 68.1076 271.067 70.0447 270.463 71.963C269.858 73.8813 269.12 75.735 268.42 77.3314C267.884 78.5512 268.571 79.8437 269.61 80.1513L270.078 80.2898C270.799 80.5034 271.359 80.2354 271.6 79.881C272.771 78.1592 274.175 75.7587 274.958 73.2725C275.741 70.7866 275.961 68.0365 275.982 65.9753C275.986 65.5656 275.689 65.0482 274.969 64.8351L274.502 64.6966ZM144.634 66.6012C144.342 66.8243 144.315 66.9691 144.315 67.0129C144.315 67.0567 144.342 67.2015 144.634 67.4246C144.917 67.6408 145.365 67.8615 145.972 68.0577C147.179 68.4478 148.885 68.699 150.796 68.699C152.707 68.699 154.413 68.4478 155.62 68.0577C156.227 67.8615 156.675 67.6408 156.958 67.4246C157.25 67.2015 157.277 67.0567 157.277 67.0129C157.277 66.9691 157.25 66.8243 156.958 66.6012C156.675 66.3849 156.227 66.1643 155.62 65.9681C154.413 65.578 152.707 65.3268 150.796 65.3268C148.885 65.3268 147.179 65.578 145.972 65.9681C145.365 66.1643 144.917 66.3849 144.634 66.6012ZM145.601 64.8199C146.958 64.3814 148.794 64.1201 150.796 64.1201C152.798 64.1201 154.634 64.3814 155.991 64.8199C156.666 65.038 157.256 65.3107 157.69 65.6423C158.115 65.967 158.484 66.4245 158.484 67.0129C158.484 67.6013 158.115 68.0588 157.69 68.3835C157.256 68.7151 156.666 68.9877 155.991 69.2059C154.634 69.6443 152.798 69.9057 150.796 69.9057C148.794 69.9057 146.958 69.6443 145.601 69.2059C144.926 68.9877 144.336 68.7151 143.902 68.3835C143.477 68.0588 143.108 67.6013 143.108 67.0129C143.108 66.4245 143.477 65.967 143.902 65.6423C144.336 65.3107 144.926 65.038 145.601 64.8199ZM285.462 69.9238C284.41 69.6121 282.951 70.3571 282.649 71.8269C282.419 72.9455 282.125 74.1451 281.749 75.3395C281.372 76.5338 280.925 77.6879 280.471 78.7401C279.876 80.1195 280.652 81.5084 281.693 81.8168L282.149 81.9519C282.837 82.1555 283.32 81.9133 283.519 81.6488C284.54 80.2883 285.664 78.4904 286.244 76.6489C286.824 74.808 286.928 72.7093 286.865 71.0296C286.854 70.7178 286.605 70.2622 285.919 70.0589L285.462 69.9238ZM281.467 71.5838C281.904 69.4602 284.037 68.2434 285.805 68.7668L286.261 68.9019C287.364 69.2284 288.038 70.0761 288.071 70.9848C288.136 72.729 288.034 74.9835 287.395 77.0116C286.756 79.0391 285.542 80.9629 284.484 82.373C283.941 83.0961 282.908 83.4351 281.807 83.1089L281.35 82.9738C279.572 82.447 278.5 80.2632 279.363 78.2621C279.804 77.2386 280.236 76.1236 280.598 74.9769C280.959 73.8301 281.243 72.6717 281.467 71.5838ZM216.317 76.1707C216.317 73.2911 218.719 70.9884 221.643 70.9884H253.304L252.94 71.8307L252.782 72.1939C251.25 75.6847 252.974 80.0116 256.939 81.1859L257.407 81.3244C259.33 81.894 261.468 81.5656 263.037 80.3504L263.678 79.8541L263.97 80.6105C264.662 82.406 266.127 83.9076 268.231 84.5305L268.698 84.669C271.055 85.3668 273.72 84.7182 275.288 82.7484L275.875 82.0103L276.299 82.8531C277.069 84.385 278.424 85.6363 280.313 86.1959L280.77 86.331C281.492 86.5448 282.254 86.634 283.01 86.5909L283.647 86.5545V163.17C283.647 166.049 281.245 168.352 278.321 168.352H221.643C218.719 168.352 216.317 166.049 216.317 163.17V76.1707ZM278.321 167.145C280.614 167.145 282.441 165.348 282.441 163.17V87.8056C281.758 87.7882 281.079 87.6811 280.427 87.488L279.971 87.3529C278.058 86.7865 276.6 85.611 275.649 84.1437C273.709 86.0329 270.853 86.5655 268.356 85.826L267.888 85.6875C265.679 85.0334 264.057 83.5503 263.149 81.7366C261.335 82.8458 259.085 83.0799 257.064 82.4814L256.597 82.3429C252.074 81.0035 250.034 76.216 251.483 72.1951H221.643C219.35 72.1951 217.523 73.9925 217.523 76.1707V163.17C217.523 165.348 219.35 167.145 221.643 167.145H278.321ZM112.18 76.1497C110.124 74.544 107.424 73.6466 104.548 74.2859L104.221 74.3587C101.549 74.9526 99.0849 76.8111 98.4438 79.6839C98.0196 81.585 97.707 84.1494 98.2894 86.6118C98.872 89.0749 100.307 91.2528 101.544 92.7863C103.42 95.1111 106.484 95.7415 109.154 95.1478L109.482 95.075C112.356 94.436 114.378 92.4909 115.504 90.1839C116.621 87.8931 116.915 85.1492 116.317 82.6209C115.719 80.0924 114.22 77.7433 112.18 76.1497ZM178.42 75.0947C177.622 75.4814 177.377 75.9 177.377 76.1707C177.377 76.4414 177.622 76.8599 178.42 77.2466C179.176 77.6132 180.263 77.8568 181.496 77.8568C182.73 77.8568 183.817 77.6132 184.573 77.2466C185.371 76.8599 185.616 76.4414 185.616 76.1707C185.616 75.9 185.371 75.4814 184.573 75.0947C183.817 74.7282 182.73 74.4846 181.496 74.4846C180.263 74.4846 179.176 74.7282 178.42 75.0947ZM177.894 74.0089C178.847 73.5468 180.121 73.2779 181.496 73.2779C182.872 73.2779 184.146 73.5468 185.099 74.0089C186.011 74.4508 186.823 75.1769 186.823 76.1707C186.823 77.1644 186.011 77.8906 185.099 78.3325C184.146 78.7945 182.872 79.0634 181.496 79.0634C180.121 79.0634 178.847 78.7945 177.894 78.3325C176.982 77.8906 176.17 77.1644 176.17 76.1707C176.17 75.177 176.982 74.4508 177.894 74.0089ZM109.217 79.7155C108.051 78.8048 106.797 78.4838 105.604 78.749L105.276 78.8218C103.959 79.1146 103.228 79.8983 103.06 80.652C102.7 82.2659 102.534 84.0698 102.893 85.5884C103.252 87.1078 104.214 88.6629 105.264 89.965C105.762 90.582 106.782 90.9774 108.099 90.6847L108.426 90.6119C109.618 90.347 110.597 89.5313 111.234 88.2259C111.886 86.8897 112.081 85.1983 111.714 83.6443C111.346 82.0902 110.409 80.6466 109.217 79.7155ZM105.342 77.5711C106.948 77.214 108.563 77.6738 109.96 78.7644C111.37 79.8658 112.458 81.5476 112.888 83.3666C113.318 85.1856 113.096 87.1627 112.319 88.7551C111.548 90.3334 110.296 91.4323 108.688 91.7898L108.361 91.8626C106.706 92.2305 105.175 91.776 104.325 90.7228C103.227 89.3613 102.138 87.6401 101.719 85.8661C101.299 84.0913 101.505 82.0806 101.882 80.3892C102.177 79.0703 103.36 78.0117 105.014 77.6439L105.342 77.5711ZM97.144 102.748C95.7642 102.606 94.7216 103.638 94.7216 104.65V105.123C94.7216 105.83 95.1397 106.283 95.5967 106.409C97.7391 106.999 100.697 107.62 103.565 107.62C106.432 107.62 109.39 106.999 111.532 106.409C111.989 106.283 112.408 105.83 112.408 105.123V104.65C112.408 103.638 111.365 102.606 109.985 102.748C108.064 102.945 105.827 103.103 103.565 103.103C101.302 103.103 99.0647 102.945 97.144 102.748ZM93.5149 104.65C93.5149 102.84 95.2609 101.341 97.2674 101.547C99.1608 101.742 101.355 101.896 103.565 101.896C105.774 101.896 107.968 101.742 109.862 101.547C111.868 101.341 113.614 102.84 113.614 104.65V105.123C113.614 106.348 112.858 107.295 111.853 107.572C109.661 108.176 106.586 108.826 103.565 108.826C100.544 108.826 97.4677 108.176 95.2761 107.572C94.2716 107.295 93.5149 106.348 93.5149 105.123V104.65ZM115.845 110.556C116.334 110.999 116.768 111.502 117.131 112.055V109.112C116.775 109.644 116.345 110.132 115.845 110.556ZM117.131 105.123C117.131 107.06 116.187 108.932 114.536 110.035L113.824 110.51L114.512 111.021C116.089 112.191 117.131 113.989 117.131 116.098H118.337V105.123H117.131ZM93.5149 116.098C93.5149 114.287 95.2609 112.788 97.2674 112.994C99.1608 113.189 101.355 113.343 103.565 113.343C105.774 113.343 107.968 113.189 109.862 112.994C111.868 112.788 113.614 114.287 113.614 116.098V116.57C113.614 117.795 112.858 118.742 111.853 119.019C109.661 119.623 106.586 120.273 103.565 120.273C100.544 120.273 97.4677 119.623 95.2761 119.019C94.2716 118.742 93.5149 117.795 93.5149 116.57V116.098ZM97.144 114.195C95.7642 114.053 94.7216 115.085 94.7216 116.098V116.57C94.7216 117.277 95.1397 117.73 95.5967 117.856C97.7391 118.446 100.697 119.067 103.565 119.067C106.432 119.067 109.39 118.446 111.532 117.856C111.989 117.73 112.408 117.277 112.408 116.57V116.098C112.408 115.085 111.365 114.053 109.985 114.195C108.064 114.392 105.827 114.55 103.565 114.55C101.302 114.55 99.0647 114.392 97.144 114.195ZM112.981 122.215C115.588 121.421 117.131 119.05 117.131 116.57H118.337L118.337 126.18L114.796 127.413L114.672 126.717C114.426 125.343 113.727 124.153 112.744 123.232L111.983 122.518L112.981 122.215ZM117.131 120.559C116.433 121.605 115.448 122.476 114.218 123.035C114.892 123.835 115.409 124.773 115.703 125.82L117.131 125.323L117.131 120.559ZM99.7866 125.802C98.2075 125.649 97.0832 126.808 97.0832 127.824V128.287C97.0832 128.957 97.4464 129.332 97.7791 129.443C99.1031 129.884 100.737 130.308 102.375 130.458L110.045 127.788C110.02 126.781 108.903 125.651 107.343 125.802C106.157 125.918 104.87 125.997 103.565 125.997C102.259 125.997 100.972 125.918 99.7866 125.802ZM95.8765 127.824C95.8765 125.983 97.7321 124.39 99.9034 124.601C101.059 124.714 102.306 124.79 103.565 124.79C104.823 124.79 106.07 124.714 107.226 124.601C109.397 124.39 111.253 125.983 111.253 127.824V128.646L102.529 131.682L102.402 131.671C100.593 131.522 98.8095 131.058 97.3976 130.587C96.5332 130.299 95.8765 129.434 95.8765 128.287V127.824ZM118.337 129.768V166.384L75.3896 183.039L34.391 158.982L103.057 135.086L103.166 135.088C103.299 135.091 103.432 135.093 103.565 135.093C106.318 135.093 109.004 134.4 110.886 133.773C112.199 133.335 113.194 132.497 113.85 131.467L113.962 131.29L118.337 129.768ZM114.75 132.294C113.954 133.464 112.78 134.413 111.267 134.918C109.328 135.564 106.502 136.3 103.565 136.3C103.459 136.3 103.353 136.299 103.247 136.297L37.2544 159.263L75.4972 181.703L117.131 165.558V131.465L114.75 132.294ZM118.337 170.022L118.337 188.353C118.337 193.063 120.235 197.346 123.336 200.521L122.686 201.505L79.9176 184.92L118.337 170.022ZM83.2551 184.92L120.88 199.511C118.524 196.384 117.131 192.527 117.131 188.353L117.131 171.784L83.2551 184.92ZM131.3 178.592H231.693V183.775C231.693 189.183 227.176 193.536 221.643 193.536H141.35C135.817 193.536 131.3 189.183 131.3 183.775V178.592ZM132.507 179.799V183.775C132.507 188.482 136.448 192.329 141.35 192.329H221.643C226.545 192.329 230.486 188.482 230.486 183.775V179.799H132.507ZM164.362 186.064C164.362 184.449 165.707 183.171 167.327 183.171H195.666C197.286 183.171 198.631 184.449 198.631 186.064C198.631 187.679 197.286 188.957 195.666 188.957H167.327C165.707 188.957 164.362 187.679 164.362 186.064ZM167.327 184.378C166.338 184.378 165.569 185.15 165.569 186.064C165.569 186.978 166.338 187.75 167.327 187.75H195.666C196.655 187.75 197.424 186.978 197.424 186.064C197.424 185.15 196.655 184.378 195.666 184.378H167.327ZM75.5211 186.853L178.238 226.685L136.301 263.061L33.7062 218.856L75.5211 186.853ZM289.786 186.865L328.245 218.823L227.854 263.061L184.814 226.686L289.786 186.865ZM75.7165 188.223L36.0748 218.563L136.083 261.653L175.935 227.086L75.7165 188.223ZM187.159 227.087L228.057 261.653L325.974 218.505L289.556 188.242L187.159 227.087ZM137.453 207.231L137.671 206.066H226.319L226.533 207.233L181.506 224.314L137.453 207.231ZM140.895 207.272L181.51 223.022L223.028 207.272H140.895ZM183.257 229.864L225.241 265.348C226.459 266.377 228.19 266.624 229.667 265.973L288.373 240.104V303.982L183.257 344.965V229.864ZM179.74 229.929V344.996L76.9858 306.257V241.201L134.512 265.988C136.001 266.629 137.738 266.362 138.946 265.314L179.74 229.929ZM184.463 232.463V343.2L287.166 303.157V241.954L230.153 267.078C228.259 267.912 226.036 267.599 224.462 266.269L184.463 232.463ZM178.534 232.573L139.737 266.226C138.174 267.581 135.944 267.918 134.035 267.096L78.1925 243.035V305.422L178.534 343.252V232.573Z" fill="#5E7079"/>
<path d="M144.517 130H137.527V117.864H144.517V119.973H140.101V122.637H144.209V124.746H140.101V127.875H144.517V130ZM152.128 120.545C153.119 120.545 153.916 120.817 154.519 121.359C155.122 121.896 155.424 122.759 155.424 123.949V130H152.892V124.58C152.892 123.916 152.77 123.415 152.527 123.077C152.289 122.74 151.913 122.571 151.398 122.571C150.623 122.571 150.095 122.834 149.812 123.359C149.53 123.885 149.389 124.643 149.389 125.634V130H146.857V120.72H148.792L149.132 121.907H149.273C149.472 121.586 149.718 121.326 150.012 121.126C150.311 120.927 150.64 120.781 151 120.687C151.365 120.592 151.741 120.545 152.128 120.545ZM157.283 134.084C156.995 134.084 156.697 134.062 156.387 134.018C156.077 133.979 155.819 133.932 155.615 133.876V131.884C155.819 131.94 156.013 131.978 156.196 132C156.373 132.028 156.575 132.042 156.802 132.042C157.145 132.042 157.435 131.945 157.673 131.751C157.911 131.563 158.03 131.19 158.03 130.631V120.72H160.562V131.004C160.562 131.569 160.454 132.083 160.238 132.548C160.022 133.019 159.674 133.392 159.192 133.669C158.711 133.946 158.075 134.084 157.283 134.084ZM157.922 118.321C157.922 117.845 158.055 117.521 158.321 117.35C158.592 117.173 158.918 117.084 159.3 117.084C159.677 117.084 160 117.173 160.271 117.35C160.543 117.521 160.678 117.845 160.678 118.321C160.678 118.791 160.543 119.118 160.271 119.3C160 119.477 159.677 119.566 159.3 119.566C158.918 119.566 158.592 119.477 158.321 119.3C158.055 119.118 157.922 118.791 157.922 118.321ZM171.66 125.343C171.66 126.118 171.555 126.804 171.345 127.402C171.14 128 170.838 128.506 170.44 128.921C170.047 129.33 169.571 129.64 169.012 129.851C168.459 130.061 167.833 130.166 167.136 130.166C166.483 130.166 165.883 130.061 165.335 129.851C164.793 129.64 164.319 129.33 163.916 128.921C163.517 128.506 163.207 128 162.986 127.402C162.77 126.804 162.662 126.118 162.662 125.343C162.662 124.314 162.845 123.442 163.21 122.729C163.575 122.015 164.095 121.472 164.771 121.102C165.446 120.731 166.251 120.545 167.186 120.545C168.055 120.545 168.824 120.731 169.494 121.102C170.169 121.472 170.697 122.015 171.079 122.729C171.466 123.442 171.66 124.314 171.66 125.343ZM165.244 125.343C165.244 125.952 165.31 126.464 165.443 126.879C165.576 127.294 165.783 127.607 166.065 127.817C166.348 128.027 166.716 128.132 167.169 128.132C167.618 128.132 167.98 128.027 168.257 127.817C168.539 127.607 168.744 127.294 168.871 126.879C169.004 126.464 169.07 125.952 169.07 125.343C169.07 124.729 169.004 124.22 168.871 123.816C168.744 123.406 168.539 123.099 168.257 122.895C167.975 122.69 167.607 122.587 167.153 122.587C166.483 122.587 165.996 122.817 165.692 123.276C165.393 123.736 165.244 124.425 165.244 125.343ZM172.424 120.72H175.196L176.948 125.941C177.003 126.107 177.05 126.276 177.089 126.447C177.128 126.619 177.161 126.796 177.188 126.979C177.216 127.161 177.238 127.352 177.255 127.551H177.305C177.338 127.252 177.382 126.973 177.438 126.713C177.498 126.453 177.573 126.195 177.662 125.941L179.38 120.72H182.094L178.168 131.187C177.93 131.829 177.62 132.363 177.238 132.789C176.856 133.221 176.417 133.544 175.918 133.76C175.426 133.976 174.884 134.084 174.292 134.084C174.004 134.084 173.755 134.067 173.544 134.034C173.334 134.007 173.154 133.976 173.005 133.943V131.934C173.121 131.962 173.268 131.987 173.445 132.009C173.622 132.031 173.807 132.042 174.001 132.042C174.355 132.042 174.66 131.967 174.914 131.818C175.169 131.668 175.382 131.466 175.553 131.212C175.725 130.963 175.86 130.689 175.96 130.39L176.109 129.934L172.424 120.72ZM141.404 134.864C142.97 134.864 144.113 135.202 144.832 135.877C145.551 136.547 145.911 137.471 145.911 138.649C145.911 139.181 145.831 139.69 145.67 140.177C145.51 140.658 145.247 141.087 144.882 141.463C144.522 141.84 144.041 142.139 143.438 142.36C142.834 142.576 142.09 142.684 141.205 142.684H140.101V147H137.527V134.864H141.404ZM141.271 136.973H140.101V140.575H140.947C141.429 140.575 141.847 140.512 142.201 140.384C142.555 140.257 142.829 140.058 143.022 139.787C143.216 139.515 143.313 139.167 143.313 138.741C143.313 138.143 143.147 137.7 142.815 137.413C142.483 137.119 141.968 136.973 141.271 136.973ZM151.83 137.545C152.687 137.545 153.426 137.711 154.046 138.043C154.666 138.37 155.144 138.846 155.482 139.471C155.819 140.097 155.988 140.86 155.988 141.762V142.991H150.003C150.031 143.705 150.244 144.266 150.643 144.676C151.047 145.08 151.605 145.282 152.319 145.282C152.911 145.282 153.454 145.221 153.946 145.099C154.439 144.977 154.945 144.795 155.465 144.551V146.51C155.006 146.737 154.525 146.903 154.021 147.008C153.523 147.113 152.917 147.166 152.203 147.166C151.273 147.166 150.449 146.994 149.729 146.651C149.016 146.308 148.454 145.785 148.044 145.083C147.64 144.38 147.438 143.494 147.438 142.426C147.438 141.342 147.621 140.44 147.986 139.72C148.357 138.995 148.872 138.453 149.53 138.093C150.189 137.728 150.955 137.545 151.83 137.545ZM151.846 139.347C151.354 139.347 150.944 139.504 150.618 139.82C150.297 140.135 150.111 140.631 150.062 141.306H153.614C153.609 140.929 153.54 140.595 153.407 140.301C153.279 140.008 153.086 139.776 152.826 139.604C152.571 139.432 152.245 139.347 151.846 139.347ZM161.849 137.529C163.094 137.529 164.048 137.8 164.712 138.342C165.376 138.885 165.708 139.709 165.708 140.816V147H163.94L163.451 145.738H163.384C163.119 146.07 162.847 146.341 162.571 146.552C162.294 146.762 161.976 146.917 161.616 147.017C161.257 147.116 160.819 147.166 160.305 147.166C159.757 147.166 159.264 147.061 158.827 146.851C158.396 146.64 158.055 146.319 157.806 145.888C157.557 145.451 157.433 144.897 157.433 144.228C157.433 143.243 157.778 142.518 158.47 142.053C159.162 141.582 160.2 141.322 161.583 141.272L163.193 141.223V140.816C163.193 140.329 163.066 139.972 162.812 139.745C162.557 139.518 162.203 139.405 161.749 139.405C161.301 139.405 160.861 139.468 160.429 139.596C159.998 139.723 159.566 139.883 159.134 140.077L158.296 138.367C158.788 138.107 159.339 137.902 159.948 137.753C160.562 137.604 161.196 137.529 161.849 137.529ZM163.193 142.7L162.214 142.733C161.395 142.756 160.825 142.902 160.504 143.173C160.188 143.444 160.031 143.801 160.031 144.244C160.031 144.632 160.144 144.908 160.371 145.074C160.598 145.235 160.894 145.315 161.259 145.315C161.802 145.315 162.258 145.154 162.629 144.833C163.005 144.513 163.193 144.056 163.193 143.464V142.7ZM172.092 147.166C171.173 147.166 170.39 147 169.743 146.668C169.095 146.33 168.603 145.81 168.265 145.107C167.928 144.405 167.759 143.505 167.759 142.41C167.759 141.275 167.95 140.351 168.332 139.637C168.719 138.918 169.253 138.389 169.934 138.052C170.62 137.714 171.414 137.545 172.316 137.545C172.958 137.545 173.511 137.609 173.976 137.736C174.446 137.858 174.856 138.005 175.205 138.176L174.458 140.135C174.059 139.975 173.688 139.845 173.345 139.745C173.002 139.64 172.659 139.587 172.316 139.587C171.873 139.587 171.505 139.693 171.212 139.903C170.919 140.108 170.7 140.417 170.556 140.833C170.412 141.248 170.34 141.768 170.34 142.393C170.34 143.007 170.418 143.516 170.573 143.92C170.728 144.324 170.952 144.626 171.245 144.825C171.538 145.019 171.895 145.116 172.316 145.116C172.842 145.116 173.309 145.047 173.719 144.908C174.128 144.764 174.527 144.565 174.914 144.311V146.477C174.527 146.721 174.12 146.895 173.694 147C173.273 147.111 172.739 147.166 172.092 147.166ZM180.899 137.545C181.757 137.545 182.495 137.711 183.115 138.043C183.735 138.37 184.214 138.846 184.551 139.471C184.889 140.097 185.058 140.86 185.058 141.762V142.991H179.073C179.1 143.705 179.313 144.266 179.712 144.676C180.116 145.08 180.675 145.282 181.389 145.282C181.981 145.282 182.523 145.221 183.016 145.099C183.508 144.977 184.014 144.795 184.535 144.551V146.51C184.075 146.737 183.594 146.903 183.09 147.008C182.592 147.113 181.986 147.166 181.272 147.166C180.343 147.166 179.518 146.994 178.799 146.651C178.085 146.308 177.523 145.785 177.114 145.083C176.71 144.38 176.508 143.494 176.508 142.426C176.508 141.342 176.69 140.44 177.056 139.72C177.426 138.995 177.941 138.453 178.6 138.093C179.258 137.728 180.025 137.545 180.899 137.545ZM180.916 139.347C180.423 139.347 180.014 139.504 179.687 139.82C179.366 140.135 179.181 140.631 179.131 141.306H182.684C182.678 140.929 182.609 140.595 182.476 140.301C182.349 140.008 182.155 139.776 181.895 139.604C181.64 139.432 181.314 139.347 180.916 139.347ZM145.762 159.343C145.762 160.118 145.657 160.804 145.446 161.402C145.242 162 144.94 162.506 144.542 162.921C144.149 163.33 143.673 163.64 143.114 163.851C142.56 164.061 141.935 164.166 141.238 164.166C140.585 164.166 139.984 164.061 139.437 163.851C138.894 163.64 138.421 163.33 138.017 162.921C137.619 162.506 137.309 162 137.087 161.402C136.872 160.804 136.764 160.118 136.764 159.343C136.764 158.314 136.946 157.442 137.312 156.729C137.677 156.015 138.197 155.472 138.872 155.102C139.547 154.731 140.352 154.545 141.288 154.545C142.156 154.545 142.926 154.731 143.595 155.102C144.27 155.472 144.799 156.015 145.181 156.729C145.568 157.442 145.762 158.314 145.762 159.343ZM139.345 159.343C139.345 159.952 139.412 160.464 139.544 160.879C139.677 161.294 139.885 161.607 140.167 161.817C140.449 162.027 140.817 162.132 141.271 162.132C141.719 162.132 142.082 162.027 142.358 161.817C142.641 161.607 142.845 161.294 142.973 160.879C143.105 160.464 143.172 159.952 143.172 159.343C143.172 158.729 143.105 158.22 142.973 157.816C142.845 157.406 142.641 157.099 142.358 156.895C142.076 156.69 141.708 156.587 141.254 156.587C140.585 156.587 140.098 156.817 139.793 157.276C139.495 157.736 139.345 158.425 139.345 159.343ZM152.983 156.621H150.792V164H148.26V156.621H146.866V155.4L148.26 154.72V154.039C148.26 153.248 148.393 152.633 148.659 152.196C148.93 151.754 149.309 151.444 149.796 151.267C150.288 151.084 150.869 150.993 151.539 150.993C152.032 150.993 152.48 151.034 152.884 151.117C153.288 151.195 153.617 151.283 153.872 151.383L153.224 153.242C153.03 153.181 152.82 153.126 152.593 153.076C152.366 153.026 152.106 153.001 151.813 153.001C151.459 153.001 151.199 153.109 151.033 153.325C150.872 153.535 150.792 153.807 150.792 154.139V154.72H152.983V156.621ZM164.198 164L161.276 154.479H161.201C161.212 154.706 161.229 155.049 161.251 155.508C161.279 155.962 161.304 156.446 161.326 156.961C161.348 157.476 161.359 157.94 161.359 158.355V164H159.06V151.864H162.562L165.435 161.145H165.484L168.531 151.864H172.034V164H169.635V158.256C169.635 157.874 169.64 157.434 169.651 156.936C169.668 156.438 169.687 155.965 169.709 155.517C169.732 155.063 169.748 154.722 169.759 154.496H169.685L166.555 164H164.198ZM177.429 154.72V164H174.897V154.72H177.429ZM176.167 151.084C176.544 151.084 176.868 151.173 177.139 151.35C177.41 151.521 177.545 151.845 177.545 152.321C177.545 152.791 177.41 153.118 177.139 153.3C176.868 153.477 176.544 153.566 176.167 153.566C175.786 153.566 175.459 153.477 175.188 153.3C174.922 153.118 174.79 152.791 174.79 152.321C174.79 151.845 174.922 151.521 175.188 151.35C175.459 151.173 175.786 151.084 176.167 151.084ZM185.365 154.545C186.355 154.545 187.152 154.817 187.755 155.359C188.359 155.896 188.66 156.759 188.66 157.949V164H186.128V158.58C186.128 157.916 186.007 157.415 185.763 157.077C185.525 156.74 185.149 156.571 184.634 156.571C183.86 156.571 183.331 156.834 183.049 157.359C182.767 157.885 182.625 158.643 182.625 159.634V164H180.094V154.72H182.028L182.368 155.907H182.509C182.708 155.586 182.955 155.326 183.248 155.126C183.547 154.927 183.876 154.781 184.236 154.687C184.601 154.592 184.977 154.545 185.365 154.545ZM194.205 164.166C193.17 164.166 192.326 163.762 191.673 162.954C191.026 162.141 190.702 160.948 190.702 159.376C190.702 157.788 191.031 156.587 191.69 155.774C192.348 154.955 193.209 154.545 194.271 154.545C194.714 154.545 195.104 154.606 195.442 154.728C195.779 154.85 196.07 155.013 196.313 155.218C196.562 155.423 196.773 155.652 196.944 155.907H197.027C196.994 155.73 196.953 155.47 196.903 155.126C196.859 154.778 196.836 154.421 196.836 154.056V151.084H199.376V164H197.434L196.944 162.796H196.836C196.676 163.051 196.474 163.283 196.23 163.494C195.993 163.698 195.708 163.862 195.375 163.983C195.043 164.105 194.653 164.166 194.205 164.166ZM195.093 162.149C195.785 162.149 196.272 161.944 196.554 161.535C196.842 161.12 196.994 160.497 197.011 159.667V159.393C197.011 158.491 196.872 157.802 196.596 157.326C196.319 156.845 195.804 156.604 195.052 156.604C194.493 156.604 194.056 156.845 193.74 157.326C193.425 157.808 193.267 158.502 193.267 159.41C193.267 160.317 193.425 161.001 193.74 161.46C194.061 161.919 194.512 162.149 195.093 162.149ZM204.149 159.974H202.124L201.701 151.864H204.573L204.149 159.974ZM201.667 162.813C201.667 162.293 201.809 161.928 202.091 161.717C202.379 161.507 202.724 161.402 203.128 161.402C203.521 161.402 203.859 161.507 204.141 161.717C204.429 161.928 204.573 162.293 204.573 162.813C204.573 163.311 204.429 163.671 204.141 163.892C203.859 164.113 203.521 164.224 203.128 164.224C202.724 164.224 202.379 164.113 202.091 163.892C201.809 163.671 201.667 163.311 201.667 162.813Z" fill="#FF9829"/>
<path fill-rule="evenodd" clip-rule="evenodd" d="M249.656 105.992C240.991 105.992 233.967 113.074 233.967 121.81C233.967 130.546 240.991 137.627 249.656 137.627C258.32 137.627 265.344 130.546 265.344 121.81C265.344 113.074 258.32 105.992 249.656 105.992ZM231 121.81C231 111.421 239.352 103 249.656 103C259.959 103 268.311 111.421 268.311 121.81C268.311 132.198 259.959 140.619 249.656 140.619C239.352 140.619 231 132.198 231 121.81Z" fill="#F49633"/>
<path d="M256.484 115.467C254.416 116.529 252.062 117.133 249.564 117.133C247.065 117.133 244.784 116.55 242.742 115.518C240.825 117.391 241.686 120.595 244.3 121.298C245.976 121.747 247.742 121.989 249.564 121.989C251.386 121.989 253.232 121.738 254.944 121.268C257.561 120.55 258.413 117.343 256.484 115.47V115.467Z" fill="#1D759F"/>
<path d="M242.827 133.497C244.896 132.435 247.249 131.83 249.747 131.83C252.246 131.83 254.528 132.414 256.569 133.446C258.486 131.573 257.625 128.369 255.011 127.666C253.335 127.217 251.569 126.975 249.747 126.975C247.925 126.975 246.08 127.226 244.367 127.696C241.75 128.414 240.899 131.621 242.827 133.494V133.497Z" fill="#1D759F"/>
<path d="M249.628 115.467C251.308 115.467 252.67 114.137 252.67 112.496C252.67 110.856 251.308 109.525 249.628 109.525C247.948 109.525 246.587 110.856 246.587 112.496C246.587 114.137 247.948 115.467 249.628 115.467Z" fill="#F49633"/>
<path d="M243.086 126.681L256.483 115.465C258.451 117.374 258.332 120.515 256.225 122.277L242.828 133.494C240.86 131.585 240.979 128.443 243.086 126.681Z" fill="#34BDEA"/>
</svg>
