<svg width="80" height="80" viewBox="0 0 80 80" fill="none" xmlns="http://www.w3.org/2000/svg">
<path d="M34.6067 73.3703C29.101 72.6386 23.8481 70.6089 19.2808 67.4487C14.7135 64.2884 10.9626 60.0879 8.33723 55.1935C5.7119 50.299 4.2873 44.8508 4.18085 39.2977C4.07439 33.7447 5.28913 28.2458 7.72495 23.2543" stroke="#FF9829" stroke-width="4"/>
<path d="M33.7508 75.1932L34.4052 74.6725L34.7215 71.891L34.2007 71.2366C33.9594 70.9333 33.8604 70.5912 33.9036 70.2102C33.947 69.8292 34.1204 69.5181 34.4236 69.2768C34.7267 69.0356 35.0688 68.9366 35.4498 68.9798C35.8309 69.0231 36.1421 69.1964 36.3834 69.4996L39.0052 72.7943C39.2464 73.0974 39.3454 73.4395 39.302 73.8206C39.2587 74.2017 39.0855 74.5129 38.7824 74.7541L35.4877 77.3759C35.1845 77.6172 34.8423 77.7162 34.4612 77.6729C34.0802 77.6294 33.7691 77.4561 33.5279 77.153C33.2866 76.8498 33.1875 76.5077 33.2307 76.1267C33.2742 75.7457 33.4475 75.4345 33.7508 75.1932Z" fill="#FF9829"/>
<path d="M44.3913 6.72938C49.897 7.46109 55.15 9.49073 59.7173 12.651C64.2846 15.8113 68.0355 20.0118 70.6608 24.9062C73.2861 29.8006 74.7107 35.2489 74.8172 40.8019C74.9237 46.355 73.7089 51.8539 71.2731 56.8453" stroke="#FF9829" stroke-width="4"/>
<path d="M45.2647 4.79452L44.6103 5.31528L44.294 8.09675L44.8148 8.75115C45.0561 9.05439 45.1551 9.39652 45.1119 9.77753C45.0685 10.1585 44.8951 10.4697 44.5919 10.711C44.2888 10.9522 43.9467 11.0512 43.5657 11.008C43.1846 10.9646 42.8734 10.7913 42.6321 10.4881L40.0103 7.19345C39.7691 6.89034 39.6701 6.54823 39.7135 6.16711C39.7568 5.78599 39.93 5.47483 40.2331 5.23362L43.5278 2.61182C43.831 2.3705 44.1732 2.27152 44.5543 2.31486C44.9353 2.35831 45.2464 2.53159 45.4876 2.8347C45.7289 3.13794 45.828 3.48007 45.7848 3.86108C45.7413 4.24206 45.568 4.55321 45.2647 4.79452Z" fill="#FF9829"/>
<path d="M63.0439 30.3776C61.5067 26.7265 59.1238 23.4929 56.0916 20.9434C53.0594 18.394 49.4648 16.6016 45.604 15.714C41.7431 14.8264 37.7266 14.8691 33.8855 15.8384C30.0443 16.8078 26.4886 18.6761 23.5112 21.2894" stroke="#23C2EF" stroke-width="4"/>
<path d="M64.6229 29.008L64.2928 29.7764L61.6927 30.8137L60.9243 30.4836C60.5682 30.3306 60.2121 30.3251 59.8559 30.4671C59.4998 30.6093 59.2452 30.8584 59.0923 31.2145C58.9393 31.5704 58.9339 31.9264 59.0759 32.2826C59.218 32.6389 59.4671 32.8935 59.8232 33.0465L63.6918 34.7086C64.0477 34.8615 64.4038 34.8669 64.76 34.7248C65.1163 34.5826 65.3709 34.3336 65.5238 33.9777L67.1859 30.1091C67.3389 29.753 67.3443 29.3969 67.2022 29.0406C67.0599 28.6845 66.8109 28.43 66.455 28.2771C66.0989 28.1241 65.7428 28.1186 65.3866 28.2606C65.0305 28.4028 64.7759 28.6519 64.6229 29.008Z" fill="#23C2EF"/>
<path d="M19.0245 49.6224C20.5617 53.2736 22.9446 56.5071 25.9767 59.0566C29.0089 61.6061 32.6036 63.3985 36.4644 64.2861C40.3252 65.1736 44.3418 65.131 48.1829 64.1616C52.024 63.1923 55.5798 61.324 58.5571 58.7107" stroke="#23C2EF" stroke-width="4"/>
<path d="M17.3672 50.9835L17.6973 50.2151L20.2974 49.1778L21.0658 49.5079C21.4219 49.6609 21.778 49.6664 22.1342 49.5245C22.4903 49.3823 22.7449 49.1331 22.8979 48.777C23.0508 48.4211 23.0562 48.0651 22.9143 47.7089C22.7721 47.3526 22.523 47.098 22.1669 46.945L18.2984 45.2829C17.9424 45.13 17.5864 45.1246 17.2301 45.2668C16.8738 45.4089 16.6192 45.6579 16.4663 46.0138L14.8042 49.8824C14.6512 50.2385 14.6458 50.5947 14.788 50.9509C14.9302 51.307 15.1792 51.5615 15.5351 51.7144C15.8912 51.8674 16.2473 51.8729 16.6035 51.731C16.9596 51.5888 17.2142 51.3396 17.3672 50.9835Z" fill="#23C2EF"/>
<rect width="40" height="40" rx="20" fill="#23C2EF"/>
<g clip-path="url(#clip0_759_6862)">
<path fill-rule="evenodd" clip-rule="evenodd" d="M15.9933 10.3017C17.3601 10.196 18.6808 10.1433 20 10.1433C21.3193 10.1433 22.6399 10.1959 24.0067 10.3015C25.3097 10.4023 26.4594 11.5788 26.5873 13.2018C26.9471 17.7689 26.9471 22.2318 26.5873 26.7989C26.4594 28.4218 25.3097 29.5984 24.0067 29.6992C22.6398 29.8048 21.3192 29.8576 20 29.8576C18.6808 29.8576 17.3601 29.8049 15.9933 29.6992C14.6903 29.5985 13.5406 28.4218 13.4127 26.7989C13.0529 22.2319 13.0529 17.769 13.4127 13.2019C13.5406 11.5789 14.6903 10.4024 15.9933 10.3017ZM20 8.00049C18.6228 8.00049 17.247 8.0555 15.8281 8.16518C13.2944 8.36105 11.4723 10.5481 11.2765 13.0336C10.9078 17.7127 10.9078 22.2882 11.2765 26.9673C11.4723 29.4528 13.2944 31.6397 15.8281 31.8357C17.247 31.9454 18.6228 32.0004 20 32.0004C21.3773 32.0004 22.753 31.9452 24.1719 31.8355C26.7056 31.6397 28.5277 29.4526 28.7235 26.9671C29.0922 22.288 29.0922 17.7126 28.7235 13.0335C28.5277 10.548 26.7056 8.36093 24.1719 8.16507C22.7529 8.05538 21.3771 8.00049 20 8.00049ZM18.4967 25.1834C17.6682 25.1834 16.9967 25.855 16.9967 26.6834C16.9967 27.5119 17.6682 28.1834 18.4967 28.1834H21.5067C22.3351 28.1834 23.0067 27.5119 23.0067 26.6834C23.0067 25.855 22.3351 25.1834 21.5067 25.1834H18.4967Z" fill="white"/>
</g>
<rect x="40" y="40" width="40" height="40" rx="20" fill="#FF9829"/>
<g clip-path="url(#clip1_759_6862)">
<path fill-rule="evenodd" clip-rule="evenodd" d="M50.1429 60C50.1429 56.7001 51.0676 54.2733 52.6705 52.6705C54.2733 51.0676 56.7001 50.1429 60 50.1429C63.2999 50.1429 65.7267 51.0676 67.3296 52.6705C68.9323 54.2733 69.8571 56.7001 69.8571 60C69.8571 63.2999 68.9323 65.7267 67.3296 67.3296C65.7267 68.9323 63.2999 69.8571 60 69.8571C56.7001 69.8571 54.2733 68.9323 52.6705 67.3296C51.0676 65.7267 50.1429 63.2999 50.1429 60ZM60 48C56.3056 48 53.2681 49.0424 51.1552 51.1552C49.0424 53.2681 48 56.3056 48 60C48 63.6944 49.0424 66.7318 51.1552 68.8447C53.2681 70.9577 56.3056 72 60 72C63.6944 72 66.7318 70.9577 68.8447 68.8447C70.9577 66.7318 72 63.6944 72 60C72 56.3056 70.9577 53.2681 68.8447 51.1552C66.7318 49.0424 63.6944 48 60 48ZM61.2857 53.2747C61.2857 52.5646 60.7101 51.989 60 51.989C59.2899 51.989 58.7143 52.5646 58.7143 53.2747V53.4379C57.8784 53.5816 57.1435 53.8774 56.5512 54.3434C55.6371 55.0625 55.1951 56.0857 55.1951 57.1754C55.1951 59.3312 57.2776 60.6409 59.8186 61.0038C60.9503 61.1655 61.7507 61.4153 62.2374 61.7225C62.6549 61.9861 62.7723 62.2323 62.7723 62.561C62.7723 62.8228 62.6345 63.1708 62.1747 63.5002C61.7123 63.8316 60.9715 64.0946 60.0004 64.0946C58.9884 64.0946 58.2297 63.8599 57.7681 63.5657C57.3172 63.2784 57.2285 63.0037 57.2285 62.8247C57.2285 62.1146 56.6529 61.539 55.9428 61.539C55.2327 61.539 54.6571 62.1146 54.6571 62.8247C54.6571 64.1056 55.4046 65.1087 56.3862 65.7343C57.0449 66.1539 57.8413 66.433 58.7143 66.5691V66.7255C58.7143 67.4355 59.2899 68.0112 60 68.0112C60.7101 68.0112 61.2857 67.4355 61.2857 66.7255V66.5561C62.1899 66.3969 63.0062 66.0679 63.6725 65.5905C64.6453 64.8934 65.3436 63.8318 65.3436 62.561C65.3436 61.1869 64.6248 60.1886 63.6099 59.548C62.6641 58.9511 61.4357 58.6373 60.1822 58.4583C57.9527 58.1398 57.7665 57.2798 57.7665 57.1754C57.7665 56.8151 57.8917 56.5606 58.1411 56.3644C58.4194 56.1454 58.9695 55.9137 59.9485 55.9058C59.9656 55.9064 59.9827 55.9068 60 55.9068C60.0172 55.9068 60.0343 55.9064 60.0513 55.9058C61.0136 55.914 61.5656 56.1544 61.8506 56.3828C62.1179 56.597 62.2342 56.8619 62.2342 57.1754C62.2342 57.8855 62.8099 58.4612 63.5199 58.4612C64.23 58.4612 64.8057 57.8855 64.8057 57.1754C64.8057 56.1073 64.3548 55.0943 63.4586 54.3762C62.868 53.9029 62.1312 53.5932 61.2857 53.4423V53.2747Z" fill="white"/>
</g>
<defs>
<clipPath id="clip0_759_6862">
<rect width="24" height="24" fill="white" transform="translate(8 8)"/>
</clipPath>
<clipPath id="clip1_759_6862">
<rect width="24" height="24" fill="white" transform="translate(48 48)"/>
</clipPath>
</defs>
</svg>
