<svg width="180" height="180" viewBox="0 0 180 180" fill="none" xmlns="http://www.w3.org/2000/svg">
<path fill-rule="evenodd" clip-rule="evenodd" d="M90 14.3153C48.2005 14.3153 14.3153 48.2005 14.3153 90C14.3153 131.8 48.2005 165.685 90 165.685C131.8 165.685 165.685 131.8 165.685 90C165.685 48.2005 131.8 14.3153 90 14.3153ZM0 90C0 40.2944 40.2944 0 90 0C139.706 0 180 40.2944 180 90C180 139.706 139.706 180 90 180C40.2944 180 0 139.706 0 90Z" fill="#F49633"/>
<path d="M122.941 59.6514C112.963 64.7333 101.611 67.625 89.5576 67.625C77.5042 67.625 66.4957 64.8335 56.6468 59.8947C47.3992 68.8561 51.5506 84.1877 64.1623 87.5518C72.2505 89.6991 80.768 90.8586 89.5576 90.8586C98.3472 90.8586 107.251 89.6561 115.511 87.4086C128.137 83.973 132.246 68.627 122.941 59.6657V59.6514Z" fill="#1D759F"/>
<path d="M57.0606 145.916C67.0384 140.834 78.3904 137.942 90.4438 137.942C102.497 137.942 113.506 140.734 123.355 145.672C132.602 136.711 128.451 121.379 115.839 118.015C107.751 115.868 99.2334 114.708 90.4438 114.708C81.6542 114.708 72.7502 115.911 64.4903 118.158C51.8642 121.594 47.7557 136.94 57.0606 145.901V145.916Z" fill="#1D759F"/>
<path d="M89.8692 59.6515C97.9729 59.6515 104.542 53.2872 104.542 45.4365C104.542 37.5857 97.9729 31.2214 89.8692 31.2214C81.7654 31.2214 75.196 37.5857 75.196 45.4365C75.196 53.2872 81.7654 59.6515 89.8692 59.6515Z" fill="#F49633"/>
<path d="M58.307 113.305L122.94 59.6375C132.431 68.7706 131.859 83.8016 121.695 92.2333L57.0616 145.901C47.5706 136.768 48.1432 121.737 58.307 113.305Z" fill="#34BDEA"/>
</svg>
