<svg width="392" height="590" viewBox="0 0 392 590" fill="none" xmlns="http://www.w3.org/2000/svg">
<path d="M36 46.5C36 231.283 355 112.261 355 296.5C355 480.739 36 357.913 36 546.5" stroke="#F5F5F5" stroke-width="40"/>
<rect x="295" y="241" width="94" height="94" rx="47" fill="white"/>
<rect x="295" y="241" width="94" height="94" rx="47" stroke="#FF9829" stroke-width="6"/>
<path d="M358.318 302.865C359.5 302.865 360.401 303.259 361.02 304.047C361.64 304.836 361.949 305.821 361.949 307.003C361.949 308.467 361.471 309.791 360.514 310.973C359.613 312.099 358.374 312.662 356.797 312.662C354.095 312.662 350.069 312.465 344.72 312.071C343.65 312.015 341.679 311.902 338.807 311.733C335.936 311.564 333.684 311.48 332.051 311.48C331.319 311.48 330.249 311.733 328.841 312.24C328.56 312.296 327.997 312.437 327.152 312.662C326.364 312.887 325.688 313 325.125 313C324.224 313 323.464 312.606 322.845 311.818C322.282 310.973 322 309.734 322 308.101C322 306.3 322.422 304.92 323.267 303.963C324.111 302.949 325.435 302.048 327.236 301.26C331.065 299.571 334.669 297.431 338.047 294.841C341.482 292.195 344.213 289.351 346.24 286.311C348.323 283.27 349.365 280.37 349.365 277.611C349.365 275.416 348.858 273.811 347.845 272.797C346.887 271.727 345.339 271.193 343.199 271.193C340.722 271.193 338.723 271.868 337.203 273.22C335.739 274.571 335.007 276.457 335.007 278.878C335.007 282.2 333.346 283.861 330.024 283.861C328.447 283.861 327.208 283.411 326.307 282.51C325.463 281.609 325.041 280.314 325.041 278.625C325.041 275.81 325.773 273.22 327.236 270.855C328.7 268.49 330.896 266.604 333.824 265.196C336.752 263.732 340.328 263 344.551 263C349.618 263 353.588 264.267 356.459 266.801C359.331 269.334 360.767 272.854 360.767 277.358C360.767 281.637 358.881 286.114 355.108 290.787C351.392 295.461 346.015 299.599 338.976 303.203L358.318 302.865Z" fill="#16749E"/>
<rect x="3" y="493" width="94" height="94" rx="47" fill="white"/>
<rect x="3" y="493" width="94" height="94" rx="47" stroke="#FF9829" stroke-width="6"/>
<path d="M57.7589 540.382C60.6452 540.778 63.0504 541.967 64.9745 543.947C66.9553 545.928 67.9457 548.418 67.9457 551.418C67.9457 554.304 67.0685 556.766 65.3141 558.803C63.5597 560.84 61.1828 562.397 58.1834 563.472C55.2405 564.491 52.0147 565 48.5059 565C42.3373 565 37.6967 563.925 34.584 561.774C31.528 559.624 30 556.935 30 553.71C30 551.842 30.4527 550.399 31.3582 549.38C32.2637 548.305 33.4805 547.767 35.0085 547.767C36.3101 547.767 37.2722 548.107 37.8947 548.786C38.5739 549.409 39.1398 550.512 39.5925 552.097C39.9887 553.625 40.8093 554.785 42.0543 555.577C43.2994 556.37 45.2235 556.766 47.8268 556.766C50.3169 556.766 52.3543 556.313 53.9389 555.407C55.5801 554.445 56.4007 553.002 56.4007 551.078C56.4007 549.097 55.6367 547.654 54.1087 546.749C52.5806 545.787 50.2037 545.249 46.9779 545.136C45.7895 545.079 44.884 544.683 44.2615 543.947C43.6955 543.155 43.4126 542.221 43.4126 541.146C43.4126 539.788 43.6389 538.826 44.0917 538.26C44.601 537.637 45.4499 537.213 46.6384 536.986C50.3735 536.42 53.0617 535.345 54.7029 533.761C56.4007 532.119 57.2496 530.167 57.2496 527.903C57.2496 524.791 55.099 523.234 50.798 523.234C46.0441 523.234 43.2428 525.102 42.3939 528.837C41.9977 530.365 41.4035 531.469 40.6112 532.148C39.8755 532.77 38.8285 533.081 37.4703 533.081C35.9423 533.081 34.7538 532.657 33.9049 531.808C33.1126 530.903 32.7165 529.714 32.7165 528.243C32.7165 525.979 33.5088 523.829 35.0934 521.791C36.678 519.754 38.9134 518.113 41.7997 516.868C44.7425 515.623 48.1664 515 52.0713 515C57.5042 515 61.6638 516.047 64.5501 518.141C67.4363 520.235 68.8795 523.347 68.8795 527.479C68.8795 530.195 67.8325 532.742 65.7385 535.119C63.7012 537.439 61.0413 539.194 57.7589 540.382Z" fill="#16749E"/>
<rect x="3" y="3" width="94" height="94" rx="47" fill="white"/>
<rect x="3" y="3" width="94" height="94" rx="47" stroke="#FF9829" stroke-width="6"/>
<path d="M49.3845 75C47.9697 75 46.7247 74.5756 45.6494 73.7267C44.5741 72.8778 44.0365 71.5478 44.0365 69.7368L44.1214 68.8031C44.7439 62.974 45.4796 56.9185 46.3285 50.6367C47.234 44.2982 47.998 39.4312 48.6205 36.0357L41.9992 37.9032L40.9805 38.073C39.9052 38.073 39.0563 37.6486 38.4338 36.7997C37.8113 35.9508 37.5 34.9887 37.5 33.9134L37.5849 33.1494C37.6981 32.0741 38.0376 31.1969 38.6036 30.5178C39.1695 29.8387 40.2448 29.1596 41.8294 28.4805C43.4706 27.8014 45.9041 27.0656 49.1299 26.2733L52.6952 25.4244C53.9969 25.1415 55.0722 25 55.921 25C57.5622 25 58.779 25.4244 59.5713 26.2733C60.4202 27.1222 60.8447 28.3107 60.8447 29.8387C60.8447 30.5178 60.7598 31.2535 60.59 32.0458C59.6845 36.4601 57.9584 49.0238 55.4117 69.7368C54.959 73.2456 52.9499 75 49.3845 75Z" fill="#16749E"/>
</svg>
