<svg width="36" height="36" viewBox="0 0 36 36" fill="none" xmlns="http://www.w3.org/2000/svg">
<g clip-path="url(#clip0_3016_1213)">
<path fill-rule="evenodd" clip-rule="evenodd" d="M3.21429 18C3.21429 13.0501 4.60147 9.40994 7.0057 7.0057C9.40994 4.60147 13.0501 3.21429 18 3.21429C22.9499 3.21429 26.5901 4.60147 28.9944 7.0057C31.3984 9.40994 32.7857 13.0501 32.7857 18C32.7857 22.9499 31.3984 26.5901 28.9944 28.9944C26.5901 31.3984 22.9499 32.7857 18 32.7857C13.0501 32.7857 9.40994 31.3984 7.0057 28.9944C4.60147 26.5901 3.21429 22.9499 3.21429 18ZM18 0C12.4585 0 7.90221 1.56353 4.73287 4.73287C1.56353 7.90221 0 12.4585 0 18C0 23.5415 1.56353 28.0977 4.73287 31.267C7.90221 34.4366 12.4585 36 18 36C23.5415 36 28.0977 34.4366 31.267 31.267C34.4366 28.0977 36 23.5415 36 18C36 12.4585 34.4366 7.90221 31.267 4.73287C28.0977 1.56353 23.5415 0 18 0ZM19.9286 7.91203C19.9286 6.84692 19.0651 5.98346 18 5.98346C16.9349 5.98346 16.0714 6.84692 16.0714 7.91203V8.15683C14.8176 8.37237 13.7153 8.81612 12.8268 9.51506C11.4556 10.5937 10.7927 12.1285 10.7927 13.7632C10.7927 16.9967 13.9164 18.9613 17.7278 19.5058C19.4254 19.7483 20.626 20.123 21.3561 20.5838C21.9824 20.9791 22.1584 21.3485 22.1584 21.8416C22.1584 22.2341 21.9517 22.7562 21.2621 23.2504C20.5684 23.7475 19.4572 24.1419 18.0006 24.1419C16.4826 24.1419 15.3446 23.7898 14.6521 23.3485C13.9758 22.9175 13.8428 22.5056 13.8428 22.237C13.8428 21.1719 12.9793 20.3084 11.9142 20.3084C10.8491 20.3084 9.98563 21.1719 9.98563 22.237C9.98563 24.1584 11.1069 25.6631 12.5793 26.6014C13.5673 27.2309 14.762 27.6495 16.0714 27.8537V28.0882C16.0714 29.1533 16.9349 30.0168 18 30.0168C19.0651 30.0168 19.9286 29.1533 19.9286 28.0882V27.8342C21.2848 27.5953 22.5094 27.1018 23.5088 26.3857C24.9679 25.3401 26.0154 23.7477 26.0154 21.8416C26.0154 19.7804 24.9372 18.2829 23.4148 17.322C21.9962 16.4266 20.1535 15.956 18.2733 15.6874C14.929 15.2096 14.6498 13.9197 14.6498 13.7632C14.6498 13.2227 14.8376 12.8408 15.2116 12.5466C15.6291 12.2181 16.4542 11.8705 17.9227 11.8586C17.9483 11.8597 17.9741 11.8602 18 11.8602C18.0258 11.8602 18.0515 11.8597 18.077 11.8587C19.5204 11.871 20.3484 12.2316 20.7759 12.5742C21.1769 12.8955 21.3513 13.2928 21.3513 13.7632C21.3513 14.8283 22.2148 15.6917 23.2799 15.6917C24.345 15.6917 25.2085 14.8283 25.2085 13.7632C25.2085 12.1609 24.5322 10.6415 23.188 9.56425C22.3021 8.85433 21.1967 8.38983 19.9286 8.16344V7.91203Z" fill="#23C2EF"/>
</g>
<defs>
<clipPath id="clip0_3016_1213">
<rect width="36" height="36" fill="white"/>
</clipPath>
</defs>
</svg>
