<svg width="798" height="195" viewBox="0 0 798 195" fill="none" xmlns="http://www.w3.org/2000/svg">
<path d="M312.493 115.15V138.328H215.948V130.084C215.948 128.715 216.314 126.993 217.061 124.932C217.794 122.871 218.908 121.271 220.388 120.133L269.431 75.1621H215.963V51.9844H312.508V59.536C312.508 61.1355 312.051 63.1195 311.15 65.4573C310.235 67.8104 308.999 69.5484 307.396 70.6865L259.04 115.135H312.508L312.493 115.15Z" fill="#1D759F"/>
<path d="M340.679 137.112C339.031 136.313 337.551 135.251 336.253 133.944C334.941 132.637 333.904 131.145 333.11 129.484C332.317 127.823 331.92 126.131 331.92 124.424V65.9028C331.92 64.1802 332.317 62.5038 333.11 60.8428C333.904 59.1817 334.956 57.7053 336.253 56.3826C337.551 55.0753 339.031 54.014 340.679 53.2143C342.327 52.4145 343.944 52.0146 345.531 52.0146H427.947V75.1923H356.426V84.6357H427.779V105.752H356.426V115.196H427.947V138.373H345.531C343.944 138.373 342.327 137.974 340.679 137.174V137.112Z" fill="#1D759F"/>
<path d="M466.948 52.1536C468.87 52.3843 471.342 53.5531 474.348 55.6756C477.354 57.798 481.246 60.9971 486.007 65.2881C490.767 69.5791 496.642 75.0698 503.631 81.7601C510.62 88.4504 519.043 96.4942 528.916 105.876V51.9844H553.437V127.5C553.437 128.869 553.071 130.192 552.323 131.453C551.591 132.714 550.584 133.852 549.348 134.883C548.097 135.913 546.616 136.744 544.923 137.374C543.214 138.005 541.459 138.312 539.643 138.312H534.882C534.424 138.312 534.15 138.251 534.027 138.143C532.212 137.913 529.74 136.713 526.627 134.544C523.499 132.376 519.47 129.115 514.541 124.763C509.597 120.41 503.646 114.889 496.658 108.198C489.669 101.508 481.413 93.5258 471.876 84.2517V138.312H447.355V62.7965C447.355 61.5354 447.721 60.2434 448.469 58.9361C449.201 57.6288 450.193 56.4446 451.444 55.4141C452.695 54.3837 454.176 53.5531 455.869 52.9226C457.578 52.292 459.394 51.9844 461.317 51.9844H465.91C466.475 51.9844 466.81 52.0459 466.932 52.1536H466.948Z" fill="#1D759F"/>
<path d="M595.339 138.312H568.086L603.167 64.3343C607.028 56.0906 612.872 51.9688 620.7 51.9688H631.595C635.456 51.9688 638.554 52.9992 640.873 55.0601C643.192 57.1211 645.329 60.2124 647.251 64.3343L682.332 138.312H655.079L648.274 123.901H602.13L595.324 138.312H595.339ZM625.309 78.407L612.201 103.292H638.599L625.324 78.407H625.309Z" fill="#1D759F"/>
<path d="M770.575 84.6054V75.1621H695.652V51.9844H781.471C783.058 51.9844 784.675 52.3843 786.323 53.184C787.971 53.9838 789.451 55.045 790.748 56.3523C792.045 57.675 793.098 59.1515 793.892 60.8125C794.685 62.4736 795.082 64.1654 795.082 65.8725V91.7879C795.082 93.5104 794.685 95.1869 793.892 96.8479C793.098 98.509 792.045 100.001 790.748 101.308C789.436 102.631 787.971 103.677 786.323 104.476C784.675 105.276 783.058 105.676 781.471 105.676H774.482L797.981 138.282H770.224L745.199 105.676H720.174V138.282H695.652V84.5593H770.575V84.6054Z" fill="#1D759F"/>
<path fill-rule="evenodd" clip-rule="evenodd" d="M95.9352 15.38C51.3791 15.38 15.2593 51.7856 15.2593 96.6942C15.2593 141.603 51.3791 178.008 95.9352 178.008C140.491 178.008 176.611 141.603 176.611 96.6942C176.611 51.7856 140.491 15.38 95.9352 15.38ZM0 96.6942C0 43.2915 42.9516 0 95.9352 0C148.919 0 191.87 43.2915 191.87 96.6942C191.87 150.097 148.919 193.388 95.9352 193.388C42.9516 193.388 0 150.097 0 96.6942Z" fill="#F49633"/>
<path d="M131.048 64.0889C120.413 69.5488 108.312 72.6555 95.4637 72.6555C82.6154 72.6555 70.881 69.6564 60.3826 64.3503C50.5251 73.9782 54.9503 90.4502 68.3937 94.0645C77.0152 96.3715 86.0945 97.6173 95.4637 97.6173C104.833 97.6173 114.324 96.3254 123.129 93.9107C136.587 90.2195 140.967 73.7321 131.048 64.1043V64.0889Z" fill="#1D759F"/>
<path d="M60.8229 156.769C71.4587 151.309 83.5593 148.202 96.4076 148.202C109.256 148.202 120.99 151.201 131.489 156.507C141.346 146.879 136.921 130.407 123.478 126.793C114.856 124.486 105.777 123.24 96.4076 123.24C87.0384 123.24 77.5471 124.532 68.7425 126.947C55.2838 130.638 50.9044 147.125 60.8229 156.753V156.769Z" fill="#1D759F"/>
<path d="M95.7958 64.0887C104.434 64.0887 111.437 57.251 111.437 48.8163C111.437 40.3816 104.434 33.5439 95.7958 33.5439C87.1576 33.5439 80.155 40.3816 80.155 48.8163C80.155 57.251 87.1576 64.0887 95.7958 64.0887Z" fill="#F49633"/>
<path d="M62.1528 121.733L131.049 64.0732C141.165 73.8857 140.555 90.0347 129.721 99.0936L60.8252 156.753C50.7083 146.941 51.3187 130.792 62.1528 121.733Z" fill="#34BDEA"/>
</svg>
