<svg width="36" height="36" viewBox="0 0 36 36" fill="none" xmlns="http://www.w3.org/2000/svg">
<path d="M26.1 12.75H24H13.35V10.65C13.35 8.1 15.45 6 18 6C20.1 6 22.05 7.5 22.5 9.6C22.65 10.35 23.4 10.95 24.3 10.8C25.05 10.65 25.65 9.9 25.5 9C24.75 5.55 21.6 3 18 3C13.8 3 10.35 6.45 10.35 10.65V12.9H9.9C6.9 12.9 4.5 15.3 4.5 18.3V27.75C4.5 30.75 6.9 33.15 9.9 33.15H26.25C29.25 33.15 31.65 30.75 31.65 27.75V18.3C31.5 15.15 29.1 12.75 26.1 12.75ZM28.8 27.6C28.8 28.95 27.45 30 26.1 30H9.9C8.55 30 7.5 28.95 7.5 27.6V18.15C7.5 16.8 8.55 15.75 9.9 15.75H12H24.3H26.4C27.75 15.75 28.8 16.8 28.8 18.15V27.6Z" fill="#23C2EF"/>
<path d="M18 22.6504C17.1 22.6504 16.5 23.2504 16.5 24.1504V26.5504C16.5 27.4504 17.1 28.0504 18 28.0504C18.9 28.0504 19.5 27.4504 19.5 26.5504V24.1504C19.5 23.2504 18.9 22.6504 18 22.6504Z" fill="#23C2EF"/>
</svg>
