<svg width="16" height="16" viewBox="0 0 16 16" fill="none" xmlns="http://www.w3.org/2000/svg">
<path fill-rule="evenodd" clip-rule="evenodd" d="M7.37315 0.690445C10.9294 0.393861 13.9251 3.06954 14 6.51953L14.0002 6.53397C14.0002 7.73993 13.6224 8.86699 12.9529 9.83486L12.9463 9.84432L9.56249 14.5587C9.55578 14.5681 9.54884 14.5772 9.54164 14.5862C8.76387 15.5592 7.23413 15.6191 6.48675 14.5558L3.1019 9.83984C2.21957 8.5889 1.75592 7.00957 2.13087 5.3381C2.59321 2.83188 4.77849 0.986894 7.3528 0.692459C7.35956 0.691685 7.36635 0.691014 7.37315 0.690445ZM7.49413 2.01833C5.43373 2.25817 3.77908 3.72496 3.44011 5.59077C3.43838 5.60028 3.43644 5.60979 3.43429 5.61921C3.15179 6.86326 3.48348 8.06646 4.18994 9.06912L7.5768 13.7878C7.75729 14.0458 8.20742 14.1063 8.49093 13.765L11.8596 9.0717C12.3809 8.31628 12.6654 7.45553 12.6668 6.54121C12.6051 3.88905 10.3001 1.78985 7.49413 2.01833Z" fill="#BFBFBF"/>
<path fill-rule="evenodd" clip-rule="evenodd" d="M8.00021 5.26692C7.30065 5.26692 6.73354 5.83403 6.73354 6.53359C6.73354 7.23315 7.30065 7.80026 8.00021 7.80026C8.69976 7.80026 9.26687 7.23315 9.26687 6.53359C9.26687 5.83403 8.69976 5.26692 8.00021 5.26692ZM5.40021 6.53359C5.40021 5.09763 6.56425 3.93359 8.00021 3.93359C9.43616 3.93359 10.6002 5.09763 10.6002 6.53359C10.6002 7.96955 9.43616 9.13359 8.00021 9.13359C6.56425 9.13359 5.40021 7.96955 5.40021 6.53359Z" fill="#BFBFBF"/>
<path fill-rule="evenodd" clip-rule="evenodd" d="M8.00021 5.26692C7.30065 5.26692 6.73354 5.83403 6.73354 6.53359C6.73354 7.23315 7.30065 7.80026 8.00021 7.80026C8.69976 7.80026 9.26687 7.23315 9.26687 6.53359C9.26687 5.83403 8.69976 5.26692 8.00021 5.26692ZM5.40021 6.53359C5.40021 5.09763 6.56425 3.93359 8.00021 3.93359C9.43616 3.93359 10.6002 5.09763 10.6002 6.53359C10.6002 7.96955 9.43616 9.13359 8.00021 9.13359C6.56425 9.13359 5.40021 7.96955 5.40021 6.53359Z" fill="#BFBFBF"/>
<path fill-rule="evenodd" clip-rule="evenodd" d="M8.00021 5.26692C7.30065 5.26692 6.73354 5.83403 6.73354 6.53359C6.73354 7.23315 7.30065 7.80026 8.00021 7.80026C8.69976 7.80026 9.26687 7.23315 9.26687 6.53359C9.26687 5.83403 8.69976 5.26692 8.00021 5.26692ZM5.40021 6.53359C5.40021 5.09763 6.56425 3.93359 8.00021 3.93359C9.43616 3.93359 10.6002 5.09763 10.6002 6.53359C10.6002 7.96955 9.43616 9.13359 8.00021 9.13359C6.56425 9.13359 5.40021 7.96955 5.40021 6.53359Z" fill="#BFBFBF"/>
</svg>
