<svg width="16" height="16" viewBox="0 0 16 16" fill="none" xmlns="http://www.w3.org/2000/svg">
<path fill-rule="evenodd" clip-rule="evenodd" d="M3.74487 3.33333C2.83071 3.33333 2.00002 4.15174 2.00002 5.31493V10.6851C2.00002 11.8483 2.83071 12.6667 3.74487 12.6667H12.3192C13.2362 12.6667 14.0494 11.8509 13.9978 10.7154C13.9973 10.7053 13.997 10.6952 13.997 10.6851V5.31493C13.997 4.15174 13.1663 3.33333 12.2522 3.33333H3.74487ZM0.666687 5.31493C0.666687 3.53562 1.97957 2 3.74487 2H12.2522C14.0175 2 15.3304 3.53562 15.3304 5.31493V10.6707C15.4041 12.4708 14.0764 14 12.3192 14H3.74487C1.97957 14 0.666687 12.4644 0.666687 10.6851V5.31493Z" fill="#BFBFBF"/>
<path fill-rule="evenodd" clip-rule="evenodd" d="M3.4201 5.00605C3.60163 4.68574 4.00847 4.5732 4.32879 4.75476L7.44798 6.52245C7.80909 6.71663 8.19109 6.71663 8.5522 6.52245L11.6714 4.75476C11.9917 4.5732 12.3986 4.68574 12.5801 5.00605C12.7616 5.32636 12.6491 5.7332 12.3288 5.91476L9.2038 7.68574L9.19314 7.69165C8.43229 8.10467 7.56789 8.10467 6.80705 7.69165L6.79638 7.68574L3.6714 5.91476C3.35107 5.7332 3.23856 5.32636 3.4201 5.00605Z" fill="#BFBFBF"/>
</svg>
