<svg width="36" height="36" viewBox="0 0 36 36" fill="none" xmlns="http://www.w3.org/2000/svg">
<path fill-rule="evenodd" clip-rule="evenodd" d="M18.2432 6.68166C18.6952 5.98744 19.6245 5.79113 20.3187 6.24318L32.348 14.0763C35.2176 15.9208 35.2176 20.0796 32.348 21.924L20.3187 29.7572C19.6245 30.2092 18.6952 30.0129 18.2432 29.3187C17.7911 28.6245 17.9874 27.6952 18.6817 27.2432L30.724 19.4016C31.7589 18.738 31.7589 17.2623 30.724 16.5987L30.7151 16.593L18.6817 8.75717C17.9874 8.30511 17.7911 7.37587 18.2432 6.68166Z" fill="#23C2EF"/>
<path fill-rule="evenodd" clip-rule="evenodd" d="M1.5 10.497C1.5 6.88656 5.38639 4.87498 8.31944 6.66567L8.3283 6.67108L20.4291 14.1744C20.4416 14.1821 20.4539 14.19 20.4661 14.1981C23.178 15.9917 23.178 20.0089 20.4661 21.8025C20.4539 21.8106 20.4416 21.8185 20.4291 21.8262L8.31946 29.335C5.38641 31.1256 1.5 29.114 1.5 25.5036V10.497ZM6.75246 9.22391C5.75335 8.61755 4.5 9.3069 4.5 10.497V25.5036C4.5 26.6937 5.75331 27.383 6.75242 26.7767L18.8264 19.2901C19.7245 18.6809 19.7245 17.3197 18.8264 16.7105L6.75246 9.22391Z" fill="#23C2EF"/>
</svg>
