<svg width="24" height="24" viewBox="0 0 24 24" fill="none" xmlns="http://www.w3.org/2000/svg">
<path d="M8.69413 10.2028C8.2884 9.80287 7.67987 9.80287 7.27413 10.2028C6.86847 10.6027 6.86847 11.2025 7.27413 11.6025L11.4326 16.0014C11.6355 16.2014 11.9397 16.3013 12.1426 16.3013C12.4469 16.3013 12.7511 16.2014 12.8526 15.9015L22.7923 3.60436C23.0966 3.20445 23.0966 2.50462 22.5895 2.20469C22.2852 1.90476 21.6767 1.90476 21.2709 2.40464L19.2424 4.90405C17.4167 3.10447 14.7797 2.00473 12.1426 2.00473C6.56417 2.00473 2 6.50367 2 12.0024C2 17.5011 6.56417 22 12.1426 22C17.7211 22 22.2852 17.5011 22.2852 12.0024C22.2852 11.1026 22.1838 10.2028 21.8795 9.303C21.6767 8.80313 21.1695 8.5032 20.6624 8.6032C20.1553 8.70313 19.851 9.303 19.9524 9.80287C20.1553 10.5027 20.2567 11.3025 20.2567 12.0024C20.2567 16.4013 16.6053 20.0005 12.1426 20.0005C7.67987 20.0005 4.02852 16.4013 4.02852 12.0024C4.02852 7.6034 7.67987 4.00426 12.1426 4.00426C14.374 4.00426 16.4025 4.90405 18.0253 6.50367L12.1426 13.8019L8.69413 10.2028Z" fill="#23C2EF"/>
</svg>
