<svg width="36" height="36" viewBox="0 0 36 36" fill="none" xmlns="http://www.w3.org/2000/svg">
<path fill-rule="evenodd" clip-rule="evenodd" d="M4.30276 1.69915C6.03361 1.41679 8.5362 1.29009 10.8312 1.75717C12.5887 2.11487 13.1969 4.03282 12.246 5.45122C11.806 6.10766 11.2524 6.85252 10.5816 7.63159C10.6457 7.68209 10.7067 7.73812 10.7641 7.79968C11.994 9.12019 13.328 10.367 14.6404 11.2726C15.9855 12.2007 17.124 12.6419 17.9999 12.6419C18.8758 12.6419 20.0143 12.2007 21.3594 11.2726C22.6718 10.367 24.0058 9.12019 25.2358 7.79968C25.2931 7.73807 25.3542 7.68202 25.4184 7.63149C24.7477 6.85245 24.1941 6.10763 23.7541 5.45122C22.8032 4.03282 23.4114 2.11487 25.1689 1.75717C27.4639 1.29009 29.9664 1.41679 31.6972 1.69915C32.8114 1.88087 33.6824 2.75176 33.8639 3.86576C34.1501 5.62022 34.1475 8.17892 33.8114 10.3638L33.8066 10.3944C33.4489 12.1519 31.5303 12.7599 30.1119 11.809C29.3796 11.3181 28.5372 10.6859 27.6601 9.90741C27.6372 9.93569 27.613 9.96339 27.5878 9.99044C26.2761 11.3988 24.7633 12.829 23.1849 13.9182C22.0933 14.6714 20.8767 15.3272 19.6072 15.6476V32.9465C19.6072 33.8342 18.8876 34.5537 18 34.5537C17.1125 34.5537 16.3929 33.8342 16.3929 32.9465V15.6477C15.1232 15.3273 13.9065 14.6714 12.8149 13.9182C11.2365 12.829 9.72382 11.3988 8.412 9.99044C8.38683 9.96341 8.36279 9.93577 8.33985 9.90754C7.46279 10.686 6.62049 11.3181 5.8882 11.809C4.4698 12.7599 2.55185 12.1517 2.19416 10.3942L2.18873 10.3638C1.8525 8.17892 1.84993 5.62022 2.13613 3.86576C2.31786 2.75176 3.18876 1.88087 4.30276 1.69915Z" fill="#23C2EF"/>
</svg>
