<svg width="16" height="16" viewBox="0 0 16 16" fill="none" xmlns="http://www.w3.org/2000/svg">
<mask id="mask0_1558_14484" style="mask-type:alpha" maskUnits="userSpaceOnUse" x="0" y="0" width="16" height="16">
<rect width="16" height="16" fill="#D9D9D9"/>
</mask>
<g mask="url(#mask0_1558_14484)">
<path d="M8.00004 11.332C8.18893 11.332 8.34726 11.2681 8.47504 11.1404C8.60282 11.0126 8.66671 10.8543 8.66671 10.6654V7.9987C8.66671 7.80981 8.60282 7.65148 8.47504 7.5237C8.34726 7.39592 8.18893 7.33203 8.00004 7.33203C7.81115 7.33203 7.65282 7.39592 7.52504 7.5237C7.39726 7.65148 7.33337 7.80981 7.33337 7.9987V10.6654C7.33337 10.8543 7.39726 11.0126 7.52504 11.1404C7.65282 11.2681 7.81115 11.332 8.00004 11.332ZM8.00004 5.9987C8.18893 5.9987 8.34726 5.93481 8.47504 5.80703C8.60282 5.67925 8.66671 5.52092 8.66671 5.33203C8.66671 5.14314 8.60282 4.98481 8.47504 4.85703C8.34726 4.72925 8.18893 4.66536 8.00004 4.66536C7.81115 4.66536 7.65282 4.72925 7.52504 4.85703C7.39726 4.98481 7.33337 5.14314 7.33337 5.33203C7.33337 5.52092 7.39726 5.67925 7.52504 5.80703C7.65282 5.93481 7.81115 5.9987 8.00004 5.9987ZM8.00004 14.6654C7.07782 14.6654 6.21115 14.4904 5.40004 14.1404C4.58893 13.7904 3.88337 13.3154 3.28337 12.7154C2.68337 12.1154 2.20837 11.4098 1.85837 10.5987C1.50837 9.78759 1.33337 8.92092 1.33337 7.9987C1.33337 7.07648 1.50837 6.20981 1.85837 5.3987C2.20837 4.58759 2.68337 3.88203 3.28337 3.28203C3.88337 2.68203 4.58893 2.20703 5.40004 1.85703C6.21115 1.50703 7.07782 1.33203 8.00004 1.33203C8.92226 1.33203 9.78893 1.50703 10.6 1.85703C11.4112 2.20703 12.1167 2.68203 12.7167 3.28203C13.3167 3.88203 13.7917 4.58759 14.1417 5.3987C14.4917 6.20981 14.6667 7.07648 14.6667 7.9987C14.6667 8.92092 14.4917 9.78759 14.1417 10.5987C13.7917 11.4098 13.3167 12.1154 12.7167 12.7154C12.1167 13.3154 11.4112 13.7904 10.6 14.1404C9.78893 14.4904 8.92226 14.6654 8.00004 14.6654ZM8.00004 13.332C9.48893 13.332 10.75 12.8154 11.7834 11.782C12.8167 10.7487 13.3334 9.48759 13.3334 7.9987C13.3334 6.50981 12.8167 5.2487 11.7834 4.21536C10.75 3.18203 9.48893 2.66536 8.00004 2.66536C6.51115 2.66536 5.25004 3.18203 4.21671 4.21536C3.18337 5.2487 2.66671 6.50981 2.66671 7.9987C2.66671 9.48759 3.18337 10.7487 4.21671 11.782C5.25004 12.8154 6.51115 13.332 8.00004 13.332Z" fill="#16749E"/>
</g>
</svg>
