<svg width="24" height="24" viewBox="0 0 24 24" fill="none" xmlns="http://www.w3.org/2000/svg">
<mask id="mask0_1452_6862" style="mask-type:alpha" maskUnits="userSpaceOnUse" x="0" y="0" width="24" height="24">
<rect width="24" height="24" fill="#D9D9D9"/>
</mask>
<g mask="url(#mask0_1452_6862)">
<path d="M12 10.8004L8.09999 14.7004C7.91665 14.8837 7.68332 14.9754 7.39999 14.9754C7.11665 14.9754 6.88332 14.8837 6.69999 14.7004C6.51665 14.5171 6.42499 14.2837 6.42499 14.0004C6.42499 13.7171 6.51665 13.4837 6.69999 13.3004L11.3 8.70039C11.5 8.50039 11.7333 8.40039 12 8.40039C12.2667 8.40039 12.5 8.50039 12.7 8.70039L17.3 13.3004C17.4833 13.4837 17.575 13.7171 17.575 14.0004C17.575 14.2837 17.4833 14.5171 17.3 14.7004C17.1167 14.8837 16.8833 14.9754 16.6 14.9754C16.3167 14.9754 16.0833 14.8837 15.9 14.7004L12 10.8004Z" fill="#0C5B7E"/>
</g>
</svg>
