<svg width="60" height="60" viewBox="0 0 60 60" fill="none" xmlns="http://www.w3.org/2000/svg">
<path fill-rule="evenodd" clip-rule="evenodd" d="M46.605 6H11.3057C9.39441 6 7.845 7.57034 7.845 9.50746V27.7463C7.845 28.7841 8.28974 29.7167 8.9966 30.3588C8.32221 30.7733 7.79096 31.4188 7.52048 32.2105L3.20617 44.8373C3.07506 45.2211 3.01339 45.6076 3.01285 45.9851H3V50.194C3 51.7437 4.23953 53 5.76857 53H52.1421C53.6712 53 54.9107 51.7437 54.9107 50.194V46.0621C54.9199 45.6224 54.8463 45.1699 54.6768 44.724L49.8764 32.0971C49.634 31.4596 49.2211 30.9243 48.7025 30.5363C49.531 29.8955 50.0657 28.8842 50.0657 27.7463V9.50746C50.0657 7.57035 48.5163 6 46.605 6ZM48.6814 27.7463C48.6814 28.9085 47.7518 29.8507 46.605 29.8507H11.3057C10.1589 29.8507 9.22928 28.9085 9.22928 27.7463V9.50746C9.22928 8.34519 10.1589 7.40299 11.3057 7.40299H46.605C47.7518 7.40299 48.6814 8.34519 48.6814 9.50746V27.7463ZM4.38428 50.194V48.7813C4.95754 49.2242 5.67689 49.4925 6.47636 49.4925H51.4475C52.2423 49.4925 52.9562 49.2281 53.5264 48.7918V50.194C53.5264 50.9689 52.9066 51.597 52.1421 51.597H5.76857C5.00405 51.597 4.38428 50.9689 4.38428 50.194ZM10.7907 31.2537H11.3057H46.605H46.6471C47.5058 31.2537 48.2759 31.7894 48.5847 32.6016L53.3851 45.2284C53.9092 46.6071 52.9052 48.0896 51.4475 48.0896H6.47636C5.04891 48.0896 4.04715 46.6635 4.51425 45.2964L8.82855 32.6696C9.11811 31.8221 9.90578 31.2537 10.7907 31.2537ZM44.5285 9.50746C46.0576 9.50746 47.2971 10.7637 47.2971 12.3134V26.3433C47.2971 27.893 46.0576 29.1493 44.5285 29.1493H13.3821C11.8531 29.1493 10.6136 27.893 10.6136 26.3433V12.3134C10.6136 10.7637 11.8531 9.50746 13.3821 9.50746H44.5285ZM13.3821 10.9104C12.6176 10.9104 11.9979 11.5386 11.9979 12.3134V26.3433C11.9979 27.1181 12.6176 27.7463 13.3821 27.7463H44.5285C45.2931 27.7463 45.9128 27.1181 45.9128 26.3433V12.3134C45.9128 11.5386 45.2931 10.9104 44.5285 10.9104H13.3821ZM22.0341 14.6811C21.4018 14.6811 20.6756 15.0856 20.2478 16.0972C20.0972 16.4533 19.6903 16.6183 19.3389 16.4656C18.9876 16.313 18.8248 15.9006 18.9754 15.5445C19.5858 14.1012 20.763 13.2782 22.0341 13.2782C23.3052 13.2782 24.4824 14.1012 25.0928 15.5445C25.2434 15.9006 25.0806 16.313 24.7293 16.4656C24.3779 16.6183 23.971 16.4533 23.8204 16.0972C23.3926 15.0856 22.6664 14.6811 22.0341 14.6811ZM35.8769 14.6812C35.2447 14.6812 34.5184 15.0856 34.0906 16.0973C33.94 16.4533 33.5331 16.6183 33.1818 16.4657C32.8304 16.313 32.6677 15.9006 32.8183 15.5445C33.4287 14.1012 34.6058 13.2782 35.8769 13.2782C37.148 13.2782 38.3252 14.1012 38.9356 15.5445C39.0862 15.9006 38.9235 16.313 38.5721 16.4657C38.2208 16.6183 37.8139 16.4533 37.6633 16.0973C37.2354 15.0856 36.5092 14.6812 35.8769 14.6812ZM24.1995 17.9753C24.5545 17.8314 24.9573 18.0064 25.0992 18.3661C25.6434 19.7448 27.285 20.5558 29.0853 20.5558C30.8959 20.5558 32.4008 19.745 32.7915 18.4251C32.9013 18.054 33.2872 17.8434 33.6533 17.9547C34.0195 18.0661 34.2272 18.4571 34.1174 18.8282C33.4699 21.0158 31.168 21.9587 29.0853 21.9587C26.9923 21.9587 24.6541 21.0159 23.814 18.8872C23.672 18.5275 23.8446 18.1192 24.1995 17.9753ZM29.3014 8.45522C29.3014 8.64894 29.1465 8.80597 28.9553 8.80597C28.7642 8.80597 28.6093 8.64894 28.6093 8.45522C28.6093 8.26151 28.7642 8.10448 28.9553 8.10448C29.1465 8.10448 29.3014 8.26151 29.3014 8.45522ZM20.3036 19.3284C21.4503 19.3284 22.38 19.0143 22.38 18.6269C22.38 18.2394 21.4503 17.9254 20.3036 17.9254C19.1568 17.9254 18.2271 18.2394 18.2271 18.6269C18.2271 19.0143 19.1568 19.3284 20.3036 19.3284ZM39.6835 18.6269C39.6835 19.0143 38.7539 19.3284 37.6071 19.3284C36.4603 19.3284 35.5307 19.0143 35.5307 18.6269C35.5307 18.2394 36.4603 17.9254 37.6071 17.9254C38.7539 17.9254 39.6835 18.2394 39.6835 18.6269ZM36.915 38.6194C36.915 38.8131 36.76 38.9701 36.5689 38.9701H21.3418C21.1506 38.9701 20.9957 38.8131 20.9957 38.6194C20.9957 38.4257 21.1506 38.2687 21.3418 38.2687H36.5689C36.76 38.2687 36.915 38.4257 36.915 38.6194ZM36.5689 36.8657H21.3418C20.3861 36.8657 19.6114 37.6508 19.6114 38.6194C19.6114 39.588 20.3861 40.3731 21.3418 40.3731H36.5689C37.5246 40.3731 38.2993 39.588 38.2993 38.6194C38.2993 37.6508 37.5246 36.8657 36.5689 36.8657ZM14.7664 38.6194C14.7664 37.6508 15.5411 36.8657 16.4968 36.8657H17.1889C18.1446 36.8657 18.9193 37.6508 18.9193 38.6194C18.9193 39.588 18.1446 40.3731 17.1889 40.3731H16.4968C15.5411 40.3731 14.7664 39.588 14.7664 38.6194ZM16.4968 38.2687C16.3056 38.2687 16.1507 38.4257 16.1507 38.6194C16.1507 38.8131 16.3056 38.9701 16.4968 38.9701H17.1889C17.38 38.9701 17.535 38.8131 17.535 38.6194C17.535 38.4257 17.38 38.2687 17.1889 38.2687H16.4968ZM40.7218 36.8657C39.7661 36.8657 38.9914 37.6508 38.9914 38.6194C38.9914 39.588 39.7661 40.3731 40.7218 40.3731H41.4139C42.3696 40.3731 43.1443 39.588 43.1443 38.6194C43.1443 37.6508 42.3696 36.8657 41.4139 36.8657H40.7218ZM40.3757 38.6194C40.3757 38.4257 40.5306 38.2687 40.7218 38.2687H41.4139C41.605 38.2687 41.76 38.4257 41.76 38.6194C41.76 38.8131 41.605 38.9701 41.4139 38.9701H40.7218C40.5306 38.9701 40.3757 38.8131 40.3757 38.6194ZM8.53714 38.6194C8.53714 37.6508 9.31185 36.8657 10.2675 36.8657H12.3439C13.2996 36.8657 14.0743 37.6508 14.0743 38.6194C14.0743 39.588 13.2996 40.3731 12.3439 40.3731H10.2675C9.31185 40.3731 8.53714 39.588 8.53714 38.6194ZM10.2675 38.2687C10.0764 38.2687 9.92142 38.4257 9.92142 38.6194C9.92142 38.8131 10.0764 38.9701 10.2675 38.9701H12.3439C12.5351 38.9701 12.69 38.8131 12.69 38.6194C12.69 38.4257 12.5351 38.2687 12.3439 38.2687H10.2675ZM11.6518 31.9552C10.6961 31.9552 9.92142 32.7404 9.92142 33.709C9.92142 34.6775 10.6961 35.4627 11.6518 35.4627H14.4204C15.376 35.4627 16.1507 34.6775 16.1507 33.709C16.1507 32.7404 15.376 31.9552 14.4204 31.9552H11.6518ZM11.3057 33.709C11.3057 33.5152 11.4607 33.3582 11.6518 33.3582H14.4204C14.6115 33.3582 14.7664 33.5152 14.7664 33.709C14.7664 33.9027 14.6115 34.0597 14.4204 34.0597H11.6518C11.4607 34.0597 11.3057 33.9027 11.3057 33.709ZM41.0678 33.709C41.0678 32.7404 41.8425 31.9552 42.7982 31.9552H45.5668C46.5224 31.9552 47.2971 32.7404 47.2971 33.709C47.2971 34.6775 46.5224 35.4627 45.5668 35.4627H42.7982C41.8425 35.4627 41.0678 34.6775 41.0678 33.709ZM42.7982 33.3582C42.6071 33.3582 42.4521 33.5152 42.4521 33.709C42.4521 33.9027 42.6071 34.0597 42.7982 34.0597H45.5668C45.7579 34.0597 45.9128 33.9027 45.9128 33.709C45.9128 33.5152 45.7579 33.3582 45.5668 33.3582H42.7982ZM45.5668 36.8657C44.6111 36.8657 43.8364 37.6508 43.8364 38.6194C43.8364 39.588 44.6111 40.3731 45.5668 40.3731H47.6432C48.5988 40.3731 49.3735 39.588 49.3735 38.6194C49.3735 37.6508 48.5988 36.8657 47.6432 36.8657H45.5668ZM45.2207 38.6194C45.2207 38.4257 45.3756 38.2687 45.5668 38.2687H47.6432C47.8343 38.2687 47.9893 38.4257 47.9893 38.6194C47.9893 38.8131 47.8343 38.9701 47.6432 38.9701H45.5668C45.3756 38.9701 45.2207 38.8131 45.2207 38.6194ZM23.5404 41.0746H34.3696C35.2187 41.0746 35.9822 41.5985 36.2976 42.3975L37.1281 44.502C37.6737 45.8844 36.6692 47.3881 35.2002 47.3881H22.7099C21.2409 47.3881 20.2364 45.8844 20.7819 44.502L21.6125 42.3975C21.9278 41.5985 22.6914 41.0746 23.5404 41.0746ZM23.5404 42.4776C23.2574 42.4776 23.0029 42.6522 22.8978 42.9186L22.0672 45.0231C21.8854 45.4838 22.2202 45.9851 22.7099 45.9851H35.2002C35.6899 45.9851 36.0247 45.4838 35.8428 45.0231L35.0123 42.9186C34.9072 42.6522 34.6527 42.4776 34.3696 42.4776H23.5404ZM18.2271 34.0597C17.8449 34.0597 17.535 34.3738 17.535 34.7612C17.535 35.1486 17.8449 35.4627 18.2271 35.4627H20.3036C20.6858 35.4627 20.9957 35.1486 20.9957 34.7612C20.9957 34.3738 20.6858 34.0597 20.3036 34.0597H18.2271ZM22.38 34.7612C22.38 34.3738 22.6899 34.0597 23.0721 34.0597H25.1486C25.5308 34.0597 25.8407 34.3738 25.8407 34.7612C25.8407 35.1486 25.5308 35.4627 25.1486 35.4627H23.0721C22.6899 35.4627 22.38 35.1486 22.38 34.7612ZM27.9171 34.0597C27.5349 34.0597 27.225 34.3738 27.225 34.7612C27.225 35.1486 27.5349 35.4627 27.9171 35.4627H29.9936C30.3758 35.4627 30.6857 35.1486 30.6857 34.7612C30.6857 34.3738 30.3758 34.0597 29.9936 34.0597H27.9171ZM31.3778 34.7612C31.3778 34.3738 31.6877 34.0597 32.07 34.0597H34.1464C34.5287 34.0597 34.8386 34.3738 34.8386 34.7612C34.8386 35.1486 34.5287 35.4627 34.1464 35.4627H32.07C31.6877 35.4627 31.3778 35.1486 31.3778 34.7612ZM36.915 34.0597C36.5327 34.0597 36.2228 34.3738 36.2228 34.7612C36.2228 35.1486 36.5327 35.4627 36.915 35.4627H38.9914C39.3737 35.4627 39.6835 35.1486 39.6835 34.7612C39.6835 34.3738 39.3737 34.0597 38.9914 34.0597H36.915ZM18.9193 32.6567C18.9193 32.2693 19.2292 31.9552 19.6114 31.9552H21.6878C22.0701 31.9552 22.38 32.2693 22.38 32.6567C22.38 33.0441 22.0701 33.3582 21.6878 33.3582H19.6114C19.2292 33.3582 18.9193 33.0441 18.9193 32.6567ZM23.7643 31.9552C23.382 31.9552 23.0721 32.2693 23.0721 32.6567C23.0721 33.0441 23.382 33.3582 23.7643 33.3582H25.8407C26.223 33.3582 26.5328 33.0441 26.5328 32.6567C26.5328 32.2693 26.223 31.9552 25.8407 31.9552H23.7643ZM27.225 32.6567C27.225 32.2693 27.5349 31.9552 27.9171 31.9552H29.9936C30.3758 31.9552 30.6857 32.2693 30.6857 32.6567C30.6857 33.0441 30.3758 33.3582 29.9936 33.3582H27.9171C27.5349 33.3582 27.225 33.0441 27.225 32.6567ZM32.07 31.9552C31.6877 31.9552 31.3778 32.2693 31.3778 32.6567C31.3778 33.0441 31.6877 33.3582 32.07 33.3582H34.1464C34.5287 33.3582 34.8386 33.0441 34.8386 32.6567C34.8386 32.2693 34.5287 31.9552 34.1464 31.9552H32.07ZM35.5307 32.6567C35.5307 32.2693 35.8406 31.9552 36.2228 31.9552H38.2993C38.6815 31.9552 38.9914 32.2693 38.9914 32.6567C38.9914 33.0441 38.6815 33.3582 38.2993 33.3582H36.2228C35.8406 33.3582 35.5307 33.0441 35.5307 32.6567ZM53.8207 9.4824C54.3109 9.33591 54.7062 8.97965 54.9105 8.51726C55.1149 8.97965 55.5101 9.33591 56.0004 9.4824L56.084 9.50739L56.0004 9.53238C55.5101 9.67887 55.1149 10.0351 54.9105 10.4975C54.7062 10.0351 54.3109 9.67887 53.8207 9.53238L53.737 9.50739L53.8207 9.4824ZM54.2354 6.92707C54.3978 6.19768 55.4232 6.19769 55.5857 6.92707L55.8145 7.9547C55.8698 8.20282 56.0532 8.40118 56.294 8.47311L57.5036 8.83453C58.1655 9.0323 58.1655 9.98248 57.5036 10.1803L56.294 10.5417C56.0532 10.6136 55.8698 10.812 55.8145 11.0601L55.5857 12.0877C55.4232 12.8171 54.3978 12.8171 54.2354 12.0877L54.0065 11.0601C53.9513 10.812 53.7678 10.6136 53.5271 10.5417L52.3175 10.1803C51.6556 9.98248 51.6556 9.0323 52.3175 8.83453L53.5271 8.47311C53.7678 8.40118 53.9513 8.20282 54.0065 7.9547L54.2354 6.92707Z" fill="#23C2EF" stroke="#16749E" stroke-width="0.2"/>
</svg>
