<svg width="523" height="126" viewBox="0 0 523 126" fill="none" xmlns="http://www.w3.org/2000/svg">
<g clip-path="url(#clip0_1_17)">
<path d="M204.79 75.0301V90.1001H141.52V84.7401C141.52 83.8501 141.76 82.7301 142.25 81.3901C142.73 80.0501 143.46 79.0101 144.43 78.2701L176.57 49.0301H141.53V33.9601H204.8V38.8701C204.8 39.9101 204.5 41.2001 203.91 42.7201C203.31 44.2501 202.5 45.3801 201.45 46.1201L169.76 75.0201H204.8L204.79 75.0301Z" fill="#1D759F"/>
<path d="M223.26 89.3101C222.18 88.7901 221.21 88.1001 220.36 87.2501C219.5 86.4001 218.82 85.4301 218.3 84.3501C217.78 83.2701 217.52 82.1701 217.52 81.0601V43.0101C217.52 41.8901 217.78 40.8001 218.3 39.7201C218.82 38.6401 219.51 37.6801 220.36 36.8201C221.21 35.9701 222.18 35.2801 223.26 34.7601C224.34 34.2401 225.4 33.9801 226.44 33.9801H280.45V49.0501H233.58V55.1901H280.34V68.9201H233.58V75.0601H280.45V90.1301H226.44C225.4 90.1301 224.34 89.8701 223.26 89.3501V89.3101Z" fill="#1D759F"/>
<path d="M306.01 34.0701C307.27 34.2201 308.89 34.9801 310.86 36.3601C312.83 37.7401 315.38 39.8201 318.5 42.6101C321.62 45.4001 325.47 48.9701 330.05 53.3201C334.63 57.6701 340.15 62.9001 346.62 69.0001V33.9601H362.69V83.0601C362.69 83.9501 362.45 84.8101 361.96 85.6301C361.48 86.4501 360.82 87.1901 360.01 87.8601C359.19 88.5301 358.22 89.0701 357.11 89.4801C355.99 89.8901 354.84 90.0901 353.65 90.0901H350.53C350.23 90.0901 350.05 90.0501 349.97 89.9801C348.78 89.8301 347.16 89.0501 345.12 87.6401C343.07 86.2301 340.43 84.1101 337.2 81.2801C333.96 78.4501 330.06 74.8601 325.48 70.5101C320.9 66.1601 315.49 60.9701 309.24 54.9401V90.0901H293.17V40.9901C293.17 40.1701 293.41 39.3301 293.9 38.4801C294.38 37.6301 295.03 36.8601 295.85 36.1901C296.67 35.5201 297.64 34.9801 298.75 34.5701C299.87 34.1601 301.06 33.9601 302.32 33.9601H305.33C305.7 33.9601 305.92 34.0001 306 34.0701H306.01Z" fill="#1D759F"/>
<path d="M390.15 90.0901H372.29L395.28 41.9901C397.81 36.6301 401.64 33.9501 406.77 33.9501H413.91C416.44 33.9501 418.47 34.6201 419.99 35.9601C421.51 37.3001 422.91 39.3101 424.17 41.9901L447.16 90.0901H429.3L424.84 80.7201H394.6L390.14 90.0901H390.15ZM409.79 51.1401L401.2 67.3201H418.5L409.8 51.1401H409.79Z" fill="#1D759F"/>
<path d="M504.99 55.1701V49.0301H455.89V33.9601H512.13C513.17 33.9601 514.23 34.2201 515.31 34.7401C516.39 35.2601 517.36 35.9501 518.21 36.8001C519.06 37.6601 519.75 38.6201 520.27 39.7001C520.79 40.7801 521.05 41.8801 521.05 42.9901V59.8401C521.05 60.9601 520.79 62.0501 520.27 63.1301C519.75 64.2101 519.06 65.1801 518.21 66.0301C517.35 66.8901 516.39 67.5701 515.31 68.0901C514.23 68.6101 513.17 68.8701 512.13 68.8701H507.55L522.95 90.0701H504.76L488.36 68.8701H471.96V90.0701H455.89V55.1401H504.99V55.1701Z" fill="#1D759F"/>
<path d="M62.87 120.9C94.8307 120.9 120.74 94.9908 120.74 63.03C120.74 31.0693 94.8307 5.16003 62.87 5.16003C30.9093 5.16003 5 31.0693 5 63.03C5 94.9908 30.9093 120.9 62.87 120.9Z" stroke="#F49633" stroke-width="10" stroke-miterlimit="10"/>
<path d="M85.88 41.8301C78.91 45.3801 70.98 47.4001 62.56 47.4001C54.14 47.4001 46.45 45.4501 39.57 42.0001C33.11 48.2601 36.01 58.9701 44.82 61.3201C50.47 62.8201 56.42 63.6301 62.56 63.6301C68.7 63.6301 74.92 62.7901 80.69 61.2201C89.51 58.8201 92.38 48.1001 85.88 41.8401V41.8301Z" fill="#1D759F"/>
<path d="M39.86 102.09C46.83 98.54 54.76 96.52 63.18 96.52C71.6 96.52 79.29 98.47 86.17 101.92C92.63 95.66 89.73 84.95 80.92 82.6C75.27 81.1 69.32 80.29 63.18 80.29C57.04 80.29 50.82 81.13 45.05 82.7C36.23 85.1 33.36 95.82 39.86 102.08V102.09Z" fill="#1D759F"/>
<path d="M62.78 41.8301C68.4409 41.8301 73.03 37.3843 73.03 31.9001C73.03 26.4159 68.4409 21.9701 62.78 21.9701C57.1191 21.9701 52.53 26.4159 52.53 31.9001C52.53 37.3843 57.1191 41.8301 62.78 41.8301Z" fill="#F49633"/>
<path d="M40.73 79.3101L85.88 41.8201C92.51 48.2001 92.11 58.7001 85.01 64.5901L39.86 102.08C33.23 95.7001 33.63 85.2001 40.73 79.3101Z" fill="#34BDEA"/>
</g>
<defs>
<clipPath id="clip0_1_17">
<rect width="522.96" height="125.74" fill="white" transform="translate(0 0.160034)"/>
</clipPath>
</defs>
</svg>
