<svg width="16" height="16" viewBox="0 0 16 16" fill="none" xmlns="http://www.w3.org/2000/svg">
<g clip-path="url(#clip0_3008_7173)">
<path fill-rule="evenodd" clip-rule="evenodd" d="M2.38332 1.19135C3.24271 0.3347 4.68362 0.574254 5.29202 1.58503L5.29629 1.59206L6.69873 3.98874C7.11171 4.70921 7.00753 5.63539 6.3914 6.24957L6.15878 6.48144C6.98238 7.77326 8.23358 9.0513 9.49824 9.81784L9.72944 9.61299C10.3456 9.01224 11.2654 8.91353 11.9821 9.32179L11.9873 9.32473L14.3606 10.7048C14.9482 10.9861 15.2574 11.5296 15.3207 12.0722C15.3839 12.6144 15.2104 13.2028 14.7884 13.6234L13.9887 14.4206C13.1584 15.2483 11.8067 15.6146 10.6533 15.092C9.135 14.4715 6.85784 13.3007 4.78247 11.2319C2.70167 9.15775 1.52877 6.81699 0.912532 5.38508C0.386825 4.23877 0.749088 2.89473 1.57361 2.06497L2.36487 1.2105C2.37089 1.204 2.37704 1.19761 2.38332 1.19135ZM3.33306 2.12378L2.54454 2.97529C2.53852 2.9818 2.53236 2.98818 2.52608 2.99444C2.02693 3.49201 1.86085 4.26276 2.12679 4.83712C2.12935 4.84268 2.13184 4.84824 2.13425 4.85384C2.7185 6.21277 3.81098 8.38455 5.72495 10.2925C7.64233 12.2037 9.75669 13.2909 11.1707 13.8675C11.1798 13.8712 11.1888 13.8751 11.1977 13.8792C11.7739 14.1443 12.5471 13.9787 13.0462 13.4812L13.846 12.684C13.9571 12.5732 14.0168 12.3977 13.9968 12.2257C13.978 12.0646 13.8981 11.9543 13.7749 11.8984C13.7543 11.8891 13.7343 11.8788 13.7148 11.8675L11.3187 10.4742C11.1088 10.3558 10.8395 10.3852 10.6566 10.5676C10.6473 10.5768 10.6378 10.5857 10.6281 10.5944L10.0283 11.1258C9.82171 11.3089 9.52327 11.3458 9.27807 11.2187C7.47998 10.2867 5.72549 8.4585 4.73891 6.70233C4.59309 6.44277 4.63811 6.11828 4.84913 5.90797L5.44891 5.3101C5.63189 5.1277 5.6614 4.8593 5.54264 4.65001L4.14738 2.26575C3.95747 1.95425 3.54187 1.92583 3.33306 2.12378Z" fill="#BFBFBF"/>
</g>
<defs>
<clipPath id="clip0_3008_7173">
<rect width="16" height="16" fill="white"/>
</clipPath>
</defs>
</svg>
