<svg width="16" height="16" viewBox="0 0 16 16" fill="none" xmlns="http://www.w3.org/2000/svg">
<path d="M11.6 5.66536H11.3333V4.73203C11.4 2.86536 9.86667 1.33203 8 1.33203C6.13333 1.33203 4.6 2.86536 4.6 4.73203V5.73203H4.4C3.06667 5.73203 2 6.7987 2 8.13203V12.332C2 13.6654 3.06667 14.732 4.4 14.732H11.6667C13 14.732 14.0667 13.6654 14.0667 12.332V8.13203C14 6.73203 12.9333 5.66536 11.6 5.66536ZM5.93333 4.73203C5.93333 3.5987 6.86667 2.66536 8 2.66536C9.13333 2.66536 10.0667 3.5987 10.0667 4.73203V5.73203H5.93333V4.73203ZM12.8 12.2654C12.8 12.8654 12.2 13.332 11.6 13.332H4.4C3.8 13.332 3.33333 12.8654 3.33333 12.2654V8.06536C3.33333 7.46536 3.8 6.9987 4.4 6.9987H5.33333H10.8H11.7333C12.3333 6.9987 12.8 7.46536 12.8 8.06536V12.2654Z" fill="#BFBFBF"/>
<path d="M7.99998 10.0664C7.59998 10.0664 7.33331 10.3331 7.33331 10.7331V11.7997C7.33331 12.1997 7.59998 12.4664 7.99998 12.4664C8.39998 12.4664 8.66665 12.1997 8.66665 11.7997V10.7331C8.66665 10.3331 8.39998 10.0664 7.99998 10.0664Z" fill="#BFBFBF"/>
</svg>
