<svg width="24" height="24" viewBox="0 0 24 24" fill="none" xmlns="http://www.w3.org/2000/svg">
<g clip-path="url(#clip0_1244_1376)">
<path fill-rule="evenodd" clip-rule="evenodd" d="M2.57059 11.318C2.57059 8.37298 3.39555 6.22349 4.80982 4.80921C6.22409 3.39494 8.37358 2.56997 11.3186 2.56997C14.2636 2.56997 16.4131 3.39494 17.8274 4.80921C19.2417 6.22349 20.0666 8.37298 20.0666 11.318C20.0666 14.263 19.2417 16.4125 17.8274 17.8269C16.4131 19.2411 14.2636 20.0661 11.3186 20.0661C8.37358 20.0661 6.22409 19.2411 4.80982 17.8269C3.39555 16.4125 2.57059 14.263 2.57059 11.318ZM11.3186 0.427109C7.97914 0.427109 5.21892 1.36964 3.2946 3.29398C1.37026 5.21832 0.427734 7.97856 0.427734 11.318C0.427734 14.6574 1.37026 17.4177 3.2946 19.3419C5.21892 21.2664 7.97914 22.2089 11.3186 22.2089C14.0396 22.2089 16.3761 21.583 18.1891 20.3103L21.0125 23.1336C21.5983 23.7194 22.548 23.7194 23.1338 23.1334C23.7195 22.5477 23.7195 21.5979 23.1338 21.0122L20.3105 18.1891C21.5835 16.3759 22.2094 14.0393 22.2094 11.318C22.2094 7.97856 21.2669 5.21832 19.3426 3.29398C17.4182 1.36964 14.658 0.427109 11.3186 0.427109Z" fill="white"/>
</g>
<defs>
<clipPath id="clip0_1244_1376">
<rect width="24" height="24" fill="white"/>
</clipPath>
</defs>
</svg>
