<svg width="36" height="36" viewBox="0 0 36 36" fill="none" xmlns="http://www.w3.org/2000/svg">
<path fill-rule="evenodd" clip-rule="evenodd" d="M17.3411 1.65248C17.7568 1.44919 18.2431 1.44917 18.6589 1.65244L30.3748 7.38069C30.7548 7.56628 31.0869 7.83681 31.3455 8.17134C31.6041 8.50588 31.7823 8.89545 31.8662 9.30987C32.6982 13.4279 32.3107 17.6998 30.751 21.6008C29.1914 25.5018 26.5274 28.863 23.0857 31.2723L20.5804 33.0246C20.5803 33.0246 20.5804 33.0245 20.5804 33.0246C19.8242 33.5535 18.9235 33.8374 18.0007 33.8374C17.0779 33.8374 16.1774 33.5537 15.4213 33.0247C15.4212 33.0247 15.4214 33.0247 15.4213 33.0247L12.9163 31.2727C9.4743 28.8635 6.80959 25.5021 5.24965 21.6011C3.6897 17.7001 3.30187 13.4287 4.13369 9.31052L4.13402 9.3089C4.21826 8.89416 4.39691 8.50439 4.65611 8.16983C4.91497 7.83571 5.24722 7.56561 5.62716 7.38044C5.62765 7.3802 5.62814 7.37996 5.62864 7.37972L17.3411 1.65248ZM18 4.66971L7.0506 10.0239C6.36569 13.5329 6.70707 17.166 8.03519 20.4872C9.37831 23.846 11.6722 26.7399 14.6357 28.8143C14.6358 28.8144 14.6356 28.8142 14.6357 28.8143L17.1407 30.5663C17.3928 30.7427 17.6931 30.8374 18.0007 30.8374C18.3084 30.8374 18.6086 30.7428 18.8606 30.5664L21.3653 28.8147C21.3654 28.8146 21.3651 28.8148 21.3653 28.8147C24.3285 26.7401 26.6226 23.8458 27.9654 20.4871C29.2934 17.1655 29.6345 13.5322 28.9492 10.0231L18 4.66971Z" fill="#23C2EF"/>
</svg>
