<svg width="36" height="36" viewBox="0 0 36 36" fill="none" xmlns="http://www.w3.org/2000/svg">
<path d="M29.0701 11.1438H25.153V7.07534C25.0023 4.06164 22.5918 1.5 19.4281 1.5H7.07427C4.06115 1.5 1.5 4.06164 1.5 7.07534V13.2534V19.4315C1.5 22.5959 4.06115 25.0068 7.07427 25.0068H10.9913V28.9247C10.9913 32.089 13.5525 34.5 16.5656 34.5H28.9194C32.0832 34.5 34.4937 31.9384 34.4937 28.9247V16.5685C34.6443 13.5548 32.0832 11.1438 29.0701 11.1438ZM7.07427 21.9932C5.56771 21.9932 4.51312 20.7877 4.51312 19.4315V7.07534C4.51312 5.71918 5.71837 4.5137 7.07427 4.5137H19.4281C20.9346 4.5137 21.9892 5.71918 21.9892 7.07534V19.4315C21.9892 20.9384 20.784 21.9932 19.4281 21.9932H14.1551V16.7192C14.1551 15.2123 15.3604 14.1575 16.7163 14.1575C17.6202 14.1575 18.2228 13.5548 18.2228 12.6507C18.2228 11.7466 17.6202 11.1438 16.7163 11.1438C13.5525 11.1438 11.142 13.5548 11.142 16.7192V21.9932H7.07427ZM31.4806 29.0753C31.4806 30.5822 30.426 31.637 29.0701 31.637H16.7163C15.2097 31.637 14.1551 30.4315 14.1551 29.0753V25.1575H19.4281C22.5918 25.1575 25.0023 22.5959 25.0023 19.5822V14.1575H28.9194C30.426 14.1575 31.4806 15.363 31.4806 16.7192V29.0753Z" fill="#23C2EF"/>
</svg>
