<svg width="24" height="24" viewBox="0 0 24 24" fill="none" xmlns="http://www.w3.org/2000/svg">
<g clip-path="url(#clip0_3016_2850)">
<path fill-rule="evenodd" clip-rule="evenodd" d="M5.28126 5.28126C6.24627 4.31626 7.53709 3.61938 9.1665 3.2547V6.41667C9.1665 6.64213 9.20381 6.85889 9.27259 7.06109C8.79281 7.28957 8.35571 7.59152 7.97361 7.97361C7.5915 8.35573 7.28954 8.79286 7.06106 9.27267C6.85886 9.20389 6.64212 9.16658 6.41667 9.16658H3.25468C3.61935 7.53713 4.31625 6.24628 5.28126 5.28126ZM2.98665 12.8333C2.9718 12.5626 2.96429 12.2848 2.96429 12C2.96429 11.7151 2.97181 11.4373 2.98665 11.1666L6.41667 11.1666L6.41667 12.8333H2.98665ZM1.22149 14.6761C1.60618 16.8672 2.49321 18.7086 3.89231 20.1076C5.29136 21.5068 7.13267 22.3938 9.3237 22.7785C9.62734 23.4963 10.3381 23.9999 11.1665 23.9999H12.8332C13.6615 23.9999 14.3723 23.4963 14.6759 22.7785C16.8671 22.3939 18.7085 21.5068 20.1076 20.1076C21.5068 18.7086 22.3938 16.8672 22.7785 14.6761C23.4964 14.3726 24.0002 13.6617 24.0002 12.8333V11.1666C24.0002 10.3381 23.4964 9.62725 22.7785 9.32368C22.3938 7.13265 21.5068 5.29136 20.1076 3.89231C18.7085 2.49319 16.8671 1.60616 14.676 1.22148C14.3724 0.503665 13.6616 0 12.8332 0H11.1665C10.3381 0 9.62727 0.503693 9.32366 1.22154C7.13264 1.60625 5.29136 2.49326 3.89231 3.89231C2.49324 5.29137 1.60623 7.13269 1.22152 9.32375C0.503685 9.62736 0 10.3382 0 11.1666V12.8333C0 13.6617 0.503671 14.3725 1.22149 14.6761ZM3.25464 14.8333H6.41667C6.6421 14.8333 6.85882 14.796 7.06099 14.7272C7.28949 15.2071 7.59147 15.6442 7.97362 16.0264C8.35571 16.4085 8.7928 16.7104 9.27257 16.9389C9.20381 17.1411 9.1665 17.3578 9.1665 17.5833V20.7453C7.53709 20.3806 6.24627 19.6837 5.28126 18.7188C4.31621 17.7537 3.6193 16.4628 3.25464 14.8333ZM8.37274 13.2521C8.52873 13.8974 8.81265 14.4116 9.20053 14.7995C9.58835 15.1873 10.1025 15.4712 10.7477 15.6272C10.8827 15.5984 11.0229 15.5833 11.1665 15.5833H12.8332C12.9769 15.5833 13.1171 15.5984 13.2522 15.6272C13.8975 15.4712 14.4116 15.1873 14.7995 14.7995C15.1874 14.4115 15.4714 13.8972 15.6273 13.2517C15.5986 13.1167 15.5835 12.9768 15.5835 12.8333V11.1666C15.5835 11.0231 15.5986 10.8832 15.6273 10.7482C15.4713 10.1028 15.1874 9.58846 14.7995 9.20053C14.4116 8.81264 13.8974 8.52872 13.252 8.37274C13.1169 8.40152 12.9768 8.41667 12.8332 8.41667H11.1665C11.0229 8.41667 10.8829 8.40153 10.7478 8.37278C10.1026 8.52877 9.58838 8.81267 9.20053 9.20053C8.81266 9.58839 8.52875 10.1026 8.37276 10.7479C8.40153 10.8829 8.41667 11.023 8.41667 11.1666V12.8333C8.41667 12.9769 8.40152 13.117 8.37274 13.2521ZM12.8332 21.0134C12.5625 21.0282 12.2848 21.0357 12 21.0357C11.7151 21.0357 11.4373 21.0282 11.1665 21.0133V17.5833H12.8332L12.8332 21.0134ZM21.0357 12C21.0357 11.7151 21.0282 11.4373 21.0133 11.1666L17.5835 11.1666V12.8333H21.0134C21.0282 12.5626 21.0357 12.2848 21.0357 12ZM18.7188 5.28126C19.6837 6.24628 20.3806 7.53713 20.7453 9.16658H17.5835C17.358 9.16658 17.1412 9.20391 16.939 9.27271C16.7105 8.79289 16.4085 8.35574 16.0264 7.97362C15.6442 7.59145 15.207 7.28946 14.7271 7.06096C14.7959 6.8588 14.8332 6.64209 14.8332 6.41667V3.25462C16.4628 3.61928 17.7537 4.3162 18.7188 5.28126ZM17.5835 14.8333C17.358 14.8333 17.1412 14.7959 16.939 14.7271C16.7105 15.207 16.4086 15.6442 16.0264 16.0263C15.6442 16.4085 15.207 16.7105 14.7271 16.939C14.7959 17.1412 14.8332 17.3579 14.8332 17.5833V20.7454C16.4628 20.3807 17.7537 19.6838 18.7188 18.7188C19.6838 17.7537 20.3807 16.4628 20.7453 14.8333H17.5835ZM12 2.96429C11.7151 2.96429 11.4373 2.97181 11.1665 2.98666V6.41667L12.8332 6.41667L12.8332 2.98664C12.5625 2.9718 12.2848 2.96429 12 2.96429Z" fill="#23C2EF"/>
</g>
<defs>
<clipPath id="clip0_3016_2850">
<rect width="24" height="24" fill="white"/>
</clipPath>
</defs>
</svg>
