<svg width="24" height="24" viewBox="0 0 24 24" fill="none" xmlns="http://www.w3.org/2000/svg">
<g clip-path="url(#clip0_3016_2754)">
<path fill-rule="evenodd" clip-rule="evenodd" d="M16 1C16 0.447715 15.5523 0 15 0C14.4477 0 14 0.447715 14 1V4C14 4.55229 14.4477 5 15 5C15.5523 5 16 4.55228 16 4V1ZM22.2426 1.7072C22.6331 2.09772 22.6331 2.73089 22.2426 3.12141L20.1213 5.24273C19.7308 5.63326 19.0976 5.63326 18.7071 5.24273C18.3166 4.85221 18.3166 4.21904 18.7071 3.82852L20.8284 1.7072C21.2189 1.31668 21.8521 1.31668 22.2426 1.7072ZM14.1152 9.8344C14.5057 10.2249 14.5057 10.8581 14.1152 11.2486L2.12117 23.2426C1.73065 23.6331 1.09748 23.6331 0.706956 23.2426C0.316432 22.8521 0.316431 22.2189 0.706955 21.8284L12.701 9.8344C13.0915 9.44387 13.7246 9.44387 14.1152 9.8344ZM24 9C24 9.55228 23.5523 10 23 10H20C19.4477 10 19 9.55228 19 9C19 8.44771 19.4477 8 20 8H23C23.5523 8 24 8.44771 24 9ZM19.8285 15.2426C20.2191 15.6331 20.8522 15.6331 21.2428 15.2426C21.6333 14.8521 21.6333 14.2189 21.2428 13.8284L19.1214 11.7071C18.7309 11.3165 18.0978 11.3165 17.7072 11.7071C17.3167 12.0976 17.3167 12.7308 17.7072 13.1213L19.8285 15.2426ZM12.2428 6.2426C11.8522 6.63312 11.2191 6.63312 10.8285 6.2426L8.70723 4.12128C8.3167 3.73076 8.3167 3.09759 8.70723 2.70707C9.09775 2.31654 9.73092 2.31654 10.1214 2.70707L12.2428 4.82839C12.6333 5.21891 12.6333 5.85208 12.2428 6.2426Z" fill="#23C2EF"/>
</g>
<defs>
<clipPath id="clip0_3016_2754">
<rect width="24" height="24" fill="white"/>
</clipPath>
</defs>
</svg>
