<svg width="25" height="24" viewBox="0 0 25 24" fill="none" xmlns="http://www.w3.org/2000/svg">
<path fill-rule="evenodd" clip-rule="evenodd" d="M20.9612 3.49031L21.067 3.5961L21.1727 3.70185C22.0574 4.58618 22.6288 5.15733 23.0008 5.7644C24.1797 7.68816 24.1797 10.1106 23.0008 12.0344C22.783 12.3899 22.4968 12.733 22.1193 13.134L22.1276 13.1422L20.7134 14.5564L15.0565 20.2133L13.6423 21.6275L13.6341 21.6193C13.2332 21.9966 12.8901 22.2827 12.5347 22.5005C10.6109 23.6794 8.18847 23.6794 6.26471 22.5005C5.65764 22.1285 5.08649 21.5571 4.20217 20.6725L4.0964 20.5667L3.9906 20.4609C3.10593 19.5766 2.53455 19.0054 2.16254 18.3983C0.983662 16.4746 0.983661 14.0521 2.16254 12.1284C2.38034 11.7729 2.66647 11.4298 3.0438 11.029L3.03571 11.0209L3.71721 10.3394C3.80485 10.2515 3.89594 10.1605 3.99061 10.0658L4.0964 9.96006L10.4604 3.5961L10.5661 3.49031C10.6608 3.39561 10.7519 3.3045 10.8398 3.21685L11.521 2.53562L11.5291 2.54371C11.93 2.16628 12.2732 1.88008 12.6287 1.66224C14.5524 0.483356 16.9749 0.483356 18.8987 1.66224C19.5057 2.03425 20.0769 2.60563 20.9612 3.49031ZM4.45897 12.4442C4.16457 12.7578 3.99372 12.9679 3.86782 13.1734C3.0819 14.4559 3.0819 16.0708 3.86782 17.3534C4.0996 17.7316 4.4837 18.1255 5.51061 19.1524C6.53753 20.1794 6.93148 20.5635 7.30971 20.7952C8.59221 21.5812 10.2072 21.5812 11.4897 20.7952C11.6951 20.6693 11.9052 20.4985 12.2189 20.2041L4.45897 12.4442ZM19.2991 13.1421L13.6422 18.799L5.86413 11.0209L11.521 5.36405L19.2991 13.1421ZM20.7042 11.7188C20.9987 11.405 21.1696 11.1949 21.2955 10.9894C22.0815 9.70689 22.0815 8.09191 21.2955 6.8094C21.0638 6.43117 20.6797 6.03723 19.6528 5.01031C18.6258 3.98339 18.2319 3.59929 17.8537 3.36752C16.5712 2.5816 14.9562 2.5816 13.6737 3.36752C13.4682 3.49345 13.258 3.66434 12.9442 3.95888L20.7042 11.7188ZM11.5209 9.60665C11.9114 9.99717 12.5446 9.99717 12.9351 9.60665C13.3256 9.21612 13.3256 8.58296 12.9351 8.19244C12.5446 7.80191 11.9114 7.80191 11.5209 8.19244C11.1304 8.58296 11.1304 9.21612 11.5209 9.60665ZM15.0564 13.1422C15.447 13.5327 16.0801 13.5327 16.4707 13.1422C16.8612 12.7517 16.8612 12.1185 16.4707 11.728C16.0801 11.3374 15.447 11.3374 15.0564 11.728C14.6659 12.1185 14.6659 12.7517 15.0564 13.1422ZM12.228 15.9706C11.8375 15.5801 11.8375 14.9469 12.228 14.5564C12.6185 14.1659 13.2517 14.1659 13.6422 14.5564C14.0328 14.9469 14.0328 15.5801 13.6422 15.9706C13.2517 16.3611 12.6185 16.3611 12.228 15.9706ZM8.69248 12.4351C9.08301 12.8256 9.71617 12.8256 10.1067 12.4351C10.4972 12.0446 10.4972 11.4114 10.1067 11.0209C9.71617 10.6303 9.08301 10.6303 8.69248 11.0209C8.30196 11.4114 8.30196 12.0446 8.69248 12.4351Z" fill="#23C2EF"/>
</svg>
