<svg width="24" height="24" viewBox="0 0 24 24" fill="none" xmlns="http://www.w3.org/2000/svg">
<g clip-path="url(#clip0_3002_1388)">
<path fill-rule="evenodd" clip-rule="evenodd" d="M8.50007 7.21429C8.50007 5.76578 8.90413 4.78543 9.52339 4.16618C10.1426 3.54693 11.123 3.14286 12.5715 3.14286C14.02 3.14286 15.0003 3.54693 15.6196 4.16618C16.2389 4.78543 16.6429 5.76578 16.6429 7.21429C16.6429 8.66279 16.2389 9.64314 15.6196 10.2624C15.0003 10.8816 14.02 11.2857 12.5715 11.2857C11.123 11.2857 10.1426 10.8816 9.52339 10.2624C8.90413 9.64314 8.50007 8.66279 8.50007 7.21429ZM12.5715 1C10.7286 1 9.13747 1.52164 8.00815 2.65096C6.87885 3.78028 6.35721 5.37136 6.35721 7.21429C6.35721 9.05721 6.87885 10.6483 8.00815 11.7776C9.13747 12.9069 10.7286 13.4286 12.5715 13.4286C14.4144 13.4286 16.0055 12.9069 17.1348 11.7776C18.2641 10.6483 18.7857 9.05721 18.7857 7.21429C18.7857 5.37136 18.2641 3.78028 17.1348 2.65096C16.0055 1.52164 14.4144 1 12.5715 1ZM2.60437 17.7163C5.45747 15.8218 8.88666 14.7176 12.5715 14.7176C16.2563 14.7176 19.6855 15.8218 22.5386 17.7163C23.2888 18.2145 23.7969 18.8798 24.0189 19.6401C24.2392 20.3947 24.1549 21.166 23.8557 21.839C23.26 23.1796 21.8231 24.1429 20.0677 24.1429H5.07541C3.31989 24.1429 1.88301 23.1796 1.28725 21.839C0.988199 21.166 0.90378 20.3947 1.12412 19.6401C1.34608 18.8798 1.85418 18.2145 2.60437 17.7163Z" fill="#23C2EF"/>
</g>
<defs>
<clipPath id="clip0_3002_1388">
<rect width="24" height="24" fill="white"/>
</clipPath>
</defs>
</svg>
