<svg width="16" height="16" viewBox="0 0 16 16" fill="none" xmlns="http://www.w3.org/2000/svg">
<g clip-path="url(#clip0_3008_6180)">
<path fill-rule="evenodd" clip-rule="evenodd" d="M5.66673 4.81083C5.66673 3.84516 5.9361 3.19159 6.34895 2.77876C6.76178 2.36592 7.41535 2.09654 8.38102 2.09654C9.34667 2.09654 10.0002 2.36592 10.4131 2.77876C10.8259 3.19159 11.0953 3.84516 11.0953 4.81083C11.0953 5.77649 10.8259 6.43006 10.4131 6.84289C10.0002 7.25573 9.34667 7.52511 8.38102 7.52511C7.41535 7.52511 6.76178 7.25573 6.34895 6.84289C5.9361 6.43006 5.66673 5.77649 5.66673 4.81083ZM8.38102 0.667969C7.15239 0.667969 6.09167 1.01573 5.33879 1.76861C4.58592 2.52149 4.23816 3.58221 4.23816 4.81083C4.23816 6.03944 4.58592 7.10016 5.33879 7.85304C6.09167 8.60592 7.15239 8.95368 8.38102 8.95368C9.60963 8.95368 10.6704 8.60592 11.4232 7.85304C12.1761 7.10016 12.5238 6.03944 12.5238 4.81083C12.5238 3.58221 12.1761 2.52149 11.4232 1.76861C10.6704 1.01573 9.60963 0.667969 8.38102 0.667969ZM1.73626 11.8122C3.63833 10.5492 5.92446 9.81305 8.38101 9.81305C10.8376 9.81305 13.1237 10.5492 15.0258 11.8122C15.5259 12.1443 15.8646 12.5879 16.0126 13.0947C16.1595 13.5978 16.1033 14.112 15.9038 14.5607C15.5067 15.4544 14.5487 16.0965 13.3785 16.0965H3.38362C2.21328 16.0965 1.25536 15.4544 0.858187 14.5607C0.658819 14.112 0.602541 13.5978 0.749433 13.0947C0.897406 12.5879 1.23614 12.1443 1.73626 11.8122Z" fill="#BFBFBF"/>
</g>
<defs>
<clipPath id="clip0_3008_6180">
<rect width="16" height="16" fill="white"/>
</clipPath>
</defs>
</svg>
